<?xml version="1.0" encoding="UTF-8"?>
<svg width="151px" height="61px" viewBox="0 0 151 61" version="1.1" xmlns="http://www.w3.org/2000/svg" xmlns:xlink="http://www.w3.org/1999/xlink">
    <!-- Generator: Sketch 50.2 (55047) - http://www.bohemiancoding.com/sketch -->
    <title>Group 147</title>
    <desc>Created with Sketch.</desc>
    <defs>
        <polygon id="path-1" points="0 0.51046874 8.95203712 0.51046874 8.95203712 4.61846364 0 4.61846364"></polygon>
        <polygon id="path-3" points="0.354654545 0.2492 5.75454545 0.2492 5.75454545 6.79796923 0.354654545 6.79796923"></polygon>
    </defs>
    <g id="Page-1" stroke="none" stroke-width="1" fill="none" fill-rule="evenodd">
        <g id="Desktop-HD-Copy-13" transform="translate(-130.000000, -1955.000000)">
            <g id="Group-147" transform="translate(130.000000, 1955.000000)">
                <path d="M1.16532208,1.08141962 L2.29278888,1.08141962 L2.29278888,5.79906054 C2.29278888,5.9723382 2.34094576,6 2.49286335,6 L3.30557279,6 C3.45649746,6 3.50614373,5.97181628 3.50614373,5.79906054 L3.50614373,1.08141962 L4.57204915,1.08141962 C4.64403624,1.08141962 4.75176865,1.08141962 4.78949981,0.929018789 L4.97319101,0.24217119 C4.97716272,0.229123173 4.98014149,0.21868476 4.98312027,0.209290188 C4.99404245,0.1717119 5,0.151356994 5,0.114300626 C5,0.0913361169 4.98212734,0.0866388309 4.9746804,0.0720250522 C4.97319101,0.0683716075 4.9707087,0.0657620042 4.96872285,0.0621085595 C4.93794216,0.0187891441 4.88184188,0 4.76467668,0 L1.16532208,0 C1.03375946,0 1,0.0334029228 1,0.167014614 L1,0.915448852 C1,1.0480167 1.03375946,1.08141962 1.16532208,1.08141962" id="Fill-1" fill="#767678"></path>
                <path d="M7.19750061,6 L8.00024504,6 C8.15020828,6 8.19725557,5.97182119 8.19725557,5.79805184 L8.19725557,3.38824143 L9.80225435,3.38824143 L9.80225435,5.79805184 C9.80225435,5.97077753 9.85126195,6 10.000245,6 L10.8020093,6 C10.9529527,6 11,5.97182119 11,5.79805184 L11,0.201948165 C11,0.0276569838 10.9529527,0 10.8020093,0 L10.000245,0 C9.85126195,0 9.80225435,0.0292224735 9.80225435,0.201948165 L9.80225435,2.41137589 L8.19725557,2.41137589 L8.19725557,0.201948165 C8.19725557,0.0276569838 8.15020828,0 8.00024504,0 L7.19750061,0 C7.04655722,0 7,0.0276569838 7,0.201948165 L7,5.79805184 C7,5.97182119 7.04655722,6 7.19750061,6" id="Fill-3" fill="#767678"></path>
                <path d="M15.9684211,5.79906054 L15.9684211,5.22442589 C15.9684211,5.05688935 15.9377444,5.02296451 15.7861654,5.02296451 L14.1025564,5.02296451 L14.1025564,3.35386221 L15.4374436,3.35386221 C15.5754887,3.35386221 15.6192481,3.32620042 15.6192481,3.15240084 L15.6192481,2.57776618 C15.6192481,2.41022965 15.5885714,2.37578288 15.4374436,2.37578288 L14.1025564,2.37578288 L14.1025564,0.97651357 L15.6278195,0.97651357 C15.675188,0.97651357 15.7875188,0.97651357 15.8245113,0.824634656 L15.9756391,0.24217119 C15.9792481,0.229123173 15.9819549,0.21868476 15.9846617,0.209290188 C15.9945865,0.1717119 16,0.151356994 16,0.114300626 C16,0.0913361169 15.9837594,0.0866388309 15.9769925,0.0720250522 C15.975188,0.0683716075 15.9733835,0.0647181628 15.9715789,0.0621085595 C15.943609,0.0187891441 15.8917293,0 15.7861654,0 L13.1822556,0 C13.0451128,0 13,0.0287056367 13,0.200939457 L13,5.79906054 C13,5.97181628 13.0451128,6 13.1822556,6 L15.7942857,6 C15.9377444,6 15.9684211,5.96450939 15.9684211,5.79906054" id="Fill-5" fill="#767678"></path>
                <path d="M22.9671436,7 C24.1642819,7 25,6.15111074 25,4.93667109 C25,4.26823607 24.72761,3.71875 24.1902491,3.30271883 C23.8977213,3.07816645 23.5654478,2.91395889 23.27239,2.7688992 C22.7435082,2.50721154 22.2866985,2.28149867 22.2866985,1.82020889 C22.2866985,1.15757626 22.8865925,1.0862069 23.145204,1.0862069 C23.6613672,1.0862069 24.1308956,1.34499337 24.3306836,1.45523873 C24.4069952,1.49701592 24.4340223,1.51210212 24.4504505,1.51210212 C24.4923158,1.51210212 24.536301,1.47322613 24.5686275,1.40475796 L24.8770535,0.765334881 C24.9109698,0.693965517 24.9252782,0.648126658 24.9252782,0.609830902 C24.9252782,0.422994032 23.9936407,0 23.1075782,0 C22.1065183,0 21.0381558,0.52395557 21.0381558,1.9942805 C21.0381558,2.87682361 21.4319025,3.2452752 21.8579756,3.51334549 C22.1399046,3.69089854 22.4255432,3.82493369 22.6788553,3.94446286 C23.2776895,4.22703912 23.7514573,4.4498508 23.7514573,5.04285477 C23.7514573,5.61206897 23.4679385,5.91205239 22.9305776,5.91205239 C22.2994171,5.91205239 21.7413884,5.64920424 21.5029147,5.53663793 C21.4250132,5.49950265 21.3969263,5.4867374 21.382088,5.4867374 C21.3349232,5.4867374 21.2829889,5.53431698 21.263381,5.59698276 L21.0482247,6.2358256 C21.0423953,6.25323276 21.036036,6.2718004 21.0307366,6.2897878 C21.0143084,6.33446618 21,6.37392241 21,6.39829244 C21,6.57758621 22.0296767,7 22.9671436,7" id="Fill-7" fill="#767678"></path>
                <path d="M29.4343448,7 C30.3385451,7 31,6.55143828 31,6.35994363 C31,6.30597695 30.9793295,6.26361602 30.9512389,6.20384647 L30.6618524,5.66185858 C30.6258116,5.59570588 30.5929508,5.55450551 30.5436597,5.55450551 C30.4694581,5.55450551 30.378296,5.60615104 30.2622234,5.67056288 C30.0761892,5.77211307 29.8217835,5.91312277 29.4990062,5.91312277 C28.7962104,5.91312277 28.3610706,5.47616679 28.3610706,3.30125176 C28.3610706,1.70662356 28.6801378,1.08571665 29.4990062,1.08571665 C29.8090632,1.08571665 30.0449185,1.26908729 30.2171724,1.40255326 C30.3173446,1.4803117 30.3968464,1.54124181 30.4599178,1.54124181 C30.4996687,1.54124181 30.5399496,1.50816546 30.5865907,1.43562961 L30.9305684,0.894222001 C30.9814496,0.821105861 30.9814496,0.775843488 30.9814496,0.736383984 C30.9814496,0.5286413 30.1387306,0 29.4343448,0 C28.6361468,0 28.021333,0.315676034 27.6068637,0.938904087 C27.2040546,1.54472353 27,2.42327779 27,3.55251596 C27,5.87308298 27.7960779,7 29.4343448,7" id="Fill-9" fill="#767678"></path>
                <path d="M37,0.201948165 C37,0.0276569838 36.9524626,0 36.8024994,0 L36.000245,0 C35.8512619,0 35.8022543,0.0292224735 35.8022543,0.201948165 L35.8022543,2.41137589 L34.1977457,2.41137589 L34.1977457,0.201948165 C34.1977457,0.0292224735 34.148248,0 33.9992649,0 L33.1975006,0 C33.0465572,0 33,0.0276569838 33,0.201948165 L33,5.79805184 C33,5.97182119 33.0465572,6 33.1975006,6 L33.9992649,6 C34.148248,6 34.1977457,5.97077753 34.1977457,5.79805184 L34.1977457,3.38824143 L35.8022543,3.38824143 L35.8022543,5.79805184 C35.8022543,5.97077753 35.8512619,6 36.000245,6 L36.8024994,6 C36.9524626,6 37,5.97182119 37,5.79805184 L37,0.201948165 Z" id="Fill-11" fill="#767678"></path>
                <path d="M41.5,1.05719496 C42.3650362,1.05719496 42.5467618,2.38884284 42.5467618,3.50464191 C42.5467618,4.61695955 42.3650362,5.94280504 41.5,5.94280504 C40.6349638,5.94280504 40.4532382,4.61695955 40.4532382,3.50464191 C40.4532382,2.38884284 40.6349638,1.05719496 41.5,1.05719496 M41.5,7 C43.1123188,7 44,5.75886936 44,3.50464191 C44,1.24461207 43.1123188,0 41.5,0 C39.8876812,0 39,1.24461207 39,3.50464191 C39,5.75886936 39.8876812,7 41.5,7" id="Fill-13" fill="#767678"></path>
                <path d="M47.5,1.05719496 C48.3650362,1.05719496 48.5467618,2.38884284 48.5467618,3.50464191 C48.5467618,4.61695955 48.3650362,5.94280504 47.5,5.94280504 C46.6349638,5.94280504 46.4532382,4.61695955 46.4532382,3.50464191 C46.4532382,2.38884284 46.6349638,1.05719496 47.5,1.05719496 M47.5,7 C49.1123188,7 50,5.75886936 50,3.50464191 C50,1.24461207 49.1123188,0 47.5,0 C45.8876812,0 45,1.24461207 45,3.50464191 C45,5.75886936 45.8876812,7 47.5,7" id="Fill-15" fill="#767678"></path>
                <path d="M51.1730934,6 L53.6610968,6 C53.7827763,6 53.8093402,5.97442811 53.840617,5.82934679 L53.9841474,5.16813082 C53.9918595,5.1326433 54,5.07889015 54,5.04914325 C54,4.95990258 53.9520137,4.91815256 53.8496144,4.91815256 L52.0471294,4.91815256 L52.0471294,0.20092198 C52.0471294,0.0287031399 52.0042845,0 51.874036,0 L51.1730934,0 C51.0411311,0 51,0.0276593894 51,0.20092198 L51,5.79855615 C51,5.97181874 51.0411311,6 51.1730934,6" id="Fill-17" fill="#767678"></path>
                <path d="M62.5,1.05719496 C63.3650362,1.05719496 63.5467618,2.38884284 63.5467618,3.50464191 C63.5467618,4.61695955 63.3650362,5.94280504 62.5,5.94280504 C61.6349638,5.94280504 61.4532382,4.61695955 61.4532382,3.50464191 C61.4532382,2.38884284 61.6349638,1.05719496 62.5,1.05719496 M62.5,7 C64.1123188,7 65,5.75886936 65,3.50464191 C65,1.24461207 64.1123188,0 62.5,0 C60.8876812,0 60,1.24461207 60,3.50464191 C60,5.75886936 60.8876812,7 62.5,7" id="Fill-19" fill="#767678"></path>
                <path d="M67.1818319,6 L67.9285607,6 C68.0720409,6 68.1027222,5.96450939 68.1027222,5.79906054 L68.1027222,3.35386221 L69.437359,3.35386221 C69.5754249,3.35386221 69.6191909,3.32620042 69.6191909,3.15240084 L69.6191909,2.57776618 C69.6191909,2.41022965 69.5885096,2.37578288 69.437359,2.37578288 L68.1027222,2.37578288 L68.1027222,0.97651357 L69.6273124,0.97651357 C69.6751391,0.97651357 69.7874868,0.97651357 69.8249361,0.824634656 L69.9756354,0.24217119 C69.9787938,0.229123173 69.9819522,0.21868476 69.9842082,0.209290188 C69.9945857,0.1717119 70,0.151356994 70,0.114300626 C70,0.0913361169 69.983757,0.0866388309 69.976989,0.0720250522 C69.9751842,0.0683716075 69.9733795,0.0647181628 69.9715747,0.0621085595 C69.9436005,0.0187891441 69.891713,0 69.7861333,0 L67.1818319,0 C67.043766,0 67,0.0276617954 67,0.200939457 L67,5.79906054 C67,5.9723382 67.043766,6 67.1818319,6" id="Fill-21" fill="#767678"></path>
                <path d="M75.0488827,0.531660592 L76.7119682,6.81546156 C76.742587,6.96261761 76.7689085,7 76.9375806,7 L78.0146111,7 C78.1848947,7 78.2010099,6.96558447 78.2402235,6.8166483 L79.9511173,0.472323472 C79.9554147,0.456895821 79.9613236,0.44146817 79.965621,0.425447148 C79.9822733,0.36729677 80,0.308553022 80,0.258709841 C80,0.17860473 79.9038462,0.15368314 79.8270305,0.13410189 L79.8039321,0.12876155 L78.9697035,0.0195812495 C78.9562742,0.0195812495 78.9439192,0.0166143935 78.9272669,0.0124607951 C78.9036313,0.00712045435 78.8740868,0 78.8284272,0 C78.7671895,0 78.7161581,0.0148342799 78.6678126,0.213613631 L77.7519338,4.19157413 C77.6740438,4.51674154 77.5370649,5.19911842 77.4774388,5.6423667 C77.4183498,5.187251 77.3119897,4.49775367 77.2486034,4.19276087 L76.4460679,0.214207002 C76.4073915,0.0160210223 76.3483025,0 76.2859905,0 C76.2397937,0 76.2102492,0.00712045435 76.1866137,0.0124607951 C76.1699613,0.0166143935 76.1576064,0.0195812495 76.1414912,0.0195812495 L75.1944564,0.188098669 L75.1756554,0.19343901 C75.0972282,0.212426888 75,0.237348478 75,0.318046961 C75,0.368483513 75.018801,0.429600746 75.0359905,0.488937866 C75.0402879,0.503178774 75.0445853,0.518013054 75.0488827,0.531660592" id="Fill-23" fill="#767678"></path>
                <path d="M82.2378442,6 L84.7627417,6 C84.9408319,6 85,5.97077753 85,5.79805184 L85,5.32840494 C85,5.15567925 84.9408319,5.12645678 84.7627417,5.12645678 L84.2173404,5.12645678 L84.2173404,0.873021395 L84.7627417,0.873021395 C84.9408319,0.873021395 85,0.843798922 85,0.67159506 L85,0.201948165 C85,0.0292224735 84.9408319,0 84.7627417,0 L82.2378442,0 C82.059754,0 82,0.0292224735 82,0.201948165 L82,0.67159506 C82,0.843798922 82.059754,0.873021395 82.2378442,0.873021395 L82.7838313,0.873021395 L82.7838313,5.12645678 L82.2378442,5.12645678 C82.059754,5.12645678 82,5.15567925 82,5.32840494 L82,5.79805184 C82,5.97077753 82.059754,6 82.2378442,6" id="Fill-25" fill="#767678"></path>
                <path d="M87.9671436,7 C89.163752,7 90,6.15111074 90,4.93667109 C90,4.26823607 89.72708,3.71816976 89.1891892,3.30271883 C88.8966614,3.07816645 88.5643879,2.91395889 88.2713302,2.76773873 C87.7429783,2.50721154 87.2866985,2.28149867 87.2866985,1.82020889 C87.2866985,1.15757626 87.8865925,1.0862069 88.145204,1.0862069 C88.6608373,1.0862069 89.1303657,1.34499337 89.3306836,1.45523873 C89.4069952,1.49701592 89.4345522,1.51210212 89.4499205,1.51210212 C89.4928458,1.51210212 89.5341812,1.47380637 89.5686275,1.40475796 L89.8759936,0.765334881 C89.9109698,0.693965517 89.9247483,0.648126658 89.9247483,0.609830902 C89.9247483,0.422994032 88.9925808,0 88.1075782,0 C87.1065183,0 86.0370959,0.52395557 86.0370959,1.9942805 C86.0370959,2.87740385 86.4319025,3.24585544 86.8590355,3.51334549 C87.1404346,3.69089854 87.4266031,3.82493369 87.6783254,3.94446286 C88.2776895,4.22703912 88.7509274,4.4498508 88.7509274,5.04285477 C88.7509274,5.61206897 88.4674086,5.91205239 87.9300477,5.91205239 C87.2994171,5.91205239 86.7403286,5.64920424 86.5029147,5.53663793 C86.4244833,5.49950265 86.3969263,5.4867374 86.382088,5.4867374 C86.3338633,5.4867374 86.2824589,5.53431698 86.2628511,5.59698276 L86.0476948,6.2358256 C86.0429253,6.2509118 86.0370959,6.26599801 86.0323264,6.28282493 C86.0148384,6.33098475 86,6.37276194 86,6.39829244 C86,6.57758621 87.0291468,7 87.9671436,7" id="Fill-27" fill="#767678"></path>
                <path d="M95,4.51099228 L95,0.229946524 C95,0.0332739156 94.9527651,0 94.8105928,0 L94.0450134,0 C93.9014381,0 93.8565416,0.0314913844 93.8565416,0.229946524 L93.8565416,4.51099228 C93.8565416,4.85323827 93.8471881,5.20915033 93.7340115,5.466429 C93.6100783,5.74985146 93.3696948,5.88651218 92.9997662,5.88651218 C92.6303052,5.88651218 92.3899217,5.74985146 92.2664562,5.466429 C92.1537472,5.20915033 92.1443938,4.85323827 92.1443938,4.51099228 L92.1443938,0.229946524 C92.1443938,0.0314913844 92.0985619,0 91.9554542,0 L91.1894072,0 C91.0481702,0 91,0.0332739156 91,0.229946524 L91,4.51099228 C91,5.66963755 91.2277563,7 92.9997662,7 C94.7722437,7 95,5.66963755 95,4.51099228" id="Fill-29" fill="#767678"></path>
                <path d="M99.2265995,2.1125511 C99.3048685,1.81142907 99.3851972,1.35113508 99.4279362,0.964947378 C99.4742797,1.32556319 99.5417352,1.79211968 99.6179445,2.11202923 L99.984573,3.58632687 L98.8347395,3.58632687 L99.2265995,2.1125511 Z M97.1982993,6 L98.1138408,6 C98.2611101,6 98.283252,5.96503436 98.3203268,5.8037749 L98.6879851,4.40723667 L100.22041,4.40723667 L100.616389,5.80429677 C100.660158,5.96085935 100.682815,6 100.786315,6 L101.801238,6 C101.875388,6 102,5.98851874 102,5.9112812 C102,5.88362181 101.986097,5.84187179 101.974769,5.8058624 C101.970649,5.79124989 101.96653,5.77768113 101.962925,5.76672175 L100.186425,0.150821954 C100.147805,0.0391406454 100.121544,0 99.9804536,0 L99.038136,0 C98.8785084,0 98.8610008,0.0198312603 98.8218663,0.144037575 L97.0355822,5.75002174 C97.0335225,5.75889362 97.0294031,5.77194051 97.0252836,5.78446551 C97.0134403,5.82256241 96.9990223,5.86848743 97.0000522,5.90554058 C97.0108657,5.98434374 97.0839854,6 97.1982993,6 Z" id="Fill-31" fill="#767678"></path>
                <path d="M104.173069,6 L106.660717,6 C106.782807,6 106.808939,5.97442811 106.84064,5.82934679 L106.984578,5.16813082 C106.991861,5.1326433 107,5.07889015 107,5.04914325 C107,4.95990258 106.951164,4.91815256 106.849207,4.91815256 L105.047408,4.91815256 L105.047408,0.20092198 C105.047408,0.0287031399 105.004141,0 104.873911,0 L104.173069,0 C104.041125,0 104,0.0276593894 104,0.20092198 L104,5.79855615 C104,5.97181874 104.041125,6 104.173069,6" id="Fill-33" fill="#767678"></path>
                <path d="M113.292964,5.79855615 C113.292964,5.97234061 113.340613,6 113.493486,6 L114.305497,6 C114.456384,6 114.506514,5.97077498 114.506514,5.79855615 L114.506514,1.08184744 L115.572155,1.08184744 C115.643628,1.08184744 115.750341,1.08184744 115.789552,0.928937984 L115.972701,0.242150126 C115.976672,0.22962512 115.980146,0.219187614 115.982628,0.209793859 C115.993051,0.17221884 116,0.151865704 116,0.114290685 C116,0.0913281726 115.982132,0.0861094198 115.97419,0.0714969122 C115.972701,0.0688875359 115.970716,0.065234409 115.968731,0.0626250326 C115.93895,0.0193093851 115.880879,0 115.764239,0 L112.165281,0 C112.034744,0 112,0.0339218927 112,0.166478212 L112,0.915891102 C112,1.04792555 112.034744,1.08184744 112.165281,1.08184744 L113.292964,1.08184744 L113.292964,5.79855615 Z" id="Fill-35" fill="#767678"></path>
                <path d="M118.197942,6 L118.99951,6 C119.150416,6 119.197452,5.97182119 119.197452,5.79805184 L119.197452,3.38824143 L120.802058,3.38824143 L120.802058,5.79805184 C120.802058,5.97077753 120.851543,6 121,6 L121.801568,6 C121.952964,6 122,5.97182119 122,5.79805184 L122,0.201948165 C122,0.0276569838 121.952964,0 121.801568,0 L121,0 C120.851543,0 120.802058,0.0292224735 120.802058,0.201948165 L120.802058,2.41137589 L119.197452,2.41137589 L119.197452,0.201948165 C119.197452,0.0276569838 119.150416,0 118.99951,0 L118.197942,0 C118.047036,0 118,0.0276569838 118,0.201948165 L118,5.79805184 C118,5.97182119 118.047036,6 118.197942,6" id="Fill-37" fill="#767678"></path>
                <path d="M124.182256,6 L126.793383,6 C126.937293,6 126.968421,5.96451248 126.968421,5.79855615 L126.968421,5.22397147 C126.968421,5.05697138 126.937744,5.02200574 126.785714,5.02200574 L125.102556,5.02200574 L125.102556,3.35409237 L126.436992,3.35409237 C126.575489,3.35409237 126.619248,3.32591111 126.619248,3.15264852 L126.619248,2.57806384 C126.619248,2.41054188 126.588571,2.37609811 126.436992,2.37609811 L125.102556,2.37609811 L125.102556,0.976950509 L126.62782,0.976950509 C126.675188,0.976950509 126.787519,0.976950509 126.824511,0.825084805 L126.975188,0.242150126 C126.978797,0.22962512 126.981955,0.219187614 126.984211,0.209793859 C126.994135,0.17221884 127,0.151865704 127,0.114290685 C127,0.0918500478 126.983759,0.0861094198 126.976541,0.0714969122 C126.975188,0.0688875359 126.973383,0.065234409 126.971579,0.0626250326 C126.944511,0.0193093851 126.891729,0 126.785714,0 L124.182256,0 C124.043308,0 124,0.0276593894 124,0.201443855 L124,5.79855615 C124,5.97234061 124.043308,6 124.182256,6" id="Fill-39" fill="#767678"></path>
                <path d="M130.834225,3.58632687 L131.226599,2.1125511 C131.304868,1.81142907 131.385197,1.35113508 131.427936,0.964947378 C131.47428,1.32556319 131.541735,1.79211968 131.617945,2.11202923 L131.984573,3.58632687 L130.834225,3.58632687 Z M132.786315,6 L133.800723,6 C133.875388,6 134,5.98851874 134,5.9112812 C134,5.88362181 133.986097,5.84187179 133.974769,5.8058624 C133.970649,5.79124989 133.96653,5.77768113 133.962925,5.76672175 L132.186425,0.150821954 C132.147805,0.0391406454 132.121544,0 131.980454,0 L131.038136,0 C130.878508,0 130.861001,0.0198312603 130.821866,0.144037575 L129.035582,5.75002174 C129.033522,5.75889362 129.029403,5.77194051 129.025284,5.78446551 C129.01344,5.82256241 128.999022,5.86848743 129.000052,5.90554058 C129.010866,5.98434374 129.083985,6 129.198299,6 L130.113841,6 C130.26111,6 130.283252,5.96503436 130.320842,5.8037749 L130.687985,4.40723667 L132.22041,4.40723667 L132.616389,5.80429677 C132.661188,5.96294686 132.6823,6 132.786315,6 Z" id="Fill-41" fill="#767678"></path>
                <path d="M135.165281,1.08184744 L136.292964,1.08184744 L136.292964,5.79855615 C136.292964,5.97234061 136.340613,6 136.493486,6 L137.305497,6 C137.456384,6 137.506514,5.97077498 137.506514,5.79855615 L137.506514,1.08184744 L138.572155,1.08184744 C138.643132,1.08184744 138.751334,1.08184744 138.789552,0.928937984 L138.972701,0.242150126 C138.976672,0.22962512 138.980146,0.219187614 138.982628,0.209793859 C138.993548,0.17221884 139,0.151865704 139,0.114290685 C139,0.0913281726 138.982132,0.0861094198 138.97419,0.0714969122 C138.972701,0.0688875359 138.970716,0.065234409 138.968731,0.0626250326 C138.93895,0.0193093851 138.880879,0 138.764239,0 L135.165281,0 C135.034744,0 135,0.0339218927 135,0.166478212 L135,0.915891102 C135,1.04792555 135.034744,1.08184744 135.165281,1.08184744" id="Fill-43" fill="#767678"></path>
                <path d="M142.200442,1.08318479 L142.502884,1.08318479 C143.009083,1.08318479 143.427397,1.14913844 143.427397,1.95365419 C143.427397,2.86749851 142.945747,2.94414736 142.408126,2.94414736 L142.200442,2.94414736 L142.200442,1.08318479 Z M141.198846,6.83184789 L142.001596,6.83184789 C142.150362,6.83184789 142.200442,6.7979798 142.200442,6.60190137 L142.200442,4.02673797 L142.587824,4.02673797 L143.749969,6.68270945 C143.852584,6.90552585 143.91592,7 143.963545,7 C144.000368,7 144.053394,6.98989899 144.087271,6.9792038 L144.81441,6.7409388 C144.909169,6.70944742 145,6.67795603 145,6.60190137 C145,6.53832442 144.956303,6.45811052 144.927335,6.40225787 L143.650792,3.7771836 L143.652265,3.77599525 C143.968455,3.59001783 144.627838,3.20261438 144.627838,1.93464052 C144.627838,1.12061794 144.370075,0.556149733 143.86093,0.259655377 C143.416104,0 142.863263,0 142.597643,0 L141.198846,0 C141.047134,0 141,0.0326797386 141,0.229352347 L141,6.60190137 C141,6.79976233 141.047134,6.83184789 141.198846,6.83184789 Z" id="Fill-45" fill="#767678"></path>
                <path d="M147.182679,6 L149.793866,6 C149.937303,6 149.968877,5.96451557 149.968877,5.79805184 L149.968877,5.22351713 C149.968877,5.05600974 149.937754,5.0220908 149.785747,5.0220908 L148.102842,5.0220908 L148.102842,3.35432249 L149.437077,3.35432249 C149.575101,3.35432249 149.619305,3.32562185 149.619305,3.15237433 L149.619305,2.57783962 C149.619305,2.41033223 149.588633,2.37641329 149.437077,2.37641329 L148.102842,2.37641329 L148.102842,0.977387372 L149.627876,0.977387372 C149.675237,0.977387372 149.787551,0.977387372 149.823636,0.825013046 L149.975192,0.242129066 C149.9788,0.229605149 149.981958,0.219168551 149.984213,0.209253783 C149.994136,0.172725691 150,0.152374326 150,0.114802574 C150,0.0923638894 149.983762,0.0866237607 149.976545,0.0720125239 C149.975192,0.0683597147 149.973387,0.0657505653 149.971583,0.0631414159 C149.944069,0.0198295356 149.892197,0 149.785747,0 L147.182679,0 C147.046008,0 147,0.0292224735 147,0.201948165 L147,5.79805184 C147,5.97077753 147.046008,6 147.182679,6" id="Fill-47" fill="#767678"></path>
                <path d="M145.623558,21.9475198 L145.976537,21.9475198 C146.17338,22.5562545 146.753871,23 147.447561,23 C148.30631,23 149,22.327642 149,21.4989216 C149,20.672358 148.30631,20 147.447561,20 C146.753871,20 146.17338,20.4437455 145.976537,21.0524802 L145.623558,21.0524802 C145.426157,20.4437455 144.842877,20 144.149187,20 C143.455497,20 142.875005,20.4437455 142.674817,21.0524802 L142.325183,21.0524802 C142.124437,20.4437455 141.543945,20 140.850255,20 C140.156565,20 139.577189,20.4437455 139.376442,21.0524802 L139.023463,21.0524802 C138.826063,20.4437455 138.246129,20 137.54965,20 C136.69369,20 136,20.672358 136,21.4989216 C136,22.327642 136.69369,23 137.54965,23 C138.243341,23 138.822717,22.5562545 139.023463,21.9475198 L139.37923,21.9475198 C139.577189,22.5562545 140.156565,23 140.850255,23 C141.543945,23 142.124437,22.5562545 142.321838,21.9475198 L142.678162,21.9475198 C142.875005,22.5562545 143.455497,23 144.149187,23 C144.842877,23 145.422811,22.5562545 145.623558,21.9475198" id="Fill-49" fill="#767678"></path>
                <path d="M139,28.5516147 C139,27.6935712 138.326806,27 137.499461,27 C136.670499,27 136,27.6935712 136,28.5516147 C136,29.2568941 136.455983,29.8462066 137.080668,30.0346528 L137.080668,30.3697302 C136.459217,30.5576189 136.002695,31.1452588 136.002695,31.8494232 C136.002695,32.5547026 136.459217,33.1429 137.080668,33.3307887 L137.080668,33.6653086 C136.455983,33.8554274 136,34.4436248 136,35.1489042 C136,35.8547412 136.455983,36.4423811 137.080668,36.6313848 L137.080668,36.9647896 C136.455983,37.1537934 136,37.7431059 136,38.4483853 C136,39.3047562 136.670499,40 137.499461,40 C138.326806,40 139,39.3047562 139,38.4483853 C139,37.7431059 138.543478,37.155466 137.922027,36.9647896 L137.922027,36.6302698 C138.543478,36.4423811 139,35.8530686 139,35.1489042 C139,34.4447399 138.543478,33.8554274 137.922027,33.6669812 L137.922027,33.3307887 C138.543478,33.1429 139,32.5547026 139,31.8494232 C139,31.1452588 138.543478,30.5576189 137.922027,30.3697302 L137.922027,30.0335378 C138.543478,29.843419 139,29.2552215 139,28.5516147" id="Fill-51" fill="#767678"></path>
                <path d="M148,24.5232622 C148,25.2260536 148.468261,25.8106185 149.107535,25.9868637 L149.107535,26.2993979 C148.471498,26.4750958 148,27.0596606 148,27.7624521 C148,28.4641489 148.468261,29.0498084 149.107535,29.2255063 L149.107535,29.5363985 C148.468261,29.713191 148,30.2988506 148,31 C148,31.7033388 148.468261,32.2889984 149.107535,32.4646962 L149.107535,32.7755884 C148.468261,32.952381 148,33.5363985 148,34.2397373 C148,34.9425287 148.468261,35.5265463 149.107535,35.7022441 L149.107535,36.0136836 C148.468261,36.1899288 148,36.7750411 148,37.4789272 C148,38.3191024 148.671102,39 149.501349,39 C150.328898,39 151,38.3191024 151,37.4789272 C151,36.816092 150.583528,36.2588944 150.004675,36.0487137 L150.004675,35.667214 C150.583528,35.4570334 151,34.9014778 151,34.2397373 C151,33.5774494 150.583528,33.0213465 150.004675,32.8111658 L150.004675,32.4296661 C150.583528,32.2183908 151,31.6622879 151,31 C151,30.3399015 150.583528,29.7816092 150.004675,29.5714286 L150.004675,29.1915709 C150.583528,28.9808429 151,28.423098 151,27.7624521 C151,27.1007115 150.583528,26.5440613 150.004675,26.3333333 L150.004675,25.9529283 C150.583528,25.741653 151,25.1850027 151,24.5232622 C151,23.6825397 150.328898,23 149.501349,23 C148.671102,23 148,23.6825397 148,24.5232622" id="Fill-53" fill="#767678"></path>
                <path d="M130,24.5217763 C130,23.6809675 129.326806,23 128.499461,23 C127.673194,23 127,23.6809675 127,24.5217763 C127,25.2054809 127.447359,25.7769681 128.057492,25.9707482 L128.057492,26.311232 C127.447359,26.5033699 127,27.075952 127,27.7612987 C127,28.4450033 127.447359,29.0181327 128.057492,29.208081 L128.057492,29.5518492 C127.447359,29.7428923 127,30.3154744 127,30.9991789 C127,31.6834308 127.447359,32.2560129 128.057492,32.4476034 L128.057492,32.7897294 C127.447359,32.9807725 127,33.5533545 127,34.2392487 C127,34.9229532 127.447359,35.4949879 128.057492,35.6876732 L128.057492,36.028157 C127.447359,36.2202949 127,36.7923295 127,37.4765815 C127,38.3179377 127.670499,39 128.499461,39 C129.326806,39 130,38.3179377 130,37.4765815 C130,36.798351 129.558031,36.2306955 128.953827,36.033631 L128.953827,35.6816518 C129.558031,35.4845872 130,34.9169318 130,34.2392487 C130,33.559376 129.558031,32.9911731 128.953827,32.7941086 L128.953827,32.4432242 C129.558031,32.2472544 130,31.6774094 130,30.9991789 C130,30.3214958 129.558031,29.753293 128.953827,29.5562284 L128.953827,29.2037018 C129.558031,29.007732 130,28.4395292 130,27.7612987 C130,27.0819734 129.558031,26.5132232 128.953827,26.3172534 L128.953827,25.9652742 C129.558031,25.7682097 130,25.2000068 130,24.5217763" id="Fill-55" fill="#767678"></path>
                <path d="M118,24.5217763 C118,23.6809675 117.329501,23 116.502156,23 C115.673194,23 115.002695,23.6809675 115.002695,24.5217763 C115.002695,25.2027439 115.444664,25.7736837 116.051563,25.9680112 L116.051563,26.3145164 C115.444664,26.508844 115,27.078689 115,27.7612987 C115,28.4422662 115.444664,29.0137535 116.051563,29.2069862 L116.051563,29.5545862 C115.444664,29.7489138 115.002695,30.3182114 115.002695,30.9991789 C115.002695,31.6806938 115.444664,32.2499914 116.051563,32.4448664 L116.051563,32.7930138 C115.444664,32.9867939 115,33.556639 115,34.2392487 C115,34.921311 115.444664,35.4906086 116.051563,35.6843888 L116.051563,36.030894 C115.444664,36.2246741 115,36.7956139 115,37.4787711 C115,38.3190325 115.673194,39 116.499461,39 C117.329501,39 118,38.3190325 118,37.4787711 C118,36.7956139 117.558031,36.2246741 116.947898,36.030894 L116.947898,35.6843888 C117.558031,35.4906086 118,34.921311 118,34.2392487 C118,33.556639 117.558031,32.9867939 116.947898,32.7930138 L116.947898,32.4465086 C117.558031,32.2516337 118,31.6806938 118,30.9991789 C118,30.3182114 117.558031,29.7489138 116.947898,29.552944 L116.947898,29.2069862 C117.558031,29.0121113 118,28.4422662 118,27.7612987 C118,27.078689 117.558031,26.508844 116.947898,26.3145164 L116.947898,25.9680112 C117.558031,25.7736837 118,25.2043861 118,24.5217763" id="Fill-57" fill="#767678"></path>
                <path d="M104,37.4772852 C104,38.3191024 104.673194,39 105.499461,39 C106.329501,39 107,38.3191024 107,37.4772852 C107,36.7958402 106.558031,36.226601 105.947898,36.0311987 L105.947898,35.6847291 C106.558031,35.4915161 107,34.9206349 107,34.2397373 C107,33.5582923 106.558031,32.9874111 105.947898,32.7936508 L105.947898,32.4471812 C106.558031,32.2523262 107,31.6825397 107,31 C107,30.3191024 106.558031,29.7482211 105.947898,29.5550082 L105.947898,29.2079912 C106.558031,29.0147783 107,28.4433498 107,27.7624521 C107,27.0799124 106.558031,26.5101259 105.947898,26.316913 L105.947898,25.9709907 C106.558031,25.7750411 107,25.2041598 107,24.5232622 C107,23.6825397 106.329501,23 105.499461,23 C104.673194,23 104,23.6825397 104,24.5232622 C104,25.2058019 104.444664,25.7766831 105.051563,25.9709907 L105.051563,26.316913 C104.444664,26.5101259 104,27.0799124 104,27.7624521 C104,28.4449918 104.444664,29.0147783 105.051563,29.2079912 L105.051563,29.5550082 C104.444664,29.7482211 104,30.3191024 104,31 C104,31.6825397 104.444664,32.2523262 105.051563,32.4471812 L105.051563,32.7920088 C104.444664,32.9874111 104,33.5571976 104,34.2397373 C104,34.9217296 104.444664,35.4915161 105.051563,35.6863711 L105.051563,36.0311987 C104.444664,36.2249589 104,36.7958402 104,37.4772852" id="Fill-59" fill="#767678"></path>
                <path d="M74.3588573,36 C73.6134212,36 72.9910412,36.4523724 72.7887086,37.069734 L72.2142495,37.069734 C72.0107336,36.4523724 71.3895368,36 70.6464672,36 C69.7359703,36 69,36.6707405 69,37.4994608 C69,38.327642 69.7359703,39 70.6464672,39 C71.3960446,39 72.0231575,38.5373832 72.2201657,37.9113947 L72.7816092,37.9113947 C72.9786173,38.5373832 73.6069135,39 74.3588573,39 C75.2658046,39 76,38.327642 76,37.4994608 C76,36.6707405 75.2658046,36 74.3588573,36" id="Fill-61" fill="#767678"></path>
                <path d="M108.562856,20 C107.916192,20 107.378169,20.4445842 107.195551,21.0529908 L106.868081,21.0529908 C106.684428,20.4445842 106.146405,20.0016167 105.502328,20.0016167 C104.856182,20.0016167 104.317641,20.4445842 104.135023,21.0529908 L103.807553,21.0529908 C103.621831,20.4445842 103.08329,20 102.439731,20 C101.643559,20 101,20.6719957 101,21.5002694 C101,22.3280043 101.643559,22.9994611 102.439731,22.9994611 C103.08329,22.9994611 103.621831,22.5564936 103.804966,21.9480869 L104.135023,21.9480869 L104.135541,21.9480869 C104.318158,22.5564936 104.859286,23 105.502845,23 C106.143301,23 106.684428,22.5564936 106.867046,21.9480869 L106.868081,21.9480869 L107.195551,21.9480869 C107.378169,22.5564936 107.919296,22.9994611 108.562856,22.9994611 C109.356441,22.9994611 110,22.3280043 110,21.5002694 C110,20.6719957 109.356441,20 108.562856,20" id="Fill-63" fill="#767678"></path>
                <path d="M129,21.499192 C129,20.6733704 128.305722,20.0016161 127.450841,20.0016161 C126.754333,20.0016161 126.173816,20.4449632 125.976965,21.0531514 L125.623413,21.0531514 C125.426004,20.4449632 124.846045,20.0016161 124.151767,20.0016161 C123.455259,20.0016161 122.874743,20.4449632 122.677891,21.0531514 L122.324897,21.0531514 C122.127488,20.4449632 121.546972,20.0016161 120.850463,20.0016161 C120.156743,20.0016161 119.576227,20.4449632 119.379375,21.0531514 L119.023593,21.0531514 C118.825626,20.4449632 118.24511,20 117.55139,20 C116.69372,20 116,20.6733704 116,21.499192 C116,22.3287843 116.69372,23 117.55139,23 C118.24511,23 118.825626,22.5571916 119.023593,21.9473873 L119.379375,21.9473873 C119.576227,22.5555755 120.156743,22.9989226 120.850463,22.9989226 C121.544183,22.9989226 122.127488,22.5555755 122.324897,21.9473873 L122.677891,21.9473873 C122.874743,22.5555755 123.455259,22.9989226 124.151767,22.9989226 C124.846045,22.9989226 125.426004,22.5555755 125.623413,21.9473873 L125.976965,21.9473873 C126.173816,22.5555755 126.754333,22.9989226 127.450841,22.9989226 C128.305722,22.9989226 129,22.3287843 129,21.499192" id="Fill-65" fill="#767678"></path>
                <path d="M86.9801715,37.4878894 C86.9801715,36.8106465 86.5407288,36.245915 85.937299,36.0529606 L85.937299,35.7061861 C86.5407288,35.5137752 86.9801715,34.9485002 86.9801715,34.2723443 C86.9801715,33.5961885 86.5407288,33.0292829 85.937299,32.8363284 L85.937299,32.4911846 C86.5407288,32.2993172 86.9801715,31.7318681 86.9801715,31.0557122 C86.9801715,30.3795563 86.5407288,29.8126507 85.937299,29.6202398 L85.937299,29.2756395 C86.5407288,29.0826851 86.9801715,28.5168665 86.9801715,27.8390801 C86.9801715,27.1629242 86.5407288,26.5971057 85.937299,26.4052383 L85.937299,26.0600944 C86.4683816,25.8888813 86.8681672,25.4301389 86.9571275,24.8599721 C86.982851,24.7469171 87,24.6311445 87,24.5121106 C87,23.6761559 86.3333333,23 85.5117899,23 C84.766881,23 84.1548767,23.5544043 84.0428725,24.2756735 C84.017149,24.3876414 84,24.5028705 84,24.6240785 C84,25.3002344 84.4394427,25.8655094 85.0460879,26.0600944 L85.0460879,26.4052383 C84.4394427,26.5971057 84,27.1629242 84,27.8390801 C84,28.5168665 84.4394427,29.0826851 85.0460879,29.2745524 L85.0460879,29.6202398 C84.4394427,29.8137378 84,30.3795563 84,31.0557122 C84,31.7318681 84.4394427,32.2993172 85.0460879,32.4911846 L85.0460879,32.8363284 C84.4394427,33.0303699 84,33.5961885 84,34.2723443 C84,34.9485002 84.4394427,35.5137752 85.0460879,35.7061861 L85.0460879,36.0529606 C84.4394427,36.245915 84,36.8106465 84,37.4878894 C84,38.3222135 84.6666667,39 85.4914255,39 C86.3135048,39 86.9801715,38.3222135 86.9801715,37.4878894" id="Fill-67" fill="#767678"></path>
                <path d="M97,24.9968805 C97,24.1835404 96.395168,23.521638 95.6181616,23.4365606 L95.4537628,22.851228 C95.8386559,22.5636663 96.0913635,22.1031138 96.0913635,21.5779026 C96.0913635,20.7067098 95.4004443,20 94.5456818,20 C93.6936962,20 93,20.7067098 93,21.5779026 C93,22.4496625 93.6936962,23.1569395 94.5456818,23.1569395 C94.5756734,23.1569395 94.6051097,23.1495661 94.6351014,23.1478646 L94.7600666,23.5948046 C94.2568731,23.8551415 93.9086365,24.3820543 93.9086365,24.9968805 C93.9086365,25.7132324 94.3790614,26.3093415 95.0161066,26.5044524 L95.0161066,26.8481652 C94.3790614,27.0410073 93.9086365,27.638818 93.9086365,28.3534683 C93.9086365,29.0681187 94.3790614,29.6659293 95.0161066,29.8587715 L95.0161066,30.2024843 C94.3790614,30.3958936 93.9086365,30.9937043 93.9086365,31.7083546 C93.9086365,32.4247065 94.3790614,33.0225172 95.0161066,33.2153593 L95.0161066,33.6934944 C94.4834768,33.9101582 94.1019161,34.4416085 94.1019161,35.0655096 C94.1019161,35.6894107 94.4834768,36.2191594 95.0161066,36.4386592 L95.0161066,36.9145256 C94.3790614,37.1079349 93.9086365,37.7046112 93.9086365,38.4220974 C93.9086365,39.292723 94.6023327,40 95.4537628,40 C96.3063038,40 97,39.292723 97,38.4220974 C97,37.7233282 96.5534574,37.1396971 95.939739,36.9309739 L95.939739,36.4840338 C96.5506804,36.3087743 97,35.7449946 97,35.0655096 C97,34.387159 96.5506804,33.8211105 95.939739,33.6481198 L95.939739,33.2000454 C96.5534574,32.9924565 97,32.4065566 97,31.7083546 C97,31.0118541 96.5534574,30.4276558 95.939739,30.2177982 L95.939739,29.8434575 C96.5534574,29.6358686 97,29.0499688 97,28.3534683 C97,27.6569678 96.5534574,27.071068 95.939739,26.8634791 L95.939739,26.4891384 C96.5534574,26.2792808 97,25.6950825 97,24.9968805" id="Fill-69" fill="#767678"></path>
                <path d="M66,27.5697236 C66,26.9345021 65.5506804,26.403095 64.9308525,26.2165372 L64.9308525,25.8829945 C65.5506804,25.6954089 66,25.1640018 66,24.5287803 C66,23.7882024 65.392391,23.1874143 64.6120522,23.1134079 L64.4665371,22.5727501 C64.8447653,22.3106441 65.0913635,21.8989836 65.0913635,21.4307903 C65.0913635,20.6408748 64.4004443,20 63.5462372,20 C62.6936962,20 62,20.6408748 62,21.4307903 C62,22.2201919 62.6936962,22.8610667 63.5462372,22.8610667 C63.5817828,22.8610667 63.6139961,22.8528438 63.6467648,22.851302 L63.7567342,23.2588511 C63.2568731,23.4962883 62.9086365,23.9732184 62.9086365,24.5287803 C62.9086365,25.1927821 63.3996112,25.7462883 64.0638711,25.9076633 L64.0638711,26.1918684 C63.3996112,26.3511878 62.9086365,26.9052079 62.9086365,27.5697236 C62.9086365,28.3596391 63.6023327,29 64.4543182,29 C65.3090808,29 66,28.3596391 66,27.5697236" id="Fill-71" fill="#767678"></path>
                <path d="M77,24.5501415 C77,23.6953333 76.3282937,23 75.5,23 C74.6722462,23 74,23.6953333 74,24.5501415 C74,25.2555117 74.4578834,25.8437849 75.0804536,26.0339281 L75.0804536,26.368491 C74.4578834,26.5580767 74,27.1457922 74,27.8500472 C74,28.5543021 74.4578834,29.1436905 75.0804536,29.3316033 L75.0804536,29.6678391 C74.4578834,29.8579823 74,30.4456979 74,31.1499528 C74,31.8542078 74.4578834,32.4419233 75.0804536,32.631509 L75.0804536,32.9677447 C74.4578834,33.1567728 74,33.7444883 74,34.4487432 C74,35.3063395 74.6722462,36 75.5,36 C76.3282937,36 77,35.3063395 77,34.4487432 C77,33.7444883 76.5426566,33.1567728 75.9206263,32.9677447 L75.9206263,32.631509 C76.5426566,32.4419233 77,31.8542078 77,31.1499528 C77,30.4456979 76.5426566,29.8579823 75.9206263,29.6678391 L75.9206263,29.3316033 C76.5426566,29.1436905 77,28.5543021 77,27.8500472 C77,27.1457922 76.5426566,26.5580767 75.9206263,26.368491 L75.9206263,26.0339281 C76.5426566,25.8437849 77,25.2555117 77,24.5501415" id="Fill-73" fill="#767678"></path>
                <path d="M86,21.4989216 C86,20.672358 85.3183562,20 84.4745205,20 C83.7928767,20 83.2224658,20.4437455 83.0290411,21.0524802 L82.6821918,21.0524802 C82.4882192,20.4437455 81.9178082,20 81.2334247,20 C80.5512329,20 79.9813699,20.4437455 79.7873973,21.0524802 L79.4410959,21.0524802 C79.2465753,20.4437455 78.6767123,20 77.9917808,20 C77.310137,20 76.739726,20.4437455 76.5463014,21.0524802 L76.1994521,21.0524802 C76.0021918,20.4437455 75.4328767,20 74.7550685,20 C74.0810959,20 73.5139726,20.4437455 73.3172603,21.0524802 L72.9736986,21.0524802 C72.779726,20.4437455 72.2060274,20 71.5243836,20 C70.6816438,20 70,20.672358 70,21.4989216 C70,22.3292595 70.6816438,23 71.5243836,23 C72.2060274,23 72.7764384,22.5562545 72.9736986,21.9475198 L73.3172603,21.9475198 C73.5139726,22.5562545 74.0810959,23 74.7550685,23 C75.4328767,23 76.0021918,22.5562545 76.1994521,21.9475198 L76.5463014,21.9475198 C76.739726,22.5562545 77.310137,23 77.9917808,23 C78.6734247,23 79.2465753,22.5562545 79.4410959,21.9475198 L79.7873973,21.9475198 C79.9813699,22.5562545 80.5512329,23 81.2334247,23 C81.9150685,23 82.4882192,22.5562545 82.6821918,21.9475198 L83.0290411,21.9475198 C83.2224658,22.5562545 83.7928767,23 84.4745205,23 C85.3183562,23 86,22.3292595 86,21.4989216" id="Fill-75" fill="#767678"></path>
                <path d="M45,37.4772852 C45,36.7952928 44.5576335,36.226601 43.9501888,36.0322934 L43.9501888,35.683087 C44.5576335,35.4893268 45,34.9200876 45,34.2391899 C45,33.5582923 44.5576335,32.9874111 43.9501888,32.7931034 L43.9501888,32.4455391 C44.5576335,32.2523262 45,31.6808976 45,31 C45,30.3191024 44.5576335,29.7482211 43.9501888,29.5544609 L43.9501888,29.2074439 C44.5576335,29.0131363 45,28.4433498 45,27.7608101 C45,27.0799124 44.5576335,26.5101259 43.9501888,26.316913 L43.9501888,25.9693487 C44.5576335,25.773399 45,25.2041598 45,24.5232622 C45,23.6825397 44.3288977,23 43.5013487,23 C42.6711023,23 42,23.6825397 42,24.5232622 C42,25.2041598 42.4450638,25.773399 43.053048,25.9693487 L43.053048,26.316913 C42.4450638,26.5101259 42,27.0799124 42,27.7608101 C42,28.4433498 42.4450638,29.0131363 43.053048,29.2063492 L43.053048,29.5544609 C42.4450638,29.7493158 42,30.3191024 42,31 C42,31.6808976 42.4450638,32.2523262 43.053048,32.4455391 L43.053048,32.7931034 C42.4450638,32.9885057 42,33.5582923 42,34.2391899 C42,34.9200876 42.4450638,35.4893268 43.053048,35.683087 L43.053048,36.0322934 C42.4450638,36.226601 42,36.7952928 42,37.4772852 C42,38.3174603 42.6711023,39 43.5013487,39 C44.3288977,39 45,38.3174603 45,37.4772852" id="Fill-77" fill="#767678"></path>
                <path d="M50,21.499192 C50,20.6733704 49.3031135,20.0016161 48.4478943,20.0016161 C47.7515653,20.0016161 47.1711982,20.4449632 46.9743975,21.0531514 L46.6214941,21.0531514 C46.4235784,20.4449632 45.8437688,20.0016161 45.1502273,20.0016161 C44.4561283,20.0016161 43.8729737,20.4449632 43.6761729,21.0531514 L43.3232696,21.0531514 C43.1259113,20.4449632 42.5455442,20.0016161 41.8520027,20.0016161 C41.1556737,20.0016161 40.5753066,20.4449632 40.3785059,21.0531514 L40.022815,21.0531514 C39.8248992,20.4449632 39.2456471,20 38.5509907,20 C37.6935415,20 37,20.6733704 37,21.499192 C37,22.3287843 37.6935415,23 38.5509907,23 C39.2456471,23 39.8248992,22.5571916 40.022815,21.9473873 L40.3785059,21.9473873 C40.5753066,22.5555755 41.1556737,22.9989226 41.8520027,22.9989226 C42.5455442,22.9989226 43.1259113,22.5555755 43.3232696,21.9473873 L43.6761729,21.9473873 C43.8729737,22.5555755 44.4561283,22.9989226 45.1502273,22.9989226 C45.8437688,22.9989226 46.4235784,22.5555755 46.6214941,21.9473873 L46.9743975,21.9473873 C47.1711982,22.5555755 47.7515653,22.9989226 48.4478943,22.9989226 C49.3031135,22.9989226 50,22.3287843 50,21.499192" id="Fill-79" fill="#767678"></path>
                <path d="M25.8963538,39.0051873 C26.2027677,38.2049219 25.8065906,37.3064371 25.0136823,36.9983851 C24.7399599,36.8923527 24.4579261,36.8761689 24.1908529,36.9236044 L23.8761276,36.2399746 C24.0628572,36.0781357 24.220774,35.875 24.315524,35.626103 C24.6213838,34.8258376 24.2235444,33.9279108 23.429528,33.6193008 C23.1679957,33.5177329 22.8953815,33.4998749 22.6338492,33.5417297 L22.3124747,32.8430322 C22.4903389,32.6839837 22.6393901,32.4869867 22.7313697,32.2475767 C23.0377836,31.4461952 22.6393901,30.5488265 21.8459277,30.2407745 C21.593815,30.141997 21.3289582,30.1224647 21.0762914,30.1598551 L20.749376,29.447764 C20.9189287,29.2903896 21.0585604,29.0984152 21.1472154,28.8684924 C21.4536293,28.0687851 21.0557899,27.1703002 20.2623275,26.8616902 C20.0185262,26.7662611 19.7630889,26.7461707 19.5187335,26.7757482 L19.1862772,26.0502635 C19.3469644,25.8979118 19.4777306,25.7109599 19.5641692,25.4899662 C19.870029,24.6902588 19.4716356,23.7912159 18.6781732,23.483164 C18.4432374,23.3910832 18.2005443,23.3687606 17.9622839,23.3944316 L17.6237326,22.6549953 C17.7750002,22.5043177 17.8969008,22.3229466 17.9800149,22.112556 C18.2864288,21.3111745 17.8913599,20.4126897 17.0945729,20.1040797 C16.3011105,19.7960277 15.4095735,20.1950443 15.1037137,20.9941935 C14.7972998,21.795017 15.1929228,22.6923857 15.9863852,23.0009957 C16.2778386,23.114841 16.5776034,23.1299087 16.8601912,23.0696377 L17.1627265,23.7248062 C16.9582658,23.8927838 16.788159,24.108755 16.687314,24.3727198 C16.3814541,25.1741013 16.7765231,26.07147 17.5705396,26.379522 C17.8525733,26.4894608 18.1434726,26.5056447 18.4166409,26.4520704 L18.7258252,27.1223066 C18.5302301,27.2863778 18.3695429,27.4962103 18.2714683,27.7518041 C17.9656085,28.5526275 18.3606774,29.4511124 19.1535857,29.7586063 C19.4239835,29.8651967 19.7065714,29.8813806 19.9741987,29.8339451 L20.288924,30.519249 C20.1016403,30.6805299 19.9476022,30.8842236 19.8517439,31.1314465 C19.5464382,31.9300377 19.9442776,32.8296386 20.73774,33.1382487 C20.9992723,33.2398165 21.2729947,33.2576746 21.5312024,33.2158197 L21.8514687,33.9161914 C21.6769291,34.0741239 21.5284319,34.272237 21.4358983,34.5099727 C21.1294844,35.309122 21.5284319,36.208723 22.3213402,36.5167749 C22.5745611,36.6155524 22.8349852,36.6350847 23.0882061,36.5988105 L23.4151215,37.3114597 C23.2488934,37.4666018 23.1087076,37.6585762 23.0200526,37.8873829 C22.7136387,38.6876482 23.1114781,39.5872492 23.9054946,39.8958592 C24.6984029,40.2039112 25.590494,39.8054527 25.8963538,39.0051873" id="Fill-81" fill="#767678"></path>
                <path d="M32.9821032,20.1022292 C32.1603773,19.8000287 31.2402958,20.190371 30.9246432,20.9759829 C30.6758953,21.5924281 30.8817556,22.2663571 31.3781079,22.6742183 L31.1207824,23.2528885 C30.4220008,23.1817181 29.7346559,23.5561839 29.4710403,24.2131415 C29.2194332,24.8345139 29.4310119,25.5128227 29.9336543,25.9201364 L29.679188,26.492237 C28.9769754,26.414497 28.2804812,26.7900578 28.0134346,27.4508477 C27.7629711,28.0776947 27.9768372,28.7603832 28.4897726,29.166602 L28.2375936,29.7304906 C27.5325219,29.6483709 26.8274501,30.0244791 26.5604035,30.6891013 C26.306509,31.3192331 26.5266653,32.0073962 27.045319,32.4125201 L26.7965711,32.9703866 C26.0852091,32.8811499 25.3767064,33.2599954 25.1068006,33.9289973 C24.791148,34.7129667 25.1988659,35.5954797 26.0177327,35.8976803 C26.8394586,36.2004282 27.7595401,35.8084435 28.0757645,35.0239266 C28.3267998,34.4014593 28.1152211,33.7231505 27.6120068,33.3169317 L27.867045,32.7459261 C28.5692575,32.8225711 29.2651799,32.4459154 29.5287956,31.785673 C29.7809745,31.158826 29.568824,30.4761375 29.0570322,30.0710136 L29.3080675,29.5065775 C30.0131393,29.5886972 30.7153519,29.2114941 30.9858295,28.5479669 C31.2374366,27.9167401 31.0189959,27.2296719 30.5014858,26.8240006 L30.7490901,26.2666816 C31.4615957,26.3559183 32.1695266,25.9787151 32.4388606,25.3091658 C32.6938987,24.6752017 32.4697396,23.9821114 31.9453675,23.57863 L32.1912563,23.0278805 C32.9054774,23.1247817 33.6231295,22.7431989 33.8930353,22.0709122 C34.2092597,21.2858479 33.8003982,20.4044297 32.9821032,20.1022292" id="Fill-83" fill="#767678"></path>
                <path d="M3.09563476,20.3237571 C2.81327348,20.9599947 3.17733061,21.672439 3.90901906,21.9170094 C4.63968631,22.1620229 5.46430379,21.8461194 5.74615447,21.2116541 C5.84214709,20.990566 5.85848626,20.7601735 5.81202175,20.5439591 C5.91312036,20.522249 6.01217658,20.5058557 6.11327519,20.4894624 C6.20875722,20.8820157 6.52379684,21.2284905 6.98946318,21.3822331 C7.72013043,21.6272466 8.54219492,21.3113431 8.8240456,20.6759917 C8.85672394,20.6042156 8.87867969,20.5319964 8.89246587,20.458448 C8.98794789,20.472626 9.08445112,20.486804 9.17176355,20.5036404 C9.10895987,21.0428473 9.45923082,21.5727499 10.0673543,21.7761156 C10.8005746,22.020686 11.622639,21.7043395 11.9044897,21.068988 C12.186851,20.4345227 11.8217727,19.7203061 11.0911054,19.4757357 C10.4666428,19.2674963 9.78244003,19.4673175 9.4183829,19.9227856 C9.23712023,19.8860114 9.04258199,19.8518956 8.83221518,19.8235396 C8.69792763,19.4956735 8.41301335,19.2178733 8.0106613,19.0827393 C7.27948344,18.8381689 6.45537656,19.1540724 6.17301528,19.7894238 C6.1648457,19.81202 6.15973971,19.8341731 6.15157012,19.8567693 C5.94018211,19.8904421 5.72726231,19.9320899 5.50515172,19.9830421 C5.35707799,19.826198 5.16560334,19.6954946 4.93021718,19.6175156 C4.19903933,19.3725021 3.37748544,19.6897348 3.09563476,20.3237571" id="Fill-85" fill="#767678"></path>
                <g id="Group-89" transform="translate(0.000000, 35.000000)">
                    <mask id="mask-2" fill="white">
                        <use xlink:href="#path-1"></use>
                    </mask>
                    <g id="Clip-88"></g>
                    <path d="M5.65675,3.62922222 C5.66725,3.597 5.67275,3.56255556 5.68075,3.52866667 C5.87125,3.51811111 6.05325,3.50144444 6.22275,3.47922222 C6.33475,3.93644444 6.63275,4.33088889 7.05925,4.51477778 C7.77775,4.82144444 8.58225,4.42477778 8.85875,3.62922222 C9.13475,2.83255556 8.77775,1.937 8.05925,1.63033333 C7.34375,1.32311111 6.53875,1.72088889 6.26275,2.517 C6.24125,2.57922222 6.23075,2.642 6.21725,2.70422222 C6.06125,2.72644444 5.89525,2.74422222 5.71825,2.75644444 C5.62475,2.262 5.31625,1.827 4.86025,1.63033333 C4.17925,1.33977778 3.42325,1.687 3.11225,2.40644444 C2.99675,2.36588889 2.88175,2.32755556 2.76575,2.27977778 C2.86025,1.58144444 2.51175,0.878111111 1.89175,0.614222222 C1.17575,0.307555556 0.36875,0.703666667 0.09325,1.49977778 C-0.18325,2.29644444 0.17625,3.192 0.89175,3.49866667 C1.48175,3.75144444 2.12775,3.51922222 2.49575,2.98588889 C2.65625,3.05255556 2.81725,3.11422222 2.97275,3.16644444 C3.00475,3.75144444 3.33425,4.29088889 3.85725,4.51477778 C4.57575,4.82144444 5.38025,4.42477778 5.65675,3.62922222" id="Fill-87" fill="#767678" mask="url(#mask-2)"></path>
                </g>
                <path d="M12.0415043,30.791487 C11.7504403,30.6812453 11.4454139,30.668586 11.1602571,30.7350475 C11.0711121,30.5820805 10.9733747,30.4349158 10.8632859,30.2935532 C10.865971,30.2819488 10.8751003,30.2708719 10.8804705,30.2592675 C11.1774417,29.5028722 10.7945476,28.6525869 10.0228522,28.3614222 C9.52449909,28.1736421 8.98640666,28.2680596 8.58847603,28.5639716 C8.40159363,28.4764112 8.2023598,28.3951804 8.00044089,28.3160596 C8.09603016,27.6540819 7.72495045,26.9910492 7.06226975,26.7404999 C6.48067883,26.519489 5.84377502,26.681423 5.44101122,27.0997085 C5.35132915,27.043269 5.27346149,26.9884119 5.19022363,26.9330273 C5.43241893,26.1972034 5.05435798,25.397028 4.31166154,25.1153578 C3.98032119,24.9898194 3.63233328,24.9956216 3.31817752,25.0942589 C3.25480935,24.9855996 3.20057049,24.8806326 3.15384989,24.7804129 C3.47606092,24.6221712 3.74725521,24.3536878 3.88849105,23.9955341 C4.18546222,23.2386114 3.80149407,22.3899085 3.03033566,22.0982163 C2.26132532,21.8075791 1.39726272,22.1836668 1.10029155,22.9400621 C0.803857398,23.6959298 1.18675151,24.5451602 1.95629887,24.8368524 C2.10827508,24.8948744 2.26723252,24.9186106 2.41920872,24.9270502 C2.49116919,25.0974237 2.58675846,25.2783467 2.69899531,25.4645444 C2.56366667,25.6022147 2.45411492,25.7673135 2.37946936,25.9572035 C2.08249819,26.7125438 2.46539231,27.5628292 3.23493966,27.8539939 C3.79021668,28.0644553 4.3922143,27.9230927 4.79605213,27.547005 C4.88788228,27.6076643 4.99152683,27.6672687 5.08872716,27.727928 C4.89056737,28.4437079 5.26486919,29.2059053 5.98501086,29.479136 C6.62406274,29.7212458 7.32379771,29.4975975 7.71635816,28.9838395 C7.85383487,29.0371142 7.9891635,29.0946087 8.11912195,29.1510482 C8.11052966,29.1695097 8.09925227,29.1848064 8.09334507,29.203268 C7.7963739,29.9596632 8.17926801,30.8083661 8.94827835,31.1000583 C9.45253862,31.2910033 9.99385316,31.191311 10.3944689,30.8901243 C10.4347453,30.9518386 10.4717995,31.0124979 10.5093908,31.0742122 C10.339693,31.2240143 10.1979202,31.4096845 10.1119972,31.6333328 C9.81502604,32.389728 10.1979202,33.238431 10.9674675,33.5301231 C10.9846521,33.5369803 11.0018367,33.5385627 11.0222434,33.5454198 C11.0018367,33.7289802 10.9733747,33.9062109 10.9390055,34.0713097 C10.3311007,34.0612877 9.75219489,34.4146941 9.52127698,35.0049356 C9.22484282,35.7618584 9.60773694,36.6100338 10.3767473,36.9011985 C11.1457576,37.1928907 12.0125053,36.8168029 12.3094765,36.0614626 C12.5774487,35.3752212 12.2836996,34.6188259 11.6559251,34.2654195 C11.6988866,34.0586504 11.7359408,33.8355296 11.7590326,33.6018594 C12.2606078,33.5158814 12.703648,33.1872661 12.9001967,32.6893323 C13.1966309,31.932937 12.8099776,31.0826517 12.0415043,30.791487" id="Fill-90" fill="#767678"></path>
                <g id="Group-94" transform="translate(145.000000, 52.000000)">
                    <mask id="mask-4" fill="white">
                        <use xlink:href="#path-3"></use>
                    </mask>
                    <g id="Clip-93"></g>
                    <path d="M5.22883636,5.43566154 L4.83501818,5.43566154 L4.83501818,1.61150769 C4.83501818,0.903969231 4.2912,0.331046154 3.59356364,0.264276923 L3.59356364,0.2492 L3.45501818,0.2492 L0.881563636,0.2492 L0.354654545,0.2492 L0.354654545,0.7672 L0.354654545,1.09350769 L0.354654545,1.61150769 L0.881563636,1.61150769 L3.13974545,1.61150769 C3.31210909,1.61150769 3.45501818,1.7542 3.45501818,1.9222 L3.45501818,5.43566154 L0.881563636,5.43566154 L0.354654545,5.43566154 L0.354654545,5.9542 L0.354654545,6.2762 L0.354654545,6.79796923 L0.881563636,6.79796923 L5.22883636,6.79796923 L5.75465455,6.79796923 L5.75465455,6.2762 L5.75465455,5.9542 L5.75465455,5.43566154 L5.22883636,5.43566154 Z" id="Fill-92" fill="#767678" mask="url(#mask-4)"></path>
                </g>
                <path d="M143.491909,52.1573734 C143.375526,52.06438 143.048991,52.0176082 142.900022,52.0088041 L142.900022,52 L141,52 L141,53.3794938 L142.314121,53.3794938 C142.329417,53.4438738 142.320771,53.4955979 142.320771,53.5495231 L142.320771,53.5874908 L142.320771,55 L142.961871,55 L143.360231,55 L144,55 L144,54.9884446 L144,53.5874908 L144,53.5495231 C144,52.5843727 143.797162,52.3972854 143.491909,52.1573734" id="Fill-95" fill="#767678"></path>
                <path d="M74.4922463,52.1573734 C74.3759415,52.06438 74.0476296,52.0176082 73.9020824,52.0088041 L73.9020824,52 L72,52 L72,53.3794938 L73.3132477,53.3794938 C73.3291981,53.4438738 73.3225521,53.4955979 73.3225521,53.5495231 L73.3225521,53.5874908 L73.3225521,55 L73.9625609,55 L74.3606557,55 L75,55 L75,54.9884446 L75,53.5874908 L75,53.5495231 C75,52.5843727 74.7972973,52.3972854 74.4922463,52.1573734" id="Fill-97" fill="#767678"></path>
                <path d="M3.49124363,52.1573734 C3.37486145,52.06438 3.04699623,52.0176082 2.90135225,52.0088041 L2.90135225,52 L1,52 L1,53.3794938 L2.31412104,53.3794938 C2.32875194,53.4438738 2.32143649,53.4955979 2.32143649,53.5495231 L2.32143649,53.5874908 L2.32143649,55 L2.96120594,55 L3.35956551,55 L4,55 L4,54.9884446 L4,53.5874908 L4,53.5495231 C4,52.5843727 3.79649745,52.3972854 3.49124363,52.1573734" id="Fill-99" fill="#767678"></path>
                <path d="M137.570756,52 L136.407024,52 L133.596554,52 L133.053667,52 L133.053667,52.5485535 L133.053667,52.894108 L133.053667,53.4426615 L133.596554,53.4426615 L134.006685,53.4426615 L134.006685,56.9016278 C134.006685,57.2312161 133.892006,57.3692098 133.699934,57.4792627 C133.699934,57.4792627 133.671123,57.5015013 133.659825,57.5049226 C133.52029,57.5448382 133,57.5311529 133,57.5311529 L133,58.9698228 C133,58.9698228 133.941719,59.0542157 134.278411,58.9407415 C134.930327,58.7166443 135.35571,57.9565384 135.435929,57.1884495 L135.435929,53.4426615 L136.407024,53.4426615 L137.244233,53.4426615 C137.433481,53.4426615 137.570756,53.5937703 137.570756,53.7711094 L137.570756,56.5788822 L137.570756,58.3824942 L137.570756,58.9698228 L139,58.9698228 L139,58.3824942 L139,56.5788822 L139,53.4426615 C139,52.6460615 138.360512,52 137.570756,52" id="Fill-101" fill="#767678"></path>
                <path d="M123.636167,55 L125,55 L125,53.5192154 C125,52.6803443 124.389297,52 123.636167,52 L120.51899,52 C120.496871,52 120.475831,52.0096077 120.458567,52.013811 L120.458028,52.013811 L120.000539,52.013811 L120.000539,52.5776621 L120.000539,52.9415532 C120.000539,53.0904724 120.055028,53.22498 120.139189,53.3282626 C120.055028,53.22498 120,53.0904724 120,52.9409528 L120,53.5192154 L120.51953,53.5192154 C120.447777,53.5192154 120.379262,53.5030024 120.316681,53.4735789 C120.379262,53.5030024 120.447238,53.5192154 120.51953,53.5192154 L121.547259,53.5192154 L121.547259,52.013811 L121.547259,53.5192154 L123.324342,53.5192154 C123.493202,53.5192154 123.636167,53.6783427 123.636167,53.8650921 L123.636167,55 Z" id="Fill-103" fill="#767678"></path>
                <path d="M121.172468,56 L120.885285,56 C120.862342,56 120.845728,56.0056881 120.821994,56.0056881 L120,56.0056881 L120,59 L120.885285,59 L121.172468,59 L122,59 L122,56.0056881 L121.234968,56.0056881 C121.210443,56.0056881 121.193829,56 121.172468,56" id="Fill-105" fill="#767678"></path>
                <path d="M125.69249,58.8805304 C125.873518,58.7811584 125.998419,58.6326588 125.998419,58.4584787 L125.998419,55 L124,55 L124,58.4584787 L124,59 L124.758893,59 L125.240316,59 C125.241107,59 125.241897,58.9994417 125.242688,58.9994417 L126,58.9994417 L126,58.4579204 C126,58.6326588 125.874308,58.7811584 125.69249,58.8805304" id="Fill-107" fill="#767678"></path>
                <path d="M115.638268,56.2026439 C115.638268,57.0193776 115.068865,57.5458576 114.513429,57.5458576 C113.946175,57.5458576 113.376235,57.0193776 113.376235,56.2026439 L113.376235,54.017407 C113.376235,53.9875195 113.38483,53.9645291 113.391276,53.9380902 L113.391276,53.4771328 L115.632359,53.4771328 L115.632359,55.9417029 L115.638268,55.9417029 L115.638268,56.2026439 Z M116.589063,52.0229904 C116.576708,52.0189671 116.570799,52.0160933 116.562205,52.0132195 L116.506876,52.0132195 C116.495595,52.0097709 116.48324,52.0068971 116.470885,52.0068971 L115.248818,52.0068971 C115.230017,52.0040233 115.212291,52 115.194027,52 L114.516652,52 L114.516652,52.0068971 L114.508058,52.0068971 L114.508058,52.0097709 L114.48281,52.0097709 L114.48281,52.0068971 L114.48281,52.0040233 L112.516223,52.0040233 C112.488827,52.0040233 112.461431,52.0132195 112.436721,52.0189671 L112.418457,52.0189671 C112.212183,52.0655226 112.05318,52.2339273 112.017727,52.4580836 L112.017727,52.4615321 C112.012355,52.4937187 112,52.524181 112,52.5557928 L112,53.8800394 L112.008595,53.8800394 L112.008595,55.9417029 L112.017727,55.9417029 L112.017727,56.2026439 C112.017727,57.7544954 113.129136,59 114.513429,59 C115.88483,59 116.997314,57.7544954 116.997314,56.2026439 L116.997314,53.8719928 L117,53.8719928 L117,52.5494704 C117,52.5465966 116.997314,52.5425733 116.997314,52.5396995 C116.994091,52.279908 116.817899,52.0781673 116.589063,52.0229904 Z" id="Fill-109" fill="#767678"></path>
                <path d="M108.634844,52 L105.519417,52 C105.231931,52 105,52.2486638 105,52.5537374 L105,54.8699942 C105,55.6746978 105.610032,56.3251377 106.361381,56.3251377 L106.461704,56.3251377 L106.461704,56.3314695 L107.489752,56.3314695 L107.489752,54.8360332 L106.545307,54.8360332 C106.437433,54.7853795 106.361381,54.6783159 106.361381,54.5372913 L106.361381,53.4562947 L108.324703,53.4562947 C108.492988,53.4562947 108.634844,53.6088315 108.634844,53.7878464 L108.634844,56.602582 C108.634844,57.1281145 108.244337,57.5442809 107.752967,57.5442809 L105.519417,57.5442809 C105.497843,57.5442809 105.475728,57.5534907 105.458468,57.5569443 L105,57.5569443 L105,58.0985939 L105,58.442809 L105,59 L105.519417,59 L106.02589,59 L107.725998,59 C108.985976,59 110,57.9190034 110,56.5732259 L110,53.4562947 C110,52.6521668 109.389428,52 108.634844,52" id="Fill-111" fill="#767678"></path>
                <path d="M99.6745085,52 L97.5345704,52 C97.5097195,52 97.4909432,52.0092098 97.4666446,52.013239 L97,52.013239 L97,52.5537374 L97,52.9025574 L97,53.4562947 L97.5251822,53.4562947 L97.5345704,53.4562947 L97.7841838,53.4562947 L98.047051,53.4562947 L98.0531257,53.4562947 L98.3099183,53.4562947 L98.5749945,53.4562947 L98.8373095,53.4562947 L99.0990722,53.4562947 L99.3591783,53.4562947 L99.6993594,53.4562947 C100.20687,53.4562947 100.603932,53.8678563 100.603932,54.3979936 L100.603932,58.442809 C100.603932,58.4566236 100.610007,58.466409 100.610007,58.4756188 L100.610007,58.8791218 L100.610007,59 L102,59 L102,58.442809 L102,56.927802 L102,54.4273497 C102,53.0942357 100.962889,52 99.6745085,52" id="Fill-113" fill="#767678"></path>
                <path d="M89.4682343,52.751147 L86.3639305,52.751147 L86.3639305,51 L85.7776939,51 L85.5824614,51 L85,51 L85,51.5763489 L85,53.4414863 L85,53.6467851 C85,54.0381906 85.2308273,54.2225525 85.5824614,54.2225525 L88.4537806,54.2225525 C88.4537806,54.2225525 88.1037644,55.4072375 87.5293927,57.2124717 L87.5239996,57.2078191 L86.7662604,59.5079806 L88.0519901,60 L88.2159422,59.4980937 C88.2251106,59.4783199 88.2407507,59.465525 88.2466832,59.4451696 C89.2082839,56.5035218 89.9595513,54.0114378 89.9595513,54.0114378 C90,53.9125687 90,53.8433603 90,53.7322779 L90,53.3798384 C90,53.002391 89.831194,52.751147 89.4682343,52.751147" id="Fill-115" fill="#767678"></path>
                <path d="M81.5681947,52 L80.4063384,52 L77.5908319,52 L77.0520656,52 L77.0520656,52.5485535 L77.0520656,52.894108 L77.0520656,53.4426615 L77.5908319,53.4426615 L78.0011319,53.4426615 L78.0011319,56.9016278 C78.0011319,57.2312161 77.8822864,57.3692098 77.6932654,57.4792627 C77.6932654,57.4792627 77.663837,57.5015013 77.6547821,57.5049226 C77.5138653,57.5448382 77,57.5311529 77,57.5311529 L77,58.9698228 C77,58.9698228 77.9360498,59.0542157 78.2693831,58.9407415 C78.9235993,58.7166443 79.3497453,57.9565384 79.4295416,57.1884495 L79.4295416,53.4426615 L80.4063384,53.4426615 L81.2416525,53.4426615 C81.434069,53.4426615 81.5681947,53.5937703 81.5681947,53.7711094 L81.5681947,56.5788822 L81.5681947,58.3824942 L81.5681947,58.9698228 L83,58.9698228 L83,58.3824942 L83,56.5788822 L83,53.4426615 C83,52.6460615 82.3599321,52 81.5681947,52" id="Fill-117" fill="#767678"></path>
                <path d="M67.6257194,56.417 L67.4848921,56.2360769 C67.8857914,55.8855385 68.1728417,55.3928462 68.2758993,54.8091538 L68.3163669,54.5932308 L68.328777,54.5959231 L68.5726619,53.1797692 L68.6276978,52.8782308 L68.6276978,52.8653077 L68.7134892,52.3688462 L67.3694245,52.1367692 L67.2776978,52.6671538 L67.2776978,52.6698462 L66.8929856,54.7316154 C66.8654676,54.9254615 66.7586331,55.094 66.627518,55.2243077 L64.9451439,53.1033077 L64.0780576,52 L63.4910072,52.4544615 L63.4483813,52.4878462 L63,52.8394615 L64.2701439,54.4564615 C63.8730216,54.8064615 63.5913669,55.2948462 63.5007194,55.8580769 L63.2163669,57.6010769 L63.0420863,58.6440769 L64.3861511,58.8734615 L64.7643885,56.6415385 L64.7584532,56.6415385 L64.8809353,55.9501538 C64.9052158,55.7541538 65.0028777,55.5866923 65.1188849,55.4553077 L67.5739209,58.5546923 C67.5766187,58.559 67.5803957,58.5622308 67.5830935,58.5622308 L67.9251799,59 L69,58.1616154 L67.6284173,56.4126923 L67.6257194,56.417 Z" id="Fill-119" fill="#767678"></path>
                <path d="M50.6753175,52 L48.5317504,52 C48.5096632,52 48.4881281,52.0092098 48.4660409,52.013239 L48,52.013239 L48,52.5537374 L48,52.9025574 L48,53.4562947 L48.5317504,53.4562947 L49.0541137,53.4562947 L50.7001657,53.4562947 C51.2065157,53.4562947 51.6029818,53.8678563 51.6029818,54.3979936 L51.6029818,58.442809 C51.6029818,58.4566236 51.6090558,58.466409 51.6090558,58.4756188 L51.6090558,58.8791218 L51.6090558,59 L53,59 L53,58.442809 L53,56.927802 L53,54.4273497 C53,53.0942357 51.9630039,52 50.6753175,52" id="Fill-121" fill="#767678"></path>
                <path d="M45.9814692,53.2216761 L45.9814692,53.2152616 C45.9027134,52.4898367 45.5771013,52.3108131 45.3150232,52.0892203 C45.3070814,52.0857214 45.3031105,52.0857214 45.2998015,52.0828057 C45.1608206,52.0408197 44.9960291,52.0174942 44.9033752,52.0093302 L44.9033752,52 L44.8914626,52 L44.553276,52 L44.542687,52 L43.010589,52 L43,52 L43,53.4625125 L43.010589,53.4625125 L44.3064196,53.4625125 C44.3249504,53.5313229 44.3143614,53.5873042 44.3143614,53.6444518 L44.3143614,53.6835222 L44.3143614,55.5676441 L44.3143614,56.1292069 L44.3143614,58.4349384 C44.3143614,58.4489337 44.3216413,58.4594302 44.3216413,58.4687604 L44.3216413,58.8775408 L44.3216413,59 L44.3328921,59 L45.9887492,59 L46,59 L46,56.9006998 L45.9966909,56.9006998 L45.9966909,56.9123625 L45.9887492,56.9123625 L45.9887492,56.9006998 L45.9887492,56.1292069 L46,56.1292069 L46,55.5676441 L46,53.6835222 L46,53.6444518 C46,53.577974 45.9966909,53.5243252 45.9920582,53.4660113 C45.9920582,53.3791236 45.9887492,53.2928191 45.9814692,53.2216761" id="Fill-123" fill="#767678"></path>
                <path d="M29.6417089,58 L29.6417089,56.7002667 L29.6417089,56.576 L30.9967634,56.576 L30.9967634,56.5658667 L31,56.5658667 L31,54.2490667 C31,53.0138667 29.9864063,52 28.7257525,52 L27.9419571,52 L27.9419571,53.3429333 L27.8319128,53.3429333 L26.1343187,53.3429333 L26.0086309,53.3429333 L26.0086309,52.464 C26.0059338,52.4837333 26,52.4949333 26,52.5130667 L26,56.576 L27.3555939,56.576 L27.3555939,58 C27.3582911,57.9888 27.3609882,57.9824 27.3609882,57.9696 L27.3609882,53.3493333 L28.753803,53.3493333 C29.245226,53.3493333 29.6357752,53.7306667 29.6357752,54.2218667 L29.6357752,57.9696 C29.6357752,57.9824 29.6417089,57.9888 29.6417089,58" id="Fill-125" fill="#767678"></path>
                <path d="M30.999206,58.4611111 L30.999206,57 L30.9952362,57 L30.9952362,57.0105556 L29.000794,57.0105556 L29.000794,57.1388889 L29.000794,58.4933333 C29.0182612,58.7094444 29.2183406,58.8905556 29.4938468,58.9633333 C29.2175466,58.8905556 29.0166733,58.7094444 29,58.4933333 L29,58.8833333 L29,59 L29.7558555,59 L29.7566495,59 L30.231441,59 C30.3163954,59 30.394204,58.9838889 30.4704248,58.9661111 C30.394204,58.9838889 30.3163954,59 30.232235,59 L31,59 L31,58.4611111 C31,58.6027778 30.9174276,58.73 30.7888051,58.8266667 C30.9166336,58.73 30.999206,58.6027778 30.999206,58.4611111" id="Fill-127" fill="#767678"></path>
                <path d="M26.028651,58.557107 C26.0891365,58.7782742 26.3326701,58.9475007 26.6502189,58.9832449 C26.3318743,58.9475007 26.0891365,58.7788327 26.028651,58.557107 M27.9992041,58.4906451 L27.9992041,57 L26,57 L26,57.1290142 L26,58.4582519 C26,58.4582519 26,58.4582519 26,58.4582519 L26,58.8827143 L26,59 L26.7648229,59 C26.7656188,59 26.7656188,59 26.7656188,59 L27.2431357,59 C27.2439316,59 27.2439316,59 27.2447274,59 L28,59 L28,58.4906451 C27.9936331,58.5610165 27.9697573,58.6280369 27.9299642,58.6889137 C27.9697573,58.6280369 27.9936331,58.5610165 27.9992041,58.4906451" id="Fill-129" fill="#767678"></path>
                <path d="M26.0011161,54 L26.1300223,54 L27.8867187,54 L28,54 L28,52 L26.5279018,52 C26.5279018,52 26.5279018,52 26.5273438,52 L26,52 L26,52.6910246 C26.0122768,52.5011914 26.0719866,52.3383638 26.1584821,52.2168388 C26.0719866,52.3383638 26.0128348,52.5011914 26.0011161,52.6910246 L26.0011161,54 Z" id="Fill-131" fill="#767678"></path>
                <path d="M20,52.2440589 L20,53.2122358 L20,53.4493874 L20.1940198,53.4493874 L20.3759449,53.4493874 C20.3875357,53.4493874 20.3961028,53.4562947 20.4076936,53.4562947 L20.9181925,53.4562947 C20.8582227,53.6761779 20.7609609,53.9242661 20.7609609,54.1884713 L20.7609609,54.8757503 L20.7609609,59 L21.3057282,59 L21.4876533,59 L22.0329246,59 L22.0329246,58.4364773 C22.0329246,58.4335992 22.0364522,58.4335992 22.0364522,58.4301455 L22.0364522,54.1884713 C22.0364522,53.8678563 22.144297,53.5921388 22.2183773,53.4562947 L22.6069209,53.4562947 C22.6180077,53.4562947 22.6265748,53.4493874 22.6376617,53.4493874 L22.8261381,53.4493874 L23,53.4493874 L23,53.2179919 L23,52.2342735 L23,52 L20,52 L20,52.2440589 Z" id="Fill-133" fill="#767678"></path>
                <path d="M16.9814447,53.2216761 L16.9814447,53.2152616 C16.9025845,52.4898367 16.5818423,52.3108131 16.3141153,52.0892203 C16.3101392,52.0857214 16.3021869,52.0857214 16.2988734,52.0828057 C16.1603711,52.0408197 15.9993373,52.0174942 15.9019218,52.0093302 L15.9019218,52 L15.8899934,52 L15.5526839,52 L15.5420808,52 L14.0119284,52 L14,52 L14,53.4625125 L14.0119284,53.4625125 L15.3088138,53.4625125 C15.323393,53.5313229 15.3121272,53.5873042 15.3121272,53.6444518 L15.3121272,53.6835222 L15.3121272,55.5676441 L15.3121272,56.1292069 L15.3121272,58.4349384 C15.3121272,58.4489337 15.3200795,58.4594302 15.3200795,58.4687604 L15.3200795,58.8775408 L15.3200795,59 L15.3306826,59 L16.989397,59 L17,59 L17,56.9123625 L16.989397,56.9123625 L16.989397,56.9006998 L16.989397,56.1292069 L17,56.1292069 L17,55.5676441 L17,53.6835222 L17,53.6444518 C17,53.577974 16.9966865,53.5243252 16.9966865,53.4660113 C16.9927104,53.3791236 16.989397,53.2928191 16.9814447,53.2216761" id="Fill-135" fill="#767678"></path>
                <path d="M10.5704603,52 L9.407512,52 L6.60096018,52 L6.05422197,52 L6.05422197,52.5485535 L6.05422197,52.894108 L6.05422197,53.4426615 L6.60096018,53.4426615 L7.00706015,53.4426615 L7.00706015,56.9016278 C7.00706015,57.2312161 6.89240328,57.3692098 6.69980232,57.4792627 C6.69980232,57.4792627 6.67495058,57.5015013 6.6619599,57.5049226 C6.52132166,57.5448382 6,57.5311529 6,57.5311529 L6,58.9698228 C6,58.9698228 6.94606043,59.0542157 7.27873482,58.9407415 C7.9305281,58.7166443 8.35526687,57.9565384 8.43603502,57.1884495 L8.43603502,53.4426615 L9.407512,53.4426615 L10.2445637,53.4426615 C10.4337758,53.4426615 10.5704603,53.5937703 10.5704603,53.7711094 L10.5704603,56.5788822 L10.5704603,58.3824942 L10.5704603,58.9698228 L12,58.9698228 L12,58.3824942 L12,56.5788822 L12,53.4426615 C12,52.6460615 11.3600678,52 10.5704603,52" id="Fill-137" fill="#767678"></path>
                <path d="M40.940561,53.0246424 C40.8230187,52.4751625 40.5438557,52.2937581 40.309439,52.0889467 C40.304764,52.0860208 40.2980855,52.0860208 40.2940784,52.0830949 C40.1691897,52.0169701 39.9915405,52.0169701 39.893366,52.0093628 L39.893366,52 L39.5534283,52 L39.5420748,52 L38,52 L38,53.4676203 L39.3069902,53.4676203 L39.3190116,53.4676203 C39.3337044,53.536671 39.3223508,53.5940182 39.3223508,53.6507802 L39.3223508,53.689987 L39.3223508,55.5795189 L39.3223508,56.1442133 L39.3223508,61 L41,61 L41,59.5247724 L40.9519145,53.0246424 L40.940561,53.0246424 Z" id="Fill-139" fill="#767678"></path>
                <path d="M60.5795655,52.0063307 L60.1118387,52.0063307 L60.1118387,52 L58.5709386,52 L58.5709386,53.4307325 L59.688286,53.4307325 L59.7059557,53.4600839 L59.7381769,55.4945326 C59.7381769,55.4945326 59.844195,57.5433692 58.8650868,57.5433692 L57.3153518,57.5433692 L57.3153518,52.0063307 L56,52.0063307 L56,58.4417496 C56,58.7611609 56.2239892,59 56.5009874,59 L58.8417004,59 C60.0525933,59 61,57.9013401 61,56.5730494 C61,56.5730494 60.9974015,52.5507687 60.9974015,52.5467401 C60.9937636,52.2578311 60.8383744,52.0264737 60.5795655,52.0063307" id="Fill-141" fill="#767678"></path>
                <path d="M54,25.499467 C54,26.3288913 54.6700426,27 55.499467,27 C56.3283582,27 57,26.3288913 57,25.499467 C57,24.6711087 56.3283582,24 55.499467,24 C54.6700426,24 54,24.6711087 54,25.499467" id="Fill-143" fill="#767678"></path>
                <path d="M57,34.4992003 C57,33.671228 56.3283582,33 55.499467,33 C54.6700426,33 54,33.671228 54,34.4992003 C54,35.328772 54.6700426,36 55.499467,36 C56.3283582,36 57,35.328772 57,34.4992003" id="Fill-145" fill="#767678"></path>
            </g>
        </g>
    </g>
</svg>