<?xml version="1.0" encoding="UTF-8"?>
<svg width="345px" height="321px" viewBox="0 0 345 321" version="1.1" xmlns="http://www.w3.org/2000/svg" xmlns:xlink="http://www.w3.org/1999/xlink">
    <!-- Generator: Sketch 50.2 (55047) - http://www.bohemiancoding.com/sketch -->
    <title>Group 2</title>
    <desc>Created with Sketch.</desc>
    <defs>
        <polygon id="path-1" points="0.180827184 0.476054795 37.5425359 0.476054795 37.5425359 18.5159671 0.180827184 18.5159671"></polygon>
        <polygon id="path-3" points="0 0.185227397 29.8346369 0.185227397 29.8346369 15.095474 0 15.095474"></polygon>
    </defs>
    <g id="Page-1" stroke="none" stroke-width="1" fill="none" fill-rule="evenodd">
        <g id="Desktop-HD-Copy-16" transform="translate(-549.000000, -226.000000)">
            <g id="Group" transform="translate(339.000000, 17.000000)">
                <g id="Group-2" transform="translate(210.000000, 206.000000)">
                    <path d="M121.807,14 C121.723,14 121.653001,13.9720003 121.597,13.916 C121.541,13.8599997 121.513,13.7900004 121.513,13.706 L121.513,12.712 C121.513,12.6279996 121.541,12.5580003 121.597,12.502 C121.653001,12.4459997 121.723,12.418 121.807,12.418 L123.389,12.418 L123.389,6.188 L122.213,6.188 C122.101,6.188 122.005334,6.14833373 121.926,6.069 C121.846667,5.98966627 121.807,5.89400056 121.807,5.782 L121.807,5.11 L124.075,3.934 L124.621,3.934 C124.733001,3.934 124.828667,3.97366627 124.908,4.053 C124.987334,4.13233373 125.027,4.22799944 125.027,4.34 L125.027,12.418 L126.609,12.418 C126.693001,12.418 126.763,12.4459997 126.819,12.502 C126.875001,12.5580003 126.903,12.6279996 126.903,12.712 L126.903,13.706 C126.903,13.7900004 126.875001,13.8599997 126.819,13.916 C126.763,13.9720003 126.693001,14 126.609,14 L121.807,14 Z M132.493,14.182 C131.867664,14.182 131.29367,14.0303349 130.771,13.727 C130.248331,13.4236651 129.835335,13.0106693 129.532,12.488 C129.228665,11.9653307 129.077,11.3913365 129.077,10.766 C129.077,9.96332932 129.109667,9.26100301 129.175,8.659 C129.240334,8.05699699 129.370999,7.50400252 129.567,7 C129.912335,6.07599538 130.488663,5.34333604 131.296,4.802 C132.103338,4.26066396 133.006329,3.99 134.005,3.99 L134.341,3.99 C134.425001,3.99 134.495,4.01799972 134.551,4.074 C134.607001,4.13000028 134.635,4.19999958 134.635,4.284 L134.635,5.278 C134.635,5.36200042 134.607001,5.43199972 134.551,5.488 C134.495,5.54400028 134.425001,5.572 134.341,5.572 L134.005,5.572 C133.23033,5.572 132.551337,5.77966459 131.968,6.195 C131.384664,6.61033541 131.013668,7.20066284 130.855,7.966 C131.107002,7.76066564 131.393999,7.60433387 131.716,7.497 C132.038002,7.38966613 132.343666,7.336 132.633,7.336 C133.23967,7.336 133.792664,7.48766515 134.292,7.791 C134.791336,8.09433485 135.187999,8.50966403 135.482,9.037 C135.776002,9.56433597 135.923,10.1406635 135.923,10.766 C135.923,11.3820031 135.769002,11.9513307 135.461,12.474 C135.152999,12.9966693 134.735336,13.4119985 134.208,13.72 C133.680664,14.0280015 133.109003,14.182 132.493,14.182 Z M132.493,12.586 C132.810335,12.586 133.104332,12.5043341 133.375,12.341 C133.645668,12.1776658 133.860333,11.9560014 134.019,11.676 C134.177668,11.3959986 134.257,11.0926683 134.257,10.766 C134.257,10.4393317 134.175334,10.1360014 134.012,9.856 C133.848666,9.5759986 133.631668,9.35200084 133.361,9.184 C133.090332,9.01599916 132.801002,8.932 132.493,8.932 C131.998331,8.932 131.585335,9.10699825 131.254,9.457 C130.922665,9.80700175 130.757,10.2433307 130.757,10.766 C130.757,11.2886693 130.922665,11.7226649 131.254,12.068 C131.585335,12.4133351 131.998331,12.586 132.493,12.586 Z M139.259,10.5 C139.175,10.5 139.105001,10.4720003 139.049,10.416 C138.993,10.3599997 138.965,10.2900004 138.965,10.206 L138.965,9.17 C138.965,9.08599958 138.993,9.01600028 139.049,8.96 C139.105001,8.90399972 139.175,8.876 139.259,8.876 L143.081,8.876 C143.165001,8.876 143.235,8.90399972 143.291,8.96 C143.347001,9.01600028 143.375,9.08599958 143.375,9.17 L143.375,10.206 C143.375,10.2900004 143.347001,10.3599997 143.291,10.416 C143.235,10.4720003 143.165001,10.5 143.081,10.5 L139.259,10.5 Z M145.689,14 C145.605,14 145.535,13.9720003 145.479,13.916 C145.423,13.8599997 145.395,13.7900004 145.395,13.706 L145.395,12.712 C145.395,12.6279996 145.423,12.5580003 145.479,12.502 C145.535,12.4459997 145.605,12.418 145.689,12.418 L147.271,12.418 L147.271,6.188 L146.095,6.188 C145.983,6.188 145.887334,6.14833373 145.808,6.069 C145.728666,5.98966627 145.689,5.89400056 145.689,5.782 L145.689,5.11 L147.957,3.934 L148.503,3.934 C148.615001,3.934 148.710666,3.97366627 148.79,4.053 C148.869334,4.13233373 148.909,4.22799944 148.909,4.34 L148.909,12.418 L150.491,12.418 C150.575001,12.418 150.645,12.4459997 150.701,12.502 C150.757,12.5580003 150.785,12.6279996 150.785,12.712 L150.785,13.706 C150.785,13.7900004 150.757,13.8599997 150.701,13.916 C150.645,13.9720003 150.575001,14 150.491,14 L145.689,14 Z M156.459,14.182 C155.786997,14.182 155.173336,14.0420014 154.618,13.762 C154.062664,13.4819986 153.626335,13.0970024 153.309,12.607 C152.991665,12.1169976 152.833,11.5780029 152.833,10.99 C152.833,10.5139976 152.940332,10.0590022 153.155,9.625 C153.369668,9.19099783 153.672998,8.8106683 154.065,8.484 C153.822332,8.2506655 153.635667,7.9706683 153.505,7.644 C153.374333,7.3173317 153.309,6.97666844 153.309,6.622 C153.309,6.09933072 153.448999,5.62100217 153.729,5.187 C154.009002,4.75299783 154.389331,4.41233457 154.87,4.165 C155.350669,3.91766543 155.880331,3.794 156.459,3.794 C157.03767,3.794 157.567331,3.91766543 158.048,4.165 C158.528669,4.41233457 158.911332,4.75066452 159.196,5.18 C159.480668,5.60933548 159.623,6.0806641 159.623,6.594 C159.623,7.30333688 159.338336,8.0079965 158.769,8.708 C159.198336,8.97866802 159.527332,9.31699797 159.756,9.723 C159.984668,10.129002 160.099,10.5699976 160.099,11.046 C160.099,11.6246696 159.938002,12.1519976 159.616,12.628 C159.293999,13.1040024 158.853003,13.4819986 158.293,13.762 C157.732997,14.0420014 157.12167,14.182 156.459,14.182 Z M157.355,8.134 C157.532334,7.92866564 157.674666,7.69533464 157.782,7.434 C157.889334,7.17266536 157.943,6.92066788 157.943,6.678 C157.943,6.27666466 157.803002,5.95000126 157.523,5.698 C157.242999,5.44599874 156.893002,5.32 156.473,5.32 C156.052998,5.32 155.703002,5.44133212 155.423,5.684 C155.142999,5.92666788 155.003,6.2346648 155.003,6.608 C155.003,7.03733548 155.198998,7.35699895 155.591,7.567 C155.983002,7.77700105 156.570996,7.96599916 157.355,8.134 Z M156.459,12.67 C157.00967,12.67 157.471665,12.5066683 157.845,12.18 C158.218335,11.8533317 158.405,11.4520024 158.405,10.976 C158.405,10.6493317 158.304668,10.3903343 158.104,10.199 C157.903332,10.0076657 157.642002,9.85833387 157.32,9.751 C156.997999,9.64366613 156.51967,9.5200007 155.885,9.38 L155.381,9.268 C155.119665,9.44533422 154.912001,9.68566515 154.758,9.989 C154.603999,10.2923349 154.527,10.6119983 154.527,10.948 C154.527,11.4426691 154.708998,11.8533317 155.073,12.18 C155.437002,12.5066683 155.898997,12.67 156.459,12.67 Z M163.939,14.336 C163.612332,14.336 163.334668,14.2240011 163.106,14 C162.877332,13.7759989 162.763,13.5006683 162.763,13.174 C162.763,12.8473317 162.877332,12.5720011 163.106,12.348 C163.334668,12.1239989 163.612332,12.012 163.939,12.012 C164.256335,12.012 164.526999,12.1263322 164.751,12.355 C164.975001,12.5836678 165.087,12.8566651 165.087,13.174 C165.087,13.4913349 164.975001,13.7643322 164.751,13.993 C164.526999,14.2216678 164.256335,14.336 163.939,14.336 Z M168.563,14 C168.479,14 168.409,13.9720003 168.353,13.916 C168.297,13.8599997 168.269,13.7900004 168.269,13.706 L168.269,12.712 C168.269,12.6279996 168.297,12.5580003 168.353,12.502 C168.409,12.4459997 168.479,12.418 168.563,12.418 L170.145,12.418 L170.145,6.188 L168.969,6.188 C168.856999,6.188 168.761334,6.14833373 168.682,6.069 C168.602666,5.98966627 168.563,5.89400056 168.563,5.782 L168.563,5.11 L170.831,3.934 L171.377,3.934 C171.489001,3.934 171.584666,3.97366627 171.664,4.053 C171.743334,4.13233373 171.783,4.22799944 171.783,4.34 L171.783,12.418 L173.365,12.418 C173.449,12.418 173.519,12.4459997 173.575,12.502 C173.631,12.5580003 173.659,12.6279996 173.659,12.712 L173.659,13.706 C173.659,13.7900004 173.631,13.8599997 173.575,13.916 C173.519,13.9720003 173.449,14 173.365,14 L168.563,14 Z M179.627,14.182 C178.460327,14.182 177.578336,13.7433377 176.981,12.866 C176.383664,11.9886623 176.085,10.6960085 176.085,8.988 C176.085,7.28932484 176.385997,6.00133772 176.988,5.124 C177.590003,4.24666228 178.469661,3.808 179.627,3.808 C180.784339,3.808 181.661664,4.24666228 182.259,5.124 C182.856336,6.00133772 183.155,7.28932484 183.155,8.988 C183.155,10.7053419 182.85867,12.000329 182.266,12.873 C181.67333,13.745671 180.793672,14.182 179.627,14.182 Z M179.627,12.586 C180.056335,12.586 180.401665,12.4646679 180.663,12.222 C180.924335,11.9793321 181.115666,11.5966693 181.237,11.074 C181.358334,10.5513307 181.419,9.85600434 181.419,8.988 C181.419,8.11999566 181.358334,7.42700259 181.237,6.909 C181.115666,6.39099741 180.924335,6.01300119 180.663,5.775 C180.401665,5.53699881 180.051669,5.418 179.613,5.418 C179.183664,5.418 178.838335,5.53933212 178.577,5.782 C178.315665,6.02466788 178.124334,6.40966403 178.003,6.937 C177.881666,7.46433597 177.821,8.16666228 177.821,9.044 C177.821,10.3040063 177.960999,11.2093306 178.241,11.76 C178.521001,12.3106694 178.982997,12.586 179.627,12.586 Z M186.785,14.336 C186.458332,14.336 186.180668,14.2240011 185.952,14 C185.723332,13.7759989 185.609,13.5006683 185.609,13.174 C185.609,12.8473317 185.723332,12.5720011 185.952,12.348 C186.180668,12.1239989 186.458332,12.012 186.785,12.012 C187.102335,12.012 187.372999,12.1263322 187.597,12.355 C187.821001,12.5836678 187.933,12.8566651 187.933,13.174 C187.933,13.4913349 187.821001,13.7643322 187.597,13.993 C187.372999,14.2216678 187.102335,14.336 186.785,14.336 Z M191.773,14 C191.604999,14 191.462667,13.9416673 191.346,13.825 C191.229333,13.7083327 191.171,13.5706675 191.171,13.412 L191.171,12.292 C191.171,11.554663 191.268999,10.9736688 191.465,10.549 C191.661001,10.1243312 191.964331,9.75800154 192.375,9.45 C192.785669,9.14199846 193.476328,8.70333618 194.447,8.134 C194.783002,7.93799902 195.027999,7.72100119 195.182,7.483 C195.336001,7.24499881 195.413,6.98133478 195.413,6.692 C195.413,6.29999804 195.284668,5.9873345 195.028,5.754 C194.771332,5.5206655 194.414335,5.404 193.957,5.404 C193.396997,5.404 192.81367,5.58133156 192.207,5.936 C192.151,5.96400014 192.090334,5.978 192.025,5.978 C191.912999,5.978 191.829,5.92666718 191.773,5.824 L191.311,4.984 C191.283,4.9373331 191.269,4.8906669 191.269,4.844 C191.269,4.74133282 191.310999,4.66200028 191.395,4.606 C191.768335,4.35399874 192.190664,4.1580007 192.662,4.018 C193.133336,3.8779993 193.616331,3.808 194.111,3.808 C195.044338,3.808 195.774664,4.05999748 196.302,4.564 C196.829336,5.06800252 197.093,5.75866228 197.093,6.636 C197.093,7.28000322 196.934335,7.82366445 196.617,8.267 C196.299665,8.71033555 195.777004,9.165331 195.049,9.632 C194.824999,9.7720007 194.638334,9.88399958 194.489,9.968 C194.087665,10.2106679 193.779668,10.4136659 193.565,10.577 C193.350332,10.7403341 193.173001,10.9363322 193.033,11.165 C192.892999,11.3936678 192.823,11.6619985 192.823,11.97 L192.823,12.376 L196.463,12.376 C196.547,12.376 196.617,12.4039997 196.673,12.46 C196.729,12.5160003 196.757,12.5859996 196.757,12.67 L196.757,13.706 C196.757,13.7900004 196.729,13.8599997 196.673,13.916 C196.617,13.9720003 196.547,14 196.463,14 L191.773,14 Z M203.313,14.182 C202.146327,14.182 201.264336,13.7433377 200.667,12.866 C200.069663,11.9886623 199.771,10.6960085 199.771,8.988 C199.771,7.28932484 200.071997,6.00133772 200.674,5.124 C201.276003,4.24666228 202.155661,3.808 203.313,3.808 C204.470339,3.808 205.347663,4.24666228 205.945,5.124 C206.542336,6.00133772 206.841,7.28932484 206.841,8.988 C206.841,10.7053419 206.544669,12.000329 205.952,12.873 C205.35933,13.745671 204.479672,14.182 203.313,14.182 Z M203.313,12.586 C203.742335,12.586 204.087665,12.4646679 204.349,12.222 C204.610334,11.9793321 204.801666,11.5966693 204.923,11.074 C205.044334,10.5513307 205.105,9.85600434 205.105,8.988 C205.105,8.11999566 205.044334,7.42700259 204.923,6.909 C204.801666,6.39099741 204.610334,6.01300119 204.349,5.775 C204.087665,5.53699881 203.737669,5.418 203.299,5.418 C202.869664,5.418 202.524334,5.53933212 202.263,5.782 C202.001665,6.02466788 201.810334,6.40966403 201.689,6.937 C201.567666,7.46433597 201.507,8.16666228 201.507,9.044 C201.507,10.3040063 201.646998,11.2093306 201.927,11.76 C202.207001,12.3106694 202.668997,12.586 203.313,12.586 Z M209.757,14 C209.672999,14 209.603,13.9720003 209.547,13.916 C209.490999,13.8599997 209.463,13.7900004 209.463,13.706 L209.463,12.712 C209.463,12.6279996 209.490999,12.5580003 209.547,12.502 C209.603,12.4459997 209.672999,12.418 209.757,12.418 L211.339,12.418 L211.339,6.188 L210.163,6.188 C210.050999,6.188 209.955333,6.14833373 209.876,6.069 C209.796666,5.98966627 209.757,5.89400056 209.757,5.782 L209.757,5.11 L212.025,3.934 L212.571,3.934 C212.683,3.934 212.778666,3.97366627 212.858,4.053 C212.937333,4.13233373 212.977,4.22799944 212.977,4.34 L212.977,12.418 L214.559,12.418 C214.643,12.418 214.712999,12.4459997 214.769,12.502 C214.825,12.5580003 214.853,12.6279996 214.853,12.712 L214.853,13.706 C214.853,13.7900004 214.825,13.8599997 214.769,13.916 C214.712999,13.9720003 214.643,14 214.559,14 L209.757,14 Z M220.527,14.182 C219.854996,14.182 219.241336,14.0420014 218.686,13.762 C218.130664,13.4819986 217.694335,13.0970024 217.377,12.607 C217.059665,12.1169976 216.901,11.5780029 216.901,10.99 C216.901,10.5139976 217.008332,10.0590022 217.223,9.625 C217.437667,9.19099783 217.740998,8.8106683 218.133,8.484 C217.890332,8.2506655 217.703667,7.9706683 217.573,7.644 C217.442332,7.3173317 217.377,6.97666844 217.377,6.622 C217.377,6.09933072 217.516998,5.62100217 217.797,5.187 C218.077001,4.75299783 218.457331,4.41233457 218.938,4.165 C219.418669,3.91766543 219.94833,3.794 220.527,3.794 C221.105669,3.794 221.635331,3.91766543 222.116,4.165 C222.596669,4.41233457 222.979332,4.75066452 223.264,5.18 C223.548668,5.60933548 223.691,6.0806641 223.691,6.594 C223.691,7.30333688 223.406336,8.0079965 222.837,8.708 C223.266335,8.97866802 223.595332,9.31699797 223.824,9.723 C224.052668,10.129002 224.167,10.5699976 224.167,11.046 C224.167,11.6246696 224.006001,12.1519976 223.684,12.628 C223.361998,13.1040024 222.921003,13.4819986 222.361,13.762 C221.800997,14.0420014 221.18967,14.182 220.527,14.182 Z M221.423,8.134 C221.600334,7.92866564 221.742666,7.69533464 221.85,7.434 C221.957334,7.17266536 222.011,6.92066788 222.011,6.678 C222.011,6.27666466 221.871001,5.95000126 221.591,5.698 C221.310998,5.44599874 220.961002,5.32 220.541,5.32 C220.120998,5.32 219.771001,5.44133212 219.491,5.684 C219.210998,5.92666788 219.071,6.2346648 219.071,6.608 C219.071,7.03733548 219.266998,7.35699895 219.659,7.567 C220.051002,7.77700105 220.638996,7.96599916 221.423,8.134 Z M220.527,12.67 C221.077669,12.67 221.539665,12.5066683 221.913,12.18 C222.286335,11.8533317 222.473,11.4520024 222.473,10.976 C222.473,10.6493317 222.372667,10.3903343 222.172,10.199 C221.971332,10.0076657 221.710001,9.85833387 221.388,9.751 C221.065998,9.64366613 220.58767,9.5200007 219.953,9.38 L219.449,9.268 C219.187665,9.44533422 218.98,9.68566515 218.826,9.989 C218.671999,10.2923349 218.595,10.6119983 218.595,10.948 C218.595,11.4426691 218.776998,11.8533317 219.141,12.18 C219.505002,12.5066683 219.966997,12.67 220.527,12.67 Z M256.750999,34 C256.666999,34 256.597,33.9720003 256.540999,33.916 C256.484999,33.8599997 256.456999,33.7900004 256.456999,33.706 L256.456999,32.656 C256.456999,32.5719996 256.484999,32.5020003 256.540999,32.446 C256.597,32.3899997 256.666999,32.362 256.750999,32.362 L260.264999,32.362 L260.264999,27.42 L257.072999,27.42 C256.988999,27.42 256.919,27.3920003 256.862999,27.336 C256.806999,27.2799997 256.778999,27.2100004 256.778999,27.126 L256.778999,26.076 C256.778999,25.9919996 256.806999,25.9220003 256.862999,25.866 C256.919,25.8099997 256.988999,25.782 257.072999,25.782 L261.342999,25.796 C261.511,25.796 261.653332,25.8543327 261.769999,25.971 C261.886667,26.0876673 261.944999,26.2299992 261.944999,26.398 L261.944999,32.362 L262.924999,32.362 C263.009,32.362 263.078999,32.3899997 263.134999,32.446 C263.191,32.5020003 263.218999,32.5719996 263.218999,32.656 L263.218999,33.706 C263.218999,33.7900004 263.191,33.8599997 263.134999,33.916 C263.078999,33.9720003 263.009,34 262.924999,34 L256.750999,34 Z M252.421,30.794 C252.336999,30.794 252.267,30.7660003 252.211,30.71 C252.154999,30.6539997 252.127,30.5840004 252.127,30.5 L252.127,27.448 L251.063,27.448 C250.978999,27.448 250.909,27.4200003 250.853,27.364 C250.796999,27.3079997 250.769,27.2380004 250.769,27.154 L250.769,26.09 C250.769,26.0059996 250.796999,25.9360003 250.853,25.88 C250.909,25.8239997 250.978999,25.796 251.063,25.796 L253.205,25.796 C253.373,25.796 253.515332,25.8543327 253.632,25.971 C253.748667,26.0876673 253.807,26.2299992 253.807,26.398 L253.807,30.5 C253.807,30.5840004 253.779,30.6539997 253.723,30.71 C253.666999,30.7660003 253.597,30.794 253.513,30.794 L252.421,30.794 Z M240.531,34 C240.446999,34 240.377,33.9720003 240.321,33.916 C240.264999,33.8599997 240.237,33.7900004 240.237,33.706 L240.237,32.684 C240.237,32.5999996 240.264999,32.5300003 240.321,32.474 C240.377,32.4179997 240.446999,32.39 240.531,32.39 L241.567,32.39 L241.567,27.448 L240.531,27.448 C240.446999,27.448 240.377,27.4200003 240.321,27.364 C240.264999,27.3079997 240.237,27.2380004 240.237,27.154 L240.237,26.09 C240.237,26.0059996 240.264999,25.9360003 240.321,25.88 C240.377,25.8239997 240.446999,25.796 240.531,25.796 L247.251,25.796 C247.419,25.796 247.561332,25.8543327 247.678,25.971 C247.794667,26.0876673 247.853,26.2299992 247.853,26.398 L247.853,33.706 C247.853,33.7900004 247.825,33.8599997 247.769,33.916 C247.712999,33.9720003 247.643,34 247.559,34 L246.467,34 C246.382999,34 246.313,33.9720003 246.257,33.916 C246.200999,33.8599997 246.173,33.7900004 246.173,33.706 L246.173,27.448 L243.247,27.448 L243.247,33.398 C243.247,33.5660008 243.188667,33.7083327 243.072,33.825 C242.955332,33.9416672 242.813,34 242.645,34 L240.531,34 Z M231.199,34 C231.114999,34 231.045,33.9720003 230.989,33.916 C230.932999,33.8599997 230.905,33.7900004 230.905,33.706 L230.905,27.448 L226.383,27.434 C226.298999,27.434 226.229,27.4060003 226.173,27.35 C226.116999,27.2939997 226.089,27.2240004 226.089,27.14 L226.089,26.09 C226.089,26.0059996 226.116999,25.9360003 226.173,25.88 C226.229,25.8239997 226.298999,25.796 226.383,25.796 L231.983,25.796 C232.151,25.796 232.293332,25.8543327 232.41,25.971 C232.526667,26.0876673 232.585,26.2299992 232.585,26.398 L232.585,33.706 C232.585,33.7900004 232.557,33.8599997 232.501,33.916 C232.444999,33.9720003 232.375,34 232.291,34 L231.199,34 Z M226.383,34 C226.298999,34 226.229,33.9720003 226.173,33.916 C226.116999,33.8599997 226.089,33.7900004 226.089,33.706 L226.089,29.604 C226.089,29.5199996 226.116999,29.4500003 226.173,29.394 C226.229,29.3379997 226.298999,29.31 226.383,29.31 L227.475,29.31 C227.559,29.31 227.628999,29.3379997 227.685,29.394 C227.741,29.4500003 227.769,29.5199996 227.769,29.604 L227.769,33.706 C227.769,33.7900004 227.741,33.8599997 227.685,33.916 C227.628999,33.9720003 227.559,34 227.475,34 L226.383,34 Z M219.701,34.182 C219.12233,34.182 218.585669,34.0396681 218.091,33.755 C217.596331,33.4703319 217.206668,33.0806691 216.922,32.586 C216.637332,32.0913309 216.495,31.5546696 216.495,30.976 L216.495,27.448 L215.739,27.448 C215.654999,27.448 215.585,27.4200003 215.529,27.364 C215.472999,27.3079997 215.445,27.2380004 215.445,27.154 L215.445,26.09 C215.445,26.0059996 215.472999,25.9360003 215.529,25.88 C215.585,25.8239997 215.654999,25.796 215.739,25.796 L222.291,25.796 C222.459001,25.796 222.601332,25.8543327 222.718,25.971 C222.834667,26.0876673 222.893,26.2299992 222.893,26.398 L222.893,30.976 C222.893,31.5546696 222.750668,32.0913309 222.466,32.586 C222.181332,33.0806691 221.794002,33.4703319 221.304,33.755 C220.813997,34.0396681 220.279669,34.182 219.701,34.182 Z M219.701,32.558 C220.111668,32.558 220.466332,32.4086682 220.765,32.11 C221.063668,31.8113318 221.213,31.4520021 221.213,31.032 L221.213,27.448 L218.175,27.448 L218.175,31.032 C218.175,31.4520021 218.324332,31.8113318 218.623,32.11 C218.921668,32.4086682 219.280998,32.558 219.701,32.558 Z M206.691,34.098 C206.606999,34.098 206.537,34.0700003 206.481,34.014 C206.424999,33.9579997 206.397,33.8880004 206.397,33.804 L206.397,32.74 C206.397,32.6559996 206.424999,32.5860003 206.481,32.53 C206.537,32.4739997 206.606999,32.446 206.691,32.446 L210.625,32.446 C210.727667,32.446 210.816333,32.408667 210.891,32.334 C210.965667,32.259333 211.003,32.1706672 211.003,32.068 L211.003,27.448 L208.217,27.448 L208.217,29.17 L208.987,29.17 C209.071,29.17 209.140999,29.1979997 209.197,29.254 C209.253,29.3100003 209.281,29.3799996 209.281,29.464 L209.281,30.5 C209.281,30.5840004 209.253,30.6539997 209.197,30.71 C209.140999,30.7660003 209.071,30.794 208.987,30.794 L207.139,30.794 C206.970999,30.794 206.828667,30.7356672 206.712,30.619 C206.595333,30.5023328 206.537,30.3600008 206.537,30.192 L206.537,27.448 L205.781,27.448 C205.696999,27.448 205.627,27.4200003 205.571,27.364 C205.514999,27.3079997 205.487,27.2380004 205.487,27.154 L205.487,26.09 C205.487,26.0059996 205.514999,25.9360003 205.571,25.88 C205.627,25.8239997 205.696999,25.796 205.781,25.796 L212.081,25.796 C212.249001,25.796 212.391333,25.8543327 212.508,25.971 C212.624667,26.0876673 212.683,26.2299992 212.683,26.398 L212.683,32.054 C212.683,32.4273352 212.589667,32.7703318 212.403,33.083 C212.216332,33.3956682 211.966668,33.6429991 211.654,33.825 C211.341332,34.0070009 210.998335,34.098 210.625,34.098 L206.691,34.098 Z M201.241,34 C201.156999,34 201.087,33.9720003 201.031,33.916 C200.975,33.8599997 200.947,33.7900004 200.947,33.706 L200.947,27.448 L197.279,27.448 C197.194999,27.448 197.125,27.4200003 197.069,27.364 C197.013,27.3079997 196.985,27.2380004 196.985,27.154 L196.985,26.09 C196.985,26.0059996 197.013,25.9360003 197.069,25.88 C197.125,25.8239997 197.194999,25.796 197.279,25.796 L202.025,25.796 C202.193001,25.796 202.335333,25.8543327 202.452,25.971 C202.568667,26.0876673 202.627,26.2299992 202.627,26.398 L202.627,33.706 C202.627,33.7900004 202.599,33.8599997 202.543,33.916 C202.487,33.9720003 202.417,34 202.333,34 L201.241,34 Z M185.805,34 C185.721,34 185.651,33.9720003 185.595,33.916 C185.539,33.8599997 185.511,33.7900004 185.511,33.706 L185.511,32.936 C185.511,32.3759972 185.590332,31.8790022 185.749,31.445 C185.907667,31.0109978 186.101332,30.6446682 186.33,30.346 C186.558668,30.0473318 186.850331,29.7113352 187.205,29.338 C187.578335,28.945998 187.851332,28.6193346 188.024,28.358 C188.196667,28.0966654 188.283,27.7980017 188.283,27.462 L188.283,27.448 L184.489,27.448 C184.320999,27.448 184.178667,27.3896673 184.062,27.273 C183.945333,27.1563327 183.887,27.0140008 183.887,26.846 L183.887,23.99 C183.887,23.9059996 183.915,23.8360003 183.971,23.78 C184.027,23.7239997 184.097,23.696 184.181,23.696 L185.273,23.696 C185.357,23.696 185.427,23.7239997 185.483,23.78 C185.539,23.8360003 185.567,23.9059996 185.567,23.99 L185.567,25.796 L189.333,25.796 C189.501001,25.796 189.643333,25.8543327 189.76,25.971 C189.876667,26.0876673 189.935,26.2299992 189.935,26.398 L189.935,27 C189.935,27.5786696 189.862667,28.0849978 189.718,28.519 C189.573333,28.9530022 189.396001,29.3123319 189.186,29.597 C188.975999,29.8816681 188.703002,30.2106648 188.367,30.584 C187.984331,30.9946687 187.697334,31.3586651 187.506,31.676 C187.314666,31.9933349 187.219,32.3759978 187.219,32.824 L187.219,33.706 C187.219,33.7900004 187.191,33.8599997 187.135,33.916 C187.079,33.9720003 187.009,34 186.925,34 L185.805,34 Z M173.705,34 C173.621,34 173.551,33.9720003 173.495,33.916 C173.439,33.8599997 173.411,33.7900004 173.411,33.706 L173.411,32.684 C173.411,32.5999996 173.439,32.5300003 173.495,32.474 C173.551,32.4179997 173.621,32.39 173.705,32.39 L174.741,32.39 L174.741,27.448 L173.705,27.448 C173.621,27.448 173.551,27.4200003 173.495,27.364 C173.439,27.3079997 173.411,27.2380004 173.411,27.154 L173.411,26.09 C173.411,26.0059996 173.439,25.9360003 173.495,25.88 C173.551,25.8239997 173.621,25.796 173.705,25.796 L180.425,25.796 C180.593001,25.796 180.735333,25.8543327 180.852,25.971 C180.968667,26.0876673 181.027,26.2299992 181.027,26.398 L181.027,33.706 C181.027,33.7900004 180.999,33.8599997 180.943,33.916 C180.887,33.9720003 180.817,34 180.733,34 L179.641,34 C179.557,34 179.487,33.9720003 179.431,33.916 C179.375,33.8599997 179.347,33.7900004 179.347,33.706 L179.347,27.448 L176.421,27.448 L176.421,33.398 C176.421,33.5660008 176.362667,33.7083327 176.246,33.825 C176.129333,33.9416672 175.987001,34 175.819,34 L173.705,34 Z M169.165,30.794 C169.081,30.794 169.011,30.7660003 168.955,30.71 C168.899,30.6539997 168.871,30.5840004 168.871,30.5 L168.871,27.448 L167.807,27.448 C167.723,27.448 167.653,27.4200003 167.597,27.364 C167.541,27.3079997 167.513,27.2380004 167.513,27.154 L167.513,26.09 C167.513,26.0059996 167.541,25.9360003 167.597,25.88 C167.653,25.8239997 167.723,25.796 167.807,25.796 L169.949,25.796 C170.117001,25.796 170.259333,25.8543327 170.376,25.971 C170.492667,26.0876673 170.551,26.2299992 170.551,26.398 L170.551,30.5 C170.551,30.5840004 170.523,30.6539997 170.467,30.71 C170.411,30.7660003 170.341,30.794 170.257,30.794 L169.165,30.794 Z M163.267,34.224 C163.155,34.224 163.071,34.1773338 163.015,34.084 L159.935,29.702 C159.785666,29.8140006 159.680667,29.9563325 159.62,30.129 C159.559333,30.3016675 159.529,30.5466651 159.529,30.864 L159.529,32.362 L160.439,32.362 C160.523,32.362 160.593,32.3899997 160.649,32.446 C160.705,32.5020003 160.733,32.5719996 160.733,32.656 L160.733,33.706 C160.733,33.7900004 160.705,33.8599997 160.649,33.916 C160.593,33.9720003 160.523,34 160.439,34 L158.451,34 C158.282999,34 158.140667,33.9416672 158.024,33.825 C157.907333,33.7083327 157.849,33.5660008 157.849,33.398 L157.849,30.92 C157.849,30.3413304 157.928333,29.8606686 158.087,29.478 C158.245668,29.0953314 158.511665,28.7546682 158.885,28.456 L158.997,28.358 L157.891,26.776 C157.853667,26.7293331 157.835,26.6733337 157.835,26.608 C157.835,26.5053328 157.881666,26.4213337 157.975,26.356 L158.857,25.726 C158.903667,25.6886665 158.959666,25.67 159.025,25.67 C159.127667,25.67 159.211666,25.7166662 159.277,25.81 L161.965,29.646 C162.282335,29.6179999 162.545999,29.5036677 162.756,29.303 C162.966001,29.1023323 163.071,28.8526682 163.071,28.554 L163.071,27.434 L162.147,27.434 C162.063,27.434 161.993,27.4060003 161.937,27.35 C161.881,27.2939997 161.853,27.2240004 161.853,27.14 L161.853,26.09 C161.853,26.0059996 161.881,25.9360003 161.937,25.88 C161.993,25.8239997 162.063,25.796 162.147,25.796 L164.149,25.796 C164.317001,25.796 164.459333,25.8543327 164.576,25.971 C164.692667,26.0876673 164.751,26.2299992 164.751,26.398 L164.751,28.484 C164.751,29.0813363 164.587668,29.5993311 164.261,30.038 C163.934332,30.4766689 163.48167,30.7893324 162.903,30.976 L164.401,33.118 C164.438334,33.1646669 164.457,33.2206663 164.457,33.286 C164.457,33.3886672 164.410334,33.4726663 164.317,33.538 L163.435,34.168 C163.388333,34.2053335 163.332334,34.224 163.267,34.224 Z M148.661,34 C148.492999,34 148.350667,33.9416672 148.234,33.825 C148.117333,33.7083327 148.059,33.5660008 148.059,33.398 L148.059,26.09 C148.059,26.0059996 148.087,25.9360003 148.143,25.88 C148.199,25.8239997 148.269,25.796 148.353,25.796 L149.445,25.796 C149.529001,25.796 149.599,25.8239997 149.655,25.88 C149.711,25.9360003 149.739,26.0059996 149.739,26.09 L149.739,32.362 L151.825,32.362 C152.263669,32.362 152.632332,32.2103349 152.931,31.907 C153.229668,31.6036651 153.379,31.2373355 153.379,30.808 L153.379,27.826 C153.379,27.6579992 153.334667,27.5250005 153.246,27.427 C153.157333,27.3289995 153.033668,27.28 152.875,27.28 C152.725666,27.28 152.599667,27.3289995 152.497,27.427 C152.394333,27.5250005 152.343,27.6486659 152.343,27.798 L152.343,29.842 C152.343,29.9260004 152.315,29.9959997 152.259,30.052 C152.203,30.1080003 152.133001,30.136 152.049,30.136 L150.985,30.136 C150.901,30.136 150.831,30.1080003 150.775,30.052 C150.719,29.9959997 150.691,29.9260004 150.691,29.842 L150.691,27.84 C150.691,27.4386647 150.791332,27.072335 150.992,26.741 C151.192668,26.409665 151.463332,26.146001 151.804,25.95 C152.144669,25.753999 152.520331,25.656 152.931,25.656 C153.556337,25.656 154.064998,25.858998 154.457,26.265 C154.849002,26.671002 155.045,27.1959968 155.045,27.84 L155.045,30.92 C155.045,31.4706694 154.907335,31.9839976 154.632,32.46 C154.356665,32.9360024 153.981003,33.3116653 153.505,33.587 C153.028998,33.8623347 152.51567,34 151.965,34 L148.661,34 Z M143.337,34 C143.253,34 143.183,33.9720003 143.127,33.916 C143.071,33.8599997 143.043,33.7900004 143.043,33.706 L143.043,27.448 L139.375,27.448 C139.291,27.448 139.221,27.4200003 139.165,27.364 C139.109,27.3079997 139.081,27.2380004 139.081,27.154 L139.081,26.09 C139.081,26.0059996 139.109,25.9360003 139.165,25.88 C139.221,25.8239997 139.291,25.796 139.375,25.796 L144.121,25.796 C144.289001,25.796 144.431333,25.8543327 144.548,25.971 C144.664667,26.0876673 144.723,26.2299992 144.723,26.398 L144.723,33.706 C144.723,33.7900004 144.695,33.8599997 144.639,33.916 C144.583,33.9720003 144.513001,34 144.429,34 L143.337,34 Z M134.821,34 C134.737,34 134.667001,33.9720003 134.611,33.916 C134.555,33.8599997 134.527,33.7900004 134.527,33.706 L134.527,27.448 L133.449,27.448 C133.365,27.448 133.295001,27.4200003 133.239,27.364 C133.183,27.3079997 133.155,27.2380004 133.155,27.154 L133.155,26.09 C133.155,26.0059996 133.183,25.9360003 133.239,25.88 C133.295001,25.8239997 133.365,25.796 133.449,25.796 L135.605,25.796 C135.773001,25.796 135.915333,25.8543327 136.032,25.971 C136.148667,26.0876673 136.207,26.2299992 136.207,26.398 L136.207,33.706 C136.207,33.7900004 136.179001,33.8599997 136.123,33.916 C136.067,33.9720003 135.997001,34 135.913,34 L134.821,34 Z M128.993,36.03 C128.824999,36.03 128.682668,35.9716673 128.566,35.855 C128.449333,35.7383327 128.391,35.5960008 128.391,35.428 L128.391,27.434 L127.327,27.434 C127.243,27.434 127.173001,27.4060003 127.117,27.35 C127.061,27.2939997 127.033,27.2240004 127.033,27.14 L127.033,26.09 C127.033,26.0059996 127.061,25.9360003 127.117,25.88 C127.173001,25.8239997 127.243,25.796 127.327,25.796 L129.469,25.796 C129.637001,25.796 129.779333,25.8543327 129.896,25.971 C130.012668,26.0876673 130.071,26.2299992 130.071,26.398 L130.071,34.406 L130.925,34.406 C131.009001,34.406 131.079,34.4339997 131.135,34.49 C131.191001,34.5460003 131.219,34.6159996 131.219,34.7 L131.219,35.736 C131.219,35.8200004 131.191001,35.8899997 131.135,35.946 C131.079,36.0020003 131.009001,36.03 130.925,36.03 L128.993,36.03 Z M113.375,34 C113.291,34 113.221001,33.9720003 113.165,33.916 C113.109,33.8599997 113.081,33.7900004 113.081,33.706 L113.081,27.448 L112.437,27.448 C112.353,27.448 112.283001,27.4200003 112.227,27.364 C112.171,27.3079997 112.143,27.2380004 112.143,27.154 L112.143,26.09 C112.143,26.0059996 112.171,25.9360003 112.227,25.88 C112.283001,25.8239997 112.353,25.796 112.437,25.796 L119.745,25.796 C119.829001,25.796 119.899,25.8239997 119.955,25.88 C120.011001,25.9360003 120.039,26.0059996 120.039,26.09 L120.039,27.154 C120.039,27.2380004 120.011001,27.3079997 119.955,27.364 C119.899,27.4200003 119.829001,27.448 119.745,27.448 L119.101,27.448 L119.101,33.706 C119.101,33.7900004 119.073001,33.8599997 119.017,33.916 C118.961,33.9720003 118.891001,34 118.807,34 L117.715,34 C117.631,34 117.561001,33.9720003 117.505,33.916 C117.449,33.8599997 117.421,33.7900004 117.421,33.706 L117.421,27.448 L114.761,27.448 L114.761,33.706 C114.761,33.7900004 114.733001,33.8599997 114.677,33.916 C114.621,33.9720003 114.551001,34 114.467,34 L113.375,34 Z M107.029,34 C106.945,34 106.875001,33.9720003 106.819,33.916 C106.763,33.8599997 106.735,33.7900004 106.735,33.706 L106.735,33.118 C106.735,32.7819983 106.704667,32.4553349 106.644,32.138 C106.583333,31.8206651 106.492334,31.4193358 106.371,30.934 C106.277667,30.5699982 106.210001,30.2783344 106.168,30.059 C106.126,29.8396656 106.105,29.632001 106.105,29.436 C106.105,28.6146626 106.384998,27.9520025 106.945,27.448 L105.489,27.448 C105.405,27.448 105.335001,27.4200003 105.279,27.364 C105.223,27.3079997 105.195,27.2380004 105.195,27.154 L105.195,26.09 C105.195,26.0059996 105.223,25.9360003 105.279,25.88 C105.335001,25.8239997 105.405,25.796 105.489,25.796 L109.339,25.796 C109.423001,25.796 109.493,25.8239997 109.549,25.88 C109.605001,25.9360003 109.633,26.0059996 109.633,26.09 L109.633,27.028 C109.633,27.1120004 109.605001,27.1889996 109.549,27.259 C109.493,27.3290004 109.423001,27.3779999 109.339,27.406 C108.302995,27.6953348 107.785,28.306662 107.785,29.24 C107.785,29.4080008 107.806,29.6063322 107.848,29.835 C107.890001,30.0636678 107.927334,30.2526659 107.96,30.402 C107.992667,30.5513341 108.018334,30.6586663 108.037,30.724 C108.158334,31.1813356 108.251667,31.5966648 108.317,31.97 C108.382334,32.3433352 108.415,32.725998 108.415,33.118 L108.415,33.706 C108.415,33.7900004 108.387001,33.8599997 108.331,33.916 C108.275,33.9720003 108.205001,34 108.121,34 L107.029,34 Z M100.991,34 C100.907,34 100.837001,33.9720003 100.781,33.916 C100.725,33.8599997 100.697,33.7900004 100.697,33.706 L100.697,27.448 L99.6190005,27.448 C99.5350001,27.448 99.4650008,27.4200003 99.4090005,27.364 C99.3530002,27.3079997 99.3250005,27.2380004 99.3250005,27.154 L99.3250005,26.09 C99.3250005,26.0059996 99.3530002,25.9360003 99.4090005,25.88 C99.4650008,25.8239997 99.5350001,25.796 99.6190005,25.796 L101.775,25.796 C101.943001,25.796 102.085333,25.8543327 102.202,25.971 C102.318668,26.0876673 102.377,26.2299992 102.377,26.398 L102.377,33.706 C102.377,33.7900004 102.349001,33.8599997 102.293,33.916 C102.237,33.9720003 102.167001,34 102.083,34 L100.991,34 Z M89.0870006,34 C89.0030001,34 88.9330008,33.9720003 88.8770006,33.916 C88.8210003,33.8599997 88.7930006,33.7900004 88.7930006,33.706 L88.7930006,32.684 C88.7930006,32.5999996 88.8210003,32.5300003 88.8770006,32.474 C88.9330008,32.4179997 89.0030001,32.39 89.0870006,32.39 L90.1230006,32.39 L90.1230006,27.448 L89.0870006,27.448 C89.0030001,27.448 88.9330008,27.4200003 88.8770006,27.364 C88.8210003,27.3079997 88.7930006,27.2380004 88.7930006,27.154 L88.7930006,26.09 C88.7930006,26.0059996 88.8210003,25.9360003 88.8770006,25.88 C88.9330008,25.8239997 89.0030001,25.796 89.0870006,25.796 L95.8070006,25.796 C95.9750014,25.796 96.1173333,25.8543327 96.2340006,25.971 C96.3506678,26.0876673 96.4090006,26.2299992 96.4090006,26.398 L96.4090006,33.706 C96.4090006,33.7900004 96.3810008,33.8599997 96.3250006,33.916 C96.2690003,33.9720003 96.199001,34 96.1150006,34 L95.0230006,34 C94.9390001,34 94.8690008,33.9720003 94.8130006,33.916 C94.7570003,33.8599997 94.7290006,33.7900004 94.7290006,33.706 L94.7290006,27.448 L91.8030006,27.448 L91.8030006,33.398 C91.8030006,33.5660008 91.7446678,33.7083327 91.6280006,33.825 C91.5113333,33.9416672 91.3690014,34 91.2010006,34 L89.0870006,34 Z M84.5470006,30.794 C84.4630002,30.794 84.3930009,30.7660003 84.3370006,30.71 C84.2810003,30.6539997 84.2530006,30.5840004 84.2530006,30.5 L84.2530006,27.448 L83.1890006,27.448 C83.1050002,27.448 83.0350009,27.4200003 82.9790006,27.364 C82.9230003,27.3079997 82.8950006,27.2380004 82.8950006,27.154 L82.8950006,26.09 C82.8950006,26.0059996 82.9230003,25.9360003 82.9790006,25.88 C83.0350009,25.8239997 83.1050002,25.796 83.1890006,25.796 L85.3310006,25.796 C85.4990014,25.796 85.6413334,25.8543327 85.7580006,25.971 C85.8746679,26.0876673 85.9330006,26.2299992 85.9330006,26.398 L85.9330006,30.5 C85.9330006,30.5840004 85.9050009,30.6539997 85.8490006,30.71 C85.7930003,30.7660003 85.723001,30.794 85.6390006,30.794 L84.5470006,30.794 Z M210.569,54 C210.484999,54 210.415,53.9720003 210.359,53.916 C210.302999,53.8599997 210.275,53.7900004 210.275,53.706 L210.275,52.642 C210.275,52.5579996 210.302999,52.4880003 210.359,52.432 C210.415,52.3759997 210.484999,52.348 210.569,52.348 L214.055,52.348 C214.157667,52.348 214.248666,52.310667 214.328,52.236 C214.407333,52.161333 214.447,52.0773338 214.447,51.984 L214.447,47.448 L210.695,47.448 C210.610999,47.448 210.541,47.4200003 210.485,47.364 C210.428999,47.3079997 210.401,47.2380004 210.401,47.154 L210.401,46.09 C210.401,46.0059996 210.428999,45.9360003 210.485,45.88 C210.541,45.8239997 210.610999,45.796 210.695,45.796 L215.525,45.796 C215.693001,45.796 215.835333,45.8543327 215.952,45.971 C216.068667,46.0876672 216.127,46.2299992 216.127,46.398 L216.127,51.984 C216.127,52.5626696 215.931002,53.0433314 215.539,53.426 C215.146998,53.8086686 214.652336,54 214.055,54 L210.569,54 Z M203.943,54 C203.858999,54 203.789,53.9720003 203.733,53.916 C203.677,53.8599997 203.649,53.7900004 203.649,53.706 L203.649,52.642 C203.649,52.5579996 203.677,52.4880003 203.733,52.432 C203.789,52.3759997 203.858999,52.348 203.943,52.348 L205.301,52.348 C205.422334,52.348 205.524999,52.3060004 205.609,52.222 C205.693,52.1379996 205.735,52.0353339 205.735,51.914 L205.735,47.448 L204.363,47.448 C204.278999,47.448 204.209,47.4200003 204.153,47.364 C204.097,47.3079997 204.069,47.2380004 204.069,47.154 L204.069,46.09 C204.069,46.0059996 204.097,45.9360003 204.153,45.88 C204.209,45.8239997 204.278999,45.796 204.363,45.796 L206.813,45.796 C206.981001,45.796 207.123333,45.8543327 207.24,45.971 C207.356667,46.0876672 207.415,46.2299992 207.415,46.398 L207.415,51.984 C207.415,52.3480018 207.324001,52.6839985 207.142,52.992 C206.959999,53.3000015 206.715001,53.5449991 206.407,53.727 C206.098998,53.9090009 205.763002,54 205.399,54 L203.943,54 Z M197.807,54.182 C197.22833,54.182 196.691669,54.0396681 196.197,53.755 C195.702331,53.4703319 195.312668,53.0806691 195.028,52.586 C194.743332,52.0913309 194.601,51.5546696 194.601,50.976 L194.601,47.448 L193.845,47.448 C193.760999,47.448 193.691,47.4200003 193.635,47.364 C193.579,47.3079997 193.551,47.2380004 193.551,47.154 L193.551,46.09 C193.551,46.0059996 193.579,45.9360003 193.635,45.88 C193.691,45.8239997 193.760999,45.796 193.845,45.796 L200.397,45.796 C200.565001,45.796 200.707333,45.8543328 200.824,45.971 C200.940667,46.0876673 200.999,46.2299992 200.999,46.398 L200.999,50.976 C200.999,51.5546696 200.856668,52.0913309 200.572,52.586 C200.287332,53.0806691 199.900002,53.4703319 199.41,53.755 C198.919997,54.0396681 198.385669,54.182 197.807,54.182 Z M197.807,52.558 C198.217669,52.558 198.572332,52.4086682 198.871,52.11 C199.169668,51.8113318 199.319,51.4520021 199.319,51.032 L199.319,47.448 L196.281,47.448 L196.281,51.032 C196.281,51.4520021 196.430332,51.8113318 196.729,52.11 C197.027668,52.4086682 197.386998,52.558 197.807,52.558 Z M180.341,54 C180.257,54 180.187,53.9720003 180.131,53.916 C180.075,53.8599997 180.047,53.7900004 180.047,53.706 L180.047,52.656 C180.047,52.5719996 180.075,52.5020003 180.131,52.446 C180.187,52.3899997 180.257,52.362 180.341,52.362 L183.855,52.362 L183.855,47.42 L180.663,47.42 C180.579,47.42 180.509,47.3920003 180.453,47.336 C180.397,47.2799997 180.369,47.2100004 180.369,47.126 L180.369,46.076 C180.369,45.9919996 180.397,45.9220003 180.453,45.866 C180.509,45.8099997 180.579,45.782 180.663,45.782 L184.933,45.796 C185.101001,45.796 185.243333,45.8543327 185.36,45.971 C185.476667,46.0876673 185.535,46.2299992 185.535,46.398 L185.535,52.362 L186.515,52.362 C186.599,52.362 186.669,52.3899997 186.725,52.446 C186.781,52.5020003 186.809,52.5719996 186.809,52.656 L186.809,53.706 C186.809,53.7900004 186.781,53.8599997 186.725,53.916 C186.669,53.9720003 186.599,54 186.515,54 L180.341,54 Z M176.011,50.794 C175.927,50.794 175.857,50.7660003 175.801,50.71 C175.745,50.6539997 175.717,50.5840004 175.717,50.5 L175.717,47.448 L174.653,47.448 C174.569,47.448 174.499,47.4200003 174.443,47.364 C174.387,47.3079997 174.359,47.2380004 174.359,47.154 L174.359,46.09 C174.359,46.0059996 174.387,45.9360003 174.443,45.88 C174.499,45.8239997 174.569,45.796 174.653,45.796 L176.795,45.796 C176.963001,45.796 177.105333,45.8543328 177.222,45.971 C177.338667,46.0876673 177.397,46.2299992 177.397,46.398 L177.397,50.5 C177.397,50.5840004 177.369,50.6539997 177.313,50.71 C177.257,50.7660003 177.187,50.794 177.103,50.794 L176.011,50.794 Z M168.069,54 C167.985,54 167.915,53.9720003 167.859,53.916 C167.803,53.8599997 167.775,53.7900004 167.775,53.706 L167.775,52.642 C167.775,52.5579996 167.803,52.4880003 167.859,52.432 C167.915,52.3759997 167.985,52.348 168.069,52.348 L169.427,52.348 C169.548334,52.348 169.651,52.3060004 169.735,52.222 C169.819,52.1379996 169.861,52.0353339 169.861,51.914 L169.861,47.448 L168.489,47.448 C168.405,47.448 168.335,47.4200003 168.279,47.364 C168.223,47.3079997 168.195,47.2380004 168.195,47.154 L168.195,46.09 C168.195,46.0059996 168.223,45.9360003 168.279,45.88 C168.335,45.8239997 168.405,45.796 168.489,45.796 L170.939,45.796 C171.107001,45.796 171.249333,45.8543327 171.366,45.971 C171.482667,46.0876672 171.541,46.2299992 171.541,46.398 L171.541,51.984 C171.541,52.3480018 171.450001,52.6839985 171.268,52.992 C171.085999,53.3000015 170.841002,53.5449991 170.533,53.727 C170.224999,53.9090009 169.889002,54 169.525,54 L168.069,54 Z M161.401,54 C161.317,54 161.247,53.9720003 161.191,53.916 C161.135,53.8599997 161.107,53.7900004 161.107,53.706 L161.107,52.936 C161.107,52.3759972 161.186333,51.8790022 161.345,51.445 C161.503668,51.0109978 161.697332,50.6446682 161.926,50.346 C162.154668,50.0473318 162.446332,49.7113352 162.801,49.338 C163.174335,48.945998 163.447333,48.6193346 163.62,48.358 C163.792668,48.0966654 163.879,47.7980017 163.879,47.462 L163.879,47.448 L160.085,47.448 C159.916999,47.448 159.774667,47.3896673 159.658,47.273 C159.541333,47.1563328 159.483,47.0140008 159.483,46.846 L159.483,43.99 C159.483,43.9059996 159.511,43.8360003 159.567,43.78 C159.623,43.7239997 159.693,43.696 159.777,43.696 L160.869,43.696 C160.953001,43.696 161.023,43.7239997 161.079,43.78 C161.135,43.8360003 161.163,43.9059996 161.163,43.99 L161.163,45.796 L164.929,45.796 C165.097001,45.796 165.239333,45.8543327 165.356,45.971 C165.472667,46.0876673 165.531,46.2299992 165.531,46.398 L165.531,47 C165.531,47.5786696 165.458668,48.0849978 165.314,48.519 C165.169333,48.9530022 164.992001,49.3123319 164.782,49.597 C164.571999,49.8816681 164.299002,50.2106648 163.963,50.584 C163.580332,50.9946687 163.293334,51.3586651 163.102,51.676 C162.910666,51.9933349 162.815,52.3759978 162.815,52.824 L162.815,53.706 C162.815,53.7900004 162.787,53.8599997 162.731,53.916 C162.675,53.9720003 162.605001,54 162.521,54 L161.401,54 Z M155.293,54.224 C155.181,54.224 155.097,54.1773338 155.041,54.084 L151.961,49.702 C151.811666,49.8140006 151.706667,49.9563325 151.646,50.129 C151.585333,50.3016675 151.555,50.5466651 151.555,50.864 L151.555,52.362 L152.465,52.362 C152.549001,52.362 152.619,52.3899997 152.675,52.446 C152.731,52.5020003 152.759,52.5719996 152.759,52.656 L152.759,53.706 C152.759,53.7900004 152.731,53.8599997 152.675,53.916 C152.619,53.9720003 152.549001,54 152.465,54 L150.477,54 C150.308999,54 150.166667,53.9416673 150.05,53.825 C149.933333,53.7083327 149.875,53.5660008 149.875,53.398 L149.875,50.92 C149.875,50.3413304 149.954333,49.8606686 150.113,49.478 C150.271668,49.0953314 150.537665,48.7546682 150.911,48.456 L151.023,48.358 L149.917,46.776 C149.879667,46.7293331 149.861,46.6733337 149.861,46.608 C149.861,46.5053328 149.907666,46.4213337 150.001,46.356 L150.883,45.726 C150.929667,45.6886665 150.985667,45.67 151.051,45.67 C151.153667,45.67 151.237667,45.7166662 151.303,45.81 L153.991,49.646 C154.308335,49.6179999 154.571999,49.5036677 154.782,49.303 C154.992001,49.1023323 155.097,48.8526682 155.097,48.554 L155.097,47.434 L154.173,47.434 C154.089,47.434 154.019,47.4060003 153.963,47.35 C153.907,47.2939997 153.879,47.2240004 153.879,47.14 L153.879,46.09 C153.879,46.0059996 153.907,45.9360003 153.963,45.88 C154.019,45.8239997 154.089,45.796 154.173,45.796 L156.175,45.796 C156.343001,45.796 156.485333,45.8543327 156.602,45.971 C156.718667,46.0876673 156.777,46.2299992 156.777,46.398 L156.777,48.484 C156.777,49.0813363 156.613668,49.5993311 156.287,50.038 C155.960332,50.4766689 155.50767,50.7893324 154.929,50.976 L156.427,53.118 C156.464334,53.1646669 156.483,53.2206663 156.483,53.286 C156.483,53.3886672 156.436334,53.4726663 156.343,53.538 L155.461,54.168 C155.414333,54.2053335 155.358334,54.224 155.293,54.224 Z M145.363,54 C145.279,54 145.209001,53.9720003 145.153,53.916 C145.097,53.8599997 145.069,53.7900004 145.069,53.706 L145.069,47.448 L143.991,47.448 C143.907,47.448 143.837001,47.4200003 143.781,47.364 C143.725,47.3079997 143.697,47.2380004 143.697,47.154 L143.697,46.09 C143.697,46.0059996 143.725,45.9360003 143.781,45.88 C143.837001,45.8239997 143.907,45.796 143.991,45.796 L146.147,45.796 C146.315001,45.796 146.457333,45.8543327 146.574,45.971 C146.690667,46.0876672 146.749,46.2299992 146.749,46.398 L146.749,53.706 C146.749,53.7900004 146.721001,53.8599997 146.665,53.916 C146.609,53.9720003 146.539001,54 146.455,54 L145.363,54 Z M134.985,54 C134.901,54 134.831001,53.9720003 134.775,53.916 C134.719,53.8599997 134.691,53.7900004 134.691,53.706 L134.691,47.406 L134.047,47.406 C133.981667,47.406 133.923334,47.3803336 133.872,47.329 C133.820667,47.2776664 133.795,47.2193337 133.795,47.154 L133.795,46.048 C133.795,45.973333 133.820667,45.9126669 133.872,45.866 C133.923334,45.8193331 133.981667,45.796 134.047,45.796 L135.881,45.796 C135.993001,45.796 136.088667,45.8356663 136.168,45.915 C136.247334,45.9943337 136.287,46.0899994 136.287,46.202 L136.287,46.664 C136.520335,46.3559985 136.814332,46.1110009 137.169,45.929 C137.523669,45.7469991 137.896998,45.656 138.289,45.656 C138.830336,45.656 139.320331,45.7773321 139.759,46.02 C140.197669,46.2626679 140.545332,46.5916646 140.802,47.007 C141.058668,47.4223354 141.187,47.8866641 141.187,48.4 L141.187,51.984 C141.187,52.3480018 141.093668,52.6839985 140.907,52.992 C140.720333,53.3000015 140.470669,53.5449991 140.158,53.727 C139.845332,53.9090009 139.507002,54 139.143,54 L137.785,54 C137.701,54 137.631001,53.9720003 137.575,53.916 C137.519,53.8599997 137.491,53.7900004 137.491,53.706 L137.491,52.642 C137.491,52.5579996 137.519,52.4880003 137.575,52.432 C137.631001,52.3759997 137.701,52.348 137.785,52.348 L139.129,52.348 C139.231667,52.348 139.320333,52.310667 139.395,52.236 C139.469667,52.161333 139.507,52.0726672 139.507,51.97 L139.507,48.666 C139.507,48.2459979 139.378668,47.907668 139.122,47.651 C138.865332,47.3943321 138.527002,47.266 138.107,47.266 C137.593664,47.266 137.176002,47.4246651 136.854,47.742 C136.531999,48.0593349 136.371,48.4793307 136.371,49.002 L136.371,53.706 C136.371,53.7900004 136.343001,53.8599997 136.287,53.916 C136.231,53.9720003 136.161001,54 136.077,54 L134.985,54 Z M130.953,50.794 C130.869,50.794 130.799001,50.7660003 130.743,50.71 C130.687,50.6539997 130.659,50.5840004 130.659,50.5 L130.659,47.448 L129.595,47.448 C129.511,47.448 129.441001,47.4200003 129.385,47.364 C129.329,47.3079997 129.301,47.2380004 129.301,47.154 L129.301,46.09 C129.301,46.0059996 129.329,45.9360003 129.385,45.88 C129.441001,45.8239997 129.511,45.796 129.595,45.796 L131.737,45.796 C131.905001,45.796 132.047333,45.8543328 132.164,45.971 C132.280668,46.0876673 132.339,46.2299992 132.339,46.398 L132.339,50.5 C132.339,50.5840004 132.311001,50.6539997 132.255,50.71 C132.199,50.7660003 132.129001,50.794 132.045,50.794 L130.953,50.794 Z" id="16-18.10.2018-בית-הס" fill="#FFFFFF"></path>
                    <g id="Group-35" transform="translate(69.000000, 272.000000)">
                        <g id="Group-19">
                            <path d="M7.02327767,11.3628493 C7.02327767,11.3628493 8.15881165,10.4423014 9.00386019,9.41654795 C8.15881165,8.33884932 7.02327767,7.44460274 7.02327767,7.44460274 C7.02327767,7.44460274 5.86133592,8.33884932 5.12257864,9.41654795 C5.86133592,10.4423014 7.02327767,11.3628493 7.02327767,11.3628493" id="Fill-1" fill="#FEFEFE"></path>
                            <path d="M54.1513709,6.39267945 C54.1513709,6.39267945 55.2869049,5.47213151 56.1319534,4.44703562 C55.2869049,3.36867945 54.1513709,2.47443288 54.1513709,2.47443288 C54.1513709,2.47443288 52.9894291,3.36867945 52.2506718,4.44703562 C52.9894291,5.47213151 54.1513709,6.39267945 54.1513709,6.39267945" id="Fill-3" fill="#FEFEFE"></path>
                            <g id="Group-7" transform="translate(31.689320, 0.000000)">
                                <mask id="mask-2" fill="white">
                                    <use xlink:href="#path-1"></use>
                                </mask>
                                <g id="Clip-6"></g>
                                <path d="M33.8725165,8.60166575 C34.3214485,11.1522411 34.5855262,13.3615562 34.5855262,14.2295014 C34.5855262,14.5977205 33.6005165,15.2453918 31.619934,15.2453918 L31.6179534,15.2460493 L31.6159728,15.2453918 C30.5860699,15.2453918 28.0859146,14.8863781 27.5577592,14.6759671 C27.6897981,14.2821041 27.7426136,13.8349808 27.7426136,13.3615562 C27.7426136,10.7320767 25.5778369,7.49700822 22.4887883,7.49700822 C18.8715845,7.49700822 13.5154291,11.6782685 11.7203612,14.4662137 C11.2714291,14.3347068 10.8753126,14.1505973 10.5848272,13.9664877 L10.9017204,11.5993644 L8.04968155,11.5993644 C8.04968155,11.5993644 7.70704078,14.0716932 7.57500194,14.5451178 C7.49577864,14.8863781 6.99403107,15.0441863 5.75286602,15.0441863 L5.75220583,15.0448438 L5.75154563,15.0441863 C3.74521553,15.0441863 3.26987573,14.6503233 3.26987573,12.6251178 L3.26987573,0.475857534 L0.180827184,0.659967123 L0.180827184,10.7583781 C0.180827184,16.7537753 1.68540971,18.5159671 5.09135146,18.5159671 L5.75154563,18.5159671 L5.75220583,18.5153096 L5.75286602,18.5159671 C7.07325437,18.5159671 8.28801165,18.2529534 9.1324,16.8852822 C10.1358951,17.7006247 12.617565,18.5159671 16.0505748,18.5159671 L16.4196233,18.5159671 C19.3244777,18.5159671 23.9933709,18.1214466 25.7362835,17.016789 C26.8190019,18.2003507 30.5418369,18.5159671 32.0206718,18.5159671 L32.0226524,18.5153096 L32.0239728,18.5159671 C33.7404777,18.5159671 35.0344583,18.0951452 35.8788466,17.3850082 C36.7238951,16.6485699 37.5425359,15.3335014 37.5425359,13.4404603 C37.5425359,11.9412822 37.1728272,9.60111781 36.8823417,8.04933699 L33.8725165,8.60166575 Z M16.7365165,15.1230904 L16.3932155,15.1230904 C15.4431961,15.1230904 14.439701,15.0441863 13.5154291,14.8863781 C14.9414485,13.1248438 19.240633,10.9944329 21.6437398,10.9944329 C23.861332,10.9944329 25.1817204,13.1511452 25.1817204,13.7560767 C25.1817204,14.5707616 20.2744971,15.1230904 16.7365165,15.1230904 Z" id="Fill-5" fill="#FEFEFE" mask="url(#mask-2)"></path>
                            </g>
                            <g id="Group-10" transform="translate(0.000000, 8.547945)">
                                <mask id="mask-4" fill="white">
                                    <use xlink:href="#path-3"></use>
                                </mask>
                                <g id="Clip-9"></g>
                                <path d="M25.6100544,0.185227397 C23.3653942,0.185227397 22.1512971,2.18347397 21.0157631,4.44539178 C20.1443068,6.07541918 19.8010058,6.4962411 18.1115689,6.4962411 L18.1102485,6.49689863 L18.108268,6.4962411 C15.4681515,6.4962411 13.6242291,5.44484384 13.3865592,3.52484384 L13.3601515,3.60374795 C13.3073359,3.13032329 13.2281126,2.6832 13.1752971,2.28933699 L10.0862485,2.86730959 C10.4031417,4.36648767 11.0626757,8.52144658 11.0626757,9.91476164 C11.0626757,10.3881863 9.3204233,11.6243507 6.65389903,11.6243507 C3.06244272,11.6243507 2.77195728,9.25788493 2.77195728,7.91651507 C2.77195728,5.97087123 3.8810835,3.78785753 3.8810835,3.78785753 L1.08252039,3.78785753 C1.08252039,3.78785753 -0.000198058252,5.89196712 -0.000198058252,8.62665205 C-0.000198058252,11.4665425 1.16174369,15.095474 6.41622913,15.095474 C9.0035301,15.095474 11.0098602,14.2275288 12.0661709,13.2287342 C13.2809282,12.1240767 13.7298602,10.5459945 13.756268,8.96856986 C14.3900544,9.65240548 16.7885398,9.96802192 18.108268,9.96802192 L18.1102485,9.96736438 L18.1115689,9.96802192 C19.4319573,9.96802192 20.1971223,9.57350137 20.7780932,8.88966575 C22.0192583,9.8102137 23.7351029,10.1521315 25.1083068,10.1521315 C28.9631806,10.1521315 29.8346369,7.52199452 29.8346369,5.70785753 C29.8346369,3.36703562 28.1973553,0.185227397 25.6100544,0.185227397 M25.1347146,6.73295342 C24.0519961,6.73295342 22.9699379,6.4962411 22.2305204,6.12802192 C22.2833359,6.04977534 22.3097437,5.94391233 22.3361515,5.86500822 C23.0227534,4.57689863 23.8671417,3.68265205 25.0026757,3.68265205 C26.2966563,3.68265205 27.2209282,5.31333699 27.2209282,6.04977534 C27.2209282,6.41733699 26.4022874,6.73295342 25.1347146,6.73295342" id="Fill-8" fill="#FEFEFE" mask="url(#mask-4)"></path>
                            </g>
                            <path d="M68.4397553,3.1056 C68.4397553,3.1056 67.5947068,3.81573699 66.9081049,4.63107945 C66.1957553,3.81573699 65.3771146,3.1056 65.3771146,3.1056 C65.3771146,3.1056 64.2679883,3.99984658 63.5813864,4.97233973 C64.2679883,5.91918904 65.3771146,6.81343562 65.3771146,6.81343562 C65.3771146,6.81343562 66.1957553,6.10329863 66.9081049,5.2886137 C67.5947068,6.10329863 68.4397553,6.81343562 68.4397553,6.81343562 C68.4397553,6.81343562 69.496066,5.91918904 70.2618913,4.97233973 C69.496066,3.99984658 68.4397553,3.1056 68.4397553,3.1056" id="Fill-11" fill="#FEFEFE"></path>
                            <path d="M92.1067262,18.5156384 L92.1067262,9.24177534 L87.6662602,9.24177534 C87.6662602,9.24177534 87.6900272,18.1592548 87.6662602,18.1592548 L82.1272311,18.7299945 L82.7240466,15.6862685 C83.6549204,15.590926 84.6102214,15.4955836 84.6102214,15.4955836 L84.6102214,9.24177534 C83.4159301,9.24177534 82.5088233,8.57635068 82.5088233,8.57635068 L83.5836194,5.72265205 C83.5836194,5.72265205 84.418765,6.19804932 85.2783379,6.19804932 L93.4911534,6.19804932 C94.6610175,6.19804932 95.162765,6.95947397 95.162765,7.83925479 L95.162765,18.5156384 L92.1067262,18.5156384 Z M102.990687,18.5156384 L102.990687,9.74150137 L100.699153,8.24298082 L102.107348,5.72265205 L106.046726,8.12462466 L106.046726,18.5156384 L102.990687,18.5156384 Z M114.59228,14.8775014 L112.157483,13.6170082 L114.091192,9.74150137 L111.584435,8.33832329 L113.088357,5.72265205 L117.863542,8.33832329 L114.59228,14.8775014 Z M129.345639,18.5156384 L129.345639,9.9552 C129.345639,9.40813151 129.01092,9.24177534 128.509833,9.24177534 L124.68995,9.24177534 C124.093134,9.24177534 122.947037,8.57635068 122.947037,8.57635068 L124.04494,5.72265205 C124.04494,5.72265205 124.904513,6.19804932 125.525095,6.19804932 L131.159852,6.19804932 C131.66094,6.19804932 132.37725,6.74511781 132.37725,7.33952877 L132.401017,18.5156384 L129.345639,18.5156384 Z M147.225017,9.14709041 L147.225017,18.5156384 L144.169639,18.5156384 L144.169639,9.24177534 L139.99127,9.24177534 C139.203658,9.24177534 138.128862,8.57635068 138.128862,8.57635068 L139.227425,5.72265205 C139.227425,5.72265205 139.895542,6.19804932 140.87461,6.19804932 L146.031386,6.19804932 C146.628202,6.19804932 147.416474,5.72265205 147.416474,5.72265205 L148.514377,8.57635068 C148.514377,8.57635068 148.156551,8.81372055 147.225017,9.14709041 Z M157.106804,14.8775014 L154.672008,13.6170082 L156.605717,9.74150137 L154.098959,8.33832329 L155.602882,5.72265205 L160.378066,8.33832329 L157.106804,14.8775014 Z M169.16195,18.8246795 L167.658027,16.2326795 C170.28428,14.9248438 171.693134,11.7147616 171.740668,9.24177534 L165.987076,9.24177534 C166.392435,7.31585753 166.344901,4.05843288 165.915115,2.0371726 L168.899192,1.49010411 C169.448474,4.24846027 169.305212,4.98555616 169.257678,6.19804932 L174.653445,6.19804932 C175.25026,10.8829808 173.411619,16.8270904 169.16195,18.8246795 Z M182.100435,18.5156384 L182.100435,9.74150137 L179.808241,8.24298082 L181.216435,5.72265205 L185.155814,8.12462466 L185.155814,18.5156384 L182.100435,18.5156384 Z M192.913755,18.7056658 L192.07795,9.24177534 C191.266571,9.24177534 190.263736,8.57635068 190.263736,8.57635068 L191.361639,5.72265205 C191.361639,5.72265205 192.126144,6.19804932 192.913755,6.19804932 L203.490066,6.19804932 C203.490066,12.6182137 200.983309,17.9685699 192.913755,18.7056658 Z M195.03892,9.24177534 L195.587542,15.0438575 C198.429017,14.4257753 200.243231,11.2156932 200.243231,9.24177534 L195.03892,9.24177534 Z" id="Fill-13" fill="#FEFEFE"></path>
                            <path d="M15.231868,42.5541699 L18.5612272,42.5541699 C18.6886447,43.9461699 19.5020039,44.5787178 21.3063146,44.5787178 C22.983868,44.5787178 23.7972272,44.0217863 23.7972272,43.1360877 C23.7972272,42.3260055 23.1112854,42.0222247 21.9671689,41.6421699 L18.8154019,40.6045808 C17.0619262,40.0220055 15.561965,38.8581699 15.561965,36.6048 C15.561965,33.6938959 18.0786252,32.2006356 21.3571495,32.2006356 C24.7888388,32.2006356 26.9740816,33.8464438 27.0506641,36.959211 L23.6955573,36.959211 C23.5681398,35.7440877 23.0096155,35.0352658 21.3063146,35.0352658 C19.8829359,35.0352658 19.0953243,35.5422247 19.0953243,36.3772932 C19.0953243,37.0611288 19.6545087,37.440526 20.4929553,37.718663 L23.7721398,38.8331836 C25.8048777,39.5163616 27.3299262,40.5289644 27.3299262,42.8579507 C27.3299262,45.9713753 24.6105864,47.3890192 21.1538097,47.3890192 C17.316101,47.3890192 15.231868,45.6419507 15.231868,42.5541699" id="Fill-15" fill="#FEFEFE"></path>
                            <path d="M32.8672388,41.5158575 C32.8672388,36.8835288 36.1715107,35.5671452 39.1450252,35.5671452 C42.1442874,35.5671452 45.2703068,36.9091726 45.2703068,41.4152548 C45.2703068,46.0475836 41.966035,47.3889534 38.9925204,47.3889534 C36.0190058,47.3889534 32.8672388,46.0475836 32.8672388,41.5158575 M41.7376078,41.4658849 C41.7376078,39.2125151 40.7717437,38.3261589 39.0691029,38.3261589 C37.3658019,38.3261589 36.4005981,39.2125151 36.4005981,41.4658849 C36.4005981,43.7185973 37.3658019,44.6042959 39.0691029,44.6042959 C40.7717437,44.6042959 41.7376078,43.7185973 41.7376078,41.4658849" id="Fill-17" fill="#FEFEFE"></path>
                        </g>
                        <polygon id="Fill-20" fill="#FEFEFE" points="52 44.3821817 55.7537855 44.3821817 55.7537855 32.6427242 52 32.6427242 52 30 59.2468915 30 59.2468915 44.3821817 63 44.3821817 63 47 52 47"></polygon>
                        <path d="M69,44.3821817 L72.9359227,44.3821817 L72.9359227,38.0331815 L69,38.0331815 L69,35.4160364 L76.4290287,35.4160364 L76.4290287,44.3821817 L80,44.3821817 L80,47 L69,47 L69,44.3821817 Z M72.6231072,33.575688 L76.7418441,33.575688 L76.7418441,30 L72.6231072,30 L72.6231072,33.575688 Z" id="Fill-21" fill="#FEFEFE"></path>
                        <g id="Group-28" transform="translate(86.000000, 30.000000)" fill="#FEFEFE">
                            <path d="M0.380875676,11.5032667 C0.380875676,7.11393333 2.80306486,5.3946 5.40271351,5.3946 C7.05944324,5.3946 8.07917297,6.11326667 8.58903784,6.6006 L8.58903784,0.287266667 L12.0051324,0.287266667 L12.0051324,17.1239333 L8.97176757,17.1239333 L8.97176757,15.5839333 C8.4619027,16.2512667 7.39118649,17.3799333 5.22459189,17.3799333 C2.59911892,17.3799333 0.380875676,15.6859333 0.380875676,11.5032667 M3.92476757,11.3752667 C3.92476757,13.3506 4.6889027,14.5059333 6.37145676,14.5059333 C7.51898378,14.5059333 8.25795676,13.9666 8.58903784,13.6586 L8.58903784,9.01393333 C8.35992973,8.7826 7.72226757,8.24326667 6.44826757,8.24326667 C4.71472703,8.24326667 3.92476757,9.37326667 3.92476757,11.3752667" id="Fill-22"></path>
                            <path d="M18.3491095,14.0696667 C18.3491095,11.4516667 20.7454743,10.7076667 23.2179878,10.7076667 C24.5178122,10.7076667 25.6653392,10.913 26.2255284,11.0663333 L26.2255284,10.1943333 C26.2255284,8.96233333 25.9454338,8.03833333 24.1099203,8.03833333 C22.8100959,8.03833333 21.9181635,8.50033333 21.9181635,9.681 L18.731177,9.681 C18.731177,6.65233333 21.1275419,5.39433333 24.3138662,5.39433333 C27.2459203,5.39433333 29.6164608,6.47233333 29.6164608,9.91166667 L29.6164608,14.1976667 C29.6164608,14.6343333 29.7945824,14.7623333 30.2282986,14.7623333 C30.5083932,14.7623333 30.8652986,14.711 31.1202311,14.6603333 L31.1202311,16.867 C30.6103662,17.1236667 29.641623,17.3803333 28.7496905,17.3803333 C27.2459203,17.3803333 26.7612176,16.6616667 26.7612176,15.7376667 L26.7612176,15.5063333 C26.1752041,16.2516667 24.9005419,17.3803333 22.4783527,17.3803333 C20.2356095,17.3803333 18.3491095,16.3796667 18.3491095,14.0696667 M26.2255284,14.1976667 L26.2255284,12.915 C25.6395149,12.8116667 24.7985689,12.7603333 24.0847581,12.7603333 C22.5551635,12.7603333 21.7652041,12.9916667 21.7652041,13.9416667 C21.7652041,14.7623333 22.3763797,15.0963333 23.2179878,15.0963333 C24.8495554,15.0963333 25.7924743,14.531 26.2255284,14.1976667" id="Fill-24"></path>
                            <path d="M36.9291149,14.5312667 L39.6055743,14.5312667 L39.6055743,8.24326667 L36.9291149,8.24326667 L36.9291149,5.65126667 L42.6389392,5.65126667 L42.6389392,8.1406 C43.2004527,6.85726667 44.1943581,5.3946 46.4119392,5.3946 C47.5084797,5.3946 48.2984392,5.75393333 48.6553446,6.0366 L48.6553446,9.42393333 C48.0435068,9.03926667 47.3045338,8.67993333 46.2338176,8.67993333 C45.4180338,8.67993333 44.2195203,8.88526667 43.0216689,10.1426 L43.0216689,14.5312667 L47.6866014,14.5312667 L47.6866014,17.1239333 L36.9291149,17.1239333 L36.9291149,14.5312667 Z" id="Fill-26"></path>
                        </g>
                        <path d="M140,44.3821817 L143.935923,44.3821817 L143.935923,38.0331815 L140,38.0331815 L140,35.4160364 L147.429029,35.4160364 L147.429029,44.3821817 L151,44.3821817 L151,47 L140,47 L140,44.3821817 Z M143.623107,33.575688 L147.741844,33.575688 L147.741844,30 L143.623107,30 L143.623107,33.575688 Z" id="Fill-29" fill="#FEFEFE"></path>
                        <g id="Group-34" transform="translate(157.000000, 30.000000)" fill="#FEFEFE">
                            <path d="M4.02324898,12.0416667 L4.02324898,8.24366667 L0.528718367,8.24366667 L0.528718367,5.651 L4.02324898,5.651 L4.02324898,0.287 L7.39239184,0.287 L7.39239184,5.651 L12.9486367,5.651 L12.9486367,8.24366667 L7.39239184,8.24366667 L7.39239184,11.9136667 C7.39239184,13.7616667 7.74439184,14.531 9.42863673,14.531 C10.5852082,14.531 11.6660245,14.1716667 12.4203102,13.8636667 L12.4203102,16.559 C11.5909224,16.9443333 10.2834939,17.3803333 8.57377959,17.3803333 C5.60692245,17.3803333 4.02324898,16.0456667 4.02324898,12.0416667" id="Fill-30"></path>
                            <path d="M18.4757551,19.2024667 C20.9652245,19.2024667 22.1211429,18.4584667 22.8506122,16.8411333 L17.8220408,5.65113333 L21.6692245,5.65113333 L23.5794286,10.3991333 L24.7111837,13.7618 L25.8422857,10.3991333 L27.7531429,5.65113333 L31.4488163,5.65113333 L26.7977143,16.1738 C24.9116735,20.4091333 23.2783673,21.9998 18.4757551,21.9998 L18.4757551,19.2024667 Z" id="Fill-32"></path>
                        </g>
                    </g>
                    <g id="Group-7" transform="translate(0.000000, 97.000000)" fill="#FEFEFE">
                        <path d="M101.611118,91.5593461 C99.7142857,91.5593461 99.135035,90.771855 99.135035,90.4570007 C99.135035,90.0895522 100.083094,89.1968728 101.50554,89.1968728 C102.559177,89.1968728 103.349583,89.5643213 103.929547,89.8798863 L104.456009,85.8898365 C103.876759,85.2601279 102.770333,84.6304193 101.558329,84.6304193 C98.7134375,84.6304193 96.5533745,87.2025586 96.5533745,89.7221038 C96.5533745,90.5621891 96.8693942,91.3496802 97.185414,91.8216063 C96.7638165,91.8742004 96.1845658,91.9267946 95.5518129,91.9267946 L95.5518129,96.2309879 C100.399114,96.2309879 104.192778,95.496091 106.036822,95.1286425 L106.036822,90.8244492 C104.824818,91.1918977 103.086352,91.5593461 101.611118,91.5593461 Z M97.3958561,98.9609097 C98.2390511,104 98.7662263,108.882018 98.7662263,110.246624 C98.7662263,110.824449 97.9230313,111.61194 93.6549808,111.61194 L91.1788979,111.61194 L89.8620299,120.010661 L89.9668943,120.010661 C94.8141956,120.010661 96.8166054,120.90334 96.8166054,121.795309 C96.8166054,122.635394 92.3381127,125.260128 86.5427521,125.260128 C78.9554237,125.260128 77.6913445,121.165601 77.6913445,118.06823 C77.6913445,114.131485 79.8514076,109.302061 79.8514076,109.302061 L73.2649274,109.302061 C73.2649274,109.302061 71,114.078891 71,119.643213 C71,126.939588 74.5825088,133.658849 85.2251707,133.658849 C91.9693041,133.658849 96.7638165,130.928927 99.1878239,128.094527 C101.716696,125.15494 101.927138,121.900498 101.927138,119.48543 C101.927138,119.013504 101.82156,118.488273 101.558329,118.015636 L102.032715,117.648188 C103.982336,116.021322 105.984033,112.976546 105.984033,108.51457 C105.984033,105.365316 105.299204,100.850746 104.667165,97.6488984 L97.3958561,98.9609097 Z M90.5996472,135.810945 C90.5996472,135.810945 88.755604,137.280739 87.2275805,139.117982 C85.6467682,137.280739 83.802725,135.810945 83.802725,135.810945 C83.802725,135.810945 81.379431,137.700782 79.7986187,139.958067 C81.379431,142.110163 83.802725,144 83.802725,144 C83.802725,144 85.6467682,142.530206 87.2275805,140.745558 C88.755604,142.530206 90.5996472,144 90.5996472,144 C90.5996472,144 92.9701523,142.110163 94.7093312,139.958067 C92.9701523,137.700782 90.5996472,135.810945 90.5996472,135.810945 Z M110.145792,120.010661 L117.627543,120.010661 L117.627543,84 L110.145792,84.4200426 L110.145792,120.010661 Z M120.998896,118.855721 C121.473283,119.117982 124.370963,120.272921 128.691802,120.272921 C132.484753,120.272921 135.330358,119.590618 137.174401,118.488273 C140.019293,116.703625 141.705683,113.2914 141.705683,110.194741 C141.705683,104.682303 138.175249,98.1734186 135.22478,94.7085999 L127.74303,96.4939588 C131.69506,102.267946 134.698318,108.357498 134.698318,110.614072 C134.698318,111.191898 132.695909,111.8742 128.744591,111.8742 C123.950079,111.8742 121.210052,110.929638 120.682876,110.771855 L120.998896,118.855721 Z M145.34098,120.010661 L152.822731,120.010661 L152.822731,84 L145.34098,84.4200426 L145.34098,120.010661 Z M215.941799,94.6041222 C215.941799,94.6041222 218.523459,92.503909 220.420291,90.1947406 C218.523459,87.7796731 215.941799,85.6801706 215.941799,85.6801706 C215.941799,85.6801706 213.307349,87.7796731 211.621673,90.1947406 C213.307349,92.503909 215.941799,94.6041222 215.941799,94.6041222 Z M216.468974,96.5458422 C209.250454,96.5458422 202.348668,104.734897 198.502215,110.509595 C197.922964,110.351812 197.448578,110.194741 197.02698,109.984364 C196.658171,107.307036 196.130996,104.682303 195.762188,103.055437 L188.491592,104.367448 C188.544381,104.682303 190.704444,116.283582 190.704444,118.540867 C190.704444,119.590618 187.490744,121.847903 182.485076,121.847903 C175.740943,121.847903 175.056114,117.228856 175.056114,114.498934 C175.056114,110.562189 177.268966,106.204691 177.268966,106.204691 L170.630411,106.204691 C170.630411,106.204691 168.36477,110.562189 168.36477,116.073916 C168.36477,122.635394 171.104797,130.19403 181.853037,130.19403 C187.174724,130.19403 191.073253,128.409382 193.180527,126.519545 C195.710112,124.367448 196.763749,121.427861 197.185347,118.646055 C199.767007,119.433547 203.243938,120.010661 207.300833,120.010661 L208.038451,120.010661 C218.997846,120.010661 227.164425,117.280739 227.164425,108.724947 C227.164425,103.055437 222.896374,96.5458422 216.468974,96.5458422 Z M208.934434,111.8742 L208.196817,111.8742 C206.352774,111.8742 204.350364,111.716418 202.506321,111.454158 C205.45679,108.304904 209.724841,104.945274 214.203333,104.945274 C218.576248,104.945274 220.999542,108.829424 220.999542,109.722104 C220.999542,110.877043 216.363396,111.8742 208.934434,111.8742 Z M248.291382,111.61194 C244.07612,111.61194 242.864117,110.089552 242.074424,107.727079 C241.49446,105.102345 240.809631,101.795309 240.809631,101.795309 L233.486247,103.108031 C234.803115,109.144279 235.856752,112.241649 235.856752,113.343994 C235.856752,117.911158 233.38067,121.953092 228.427791,121.953092 C226.267728,121.953092 224.898071,121.533049 224.529262,121.427861 L225.055724,129.407249 C225.055724,129.407249 226.636536,130.351812 229.270986,130.351812 C237.331987,130.351812 240.915209,123.579957 242.126499,118.173419 C242.126499,118.06823 242.179288,117.963753 242.179288,117.858564 C243.707312,119.275764 245.656933,120.010661 248.291382,120.010661 L249.134577,119.852878 L249.134577,111.769012 L248.291382,111.61194 Z M271.894422,108.357498 C269.839937,108.987207 265.361444,110.351812 261.778936,110.351812 C257.616463,110.351812 256.35167,108.041933 256.35167,107.35963 C256.35167,106.047619 258.617311,104.262971 261.989378,104.262971 C264.518249,104.262971 266.415081,105.15494 267.363854,105.680171 L268.101471,98.3312011 C267.152699,97.4385217 264.939847,95.8109453 261.831724,95.8109453 C255.4564,95.8109453 250.872329,101.165601 250.925118,107.254442 C250.925118,108.77683 251.293927,110.246624 252.031544,111.61194 L248.290669,111.61194 L247.447474,111.769012 L247.447474,119.852878 L248.290669,120.010661 L250.925118,120.010661 C258.828466,120.010661 267.311065,118.803127 272,116.545842 L271.894422,108.357498 Z" id="Fill-1"></path>
                        <path d="M0,75.4695115 L8.79477757,75.4695115 L8.79477757,66.6155932 L12.3236696,66.6155932 C19.3807406,66.6155932 26.0691639,63.6997009 26.0691639,55.4817946 C26.0691639,47.2638883 19.3807406,44.3472782 12.3236696,44.3472782 L0,44.3472782 L0,75.4695115 Z M8.79477757,51.5580459 L12.3236696,51.5580459 C15.3256165,51.5580459 17.1160889,52.5127817 17.1160889,55.4817946 C17.1160889,58.4508076 15.3256165,59.4048255 12.3236696,59.4048255 L8.79477757,59.4048255 L8.79477757,51.5580459 Z M44.1849511,76 C50.451961,76 55.8240912,74.0912463 56.7189709,68.0469791 L48.6087228,68.0469791 C48.1345435,69.4783649 46.2392526,69.9026122 44.1321853,69.9026122 C40.7615907,69.9026122 38.5497049,68.8423529 38.3921205,64.7068395 L56.9300341,64.7068395 L56.9300341,63.4340977 C56.9300341,54.3152941 51.1364905,50.9220339 43.9218351,50.9220339 C37.0751143,50.9220339 30.0708091,53.9972881 30.0708091,63.6997009 C30.0708091,72.3942572 35.6532895,76 44.1849511,76 Z M38.3921205,60.25332 C38.9711183,57.4429511 41.0774725,56.5951745 43.6587191,56.5951745 C46.2392526,56.5951745 48.3456068,57.4429511 48.9246046,60.25332 L38.3921205,60.25332 Z M62.4062699,75.4695115 L85.6317843,75.4695115 L85.6317843,69.2134796 L76.20453,69.2134796 L76.20453,61.525344 C77.5208232,60.25332 79.5751246,58.9274576 82.2611897,58.9274576 C84.5258414,58.9274576 86.263548,59.7228315 88.0012546,60.889332 L88.0012546,52.5651844 C86.9480774,51.6642871 85.1576051,50.9220339 82.998485,50.9220339 C78.6795319,50.9220339 76.6787093,53.6785643 75.3617031,56.5420538 L75.3617031,51.4518046 L62.4062699,51.4518046 L62.4062699,57.7085543 L67.7256343,57.7085543 L67.7256343,69.2134796 L62.4062699,69.2134796 L62.4062699,75.4695115 Z M94.1627328,75.4695115 L119.178007,75.4695115 L119.178007,69.2134796 L110.594292,69.2134796 L110.594292,58.874337 L119.178007,58.874337 L119.178007,52.6183051 L110.594292,52.6183051 L110.594292,52.5651844 C110.594292,47.2638883 115.544296,46.3091525 119.178007,46.3091525 L119.178007,40 C111.331588,40 102.167449,42.4392423 102.167449,52.5651844 L102.167449,52.6183051 L94.1627328,52.6183051 L94.1627328,58.874337 L102.167449,58.874337 L102.167449,69.2134796 L94.1627328,69.2134796 L94.1627328,75.4695115 Z M138.084568,76 C144.720225,76 151.934881,73.0833898 151.934881,63.2754536 C151.934881,53.7316849 145.088873,50.9220339 138.505268,50.9220339 C131.869611,50.9220339 124.654955,53.7848056 124.654955,63.5934596 C124.654955,73.1365105 131.500963,76 138.084568,76 Z M138.294918,69.0541176 C135.18744,69.0541176 133.449733,67.6227318 133.449733,63.4340977 C133.449733,59.2454636 135.18744,57.8671984 138.294918,57.8671984 C141.402397,57.8671984 143.140103,59.2454636 143.140103,63.4340977 C143.140103,67.6227318 141.402397,69.0541176 138.294918,69.0541176 Z M157.200766,75.4695115 L180.426281,75.4695115 L180.426281,69.2134796 L170.999027,69.2134796 L170.999027,61.525344 C172.316033,60.25332 174.369621,58.9274576 177.055686,58.9274576 C179.320338,58.9274576 181.058044,59.7228315 182.795751,60.889332 L182.795751,52.5651844 C181.742574,51.6642871 179.952102,50.9220339 177.792982,50.9220339 C173.474028,50.9220339 171.473206,53.6785643 170.1562,56.5420538 L170.1562,51.4518046 L157.200766,51.4518046 L157.200766,57.7085543 L162.520131,57.7085543 L162.520131,69.2134796 L157.200766,69.2134796 L157.200766,75.4695115 Z M210.181208,75.4695115 L217.238279,75.4695115 L217.238279,59.2454636 C217.238279,55.428674 216.55375,50.9220339 211.813383,50.9220339 C208.285204,50.9220339 206.59955,53.413679 205.967787,54.3684148 C205.283257,52.4065404 203.808667,50.9220339 201.175367,50.9220339 C197.594422,50.9220339 195.856003,53.4667996 195.118708,54.7395414 L195.118708,51.4518046 L188.904463,51.4518046 L188.904463,75.4695115 L195.961534,75.4695115 L195.961534,58.556331 C196.435714,57.9734397 197.225775,57.2843071 198.17342,57.2843071 C199.121779,57.2843071 199.542479,58.079681 199.542479,59.7228315 L199.542479,75.4695115 L206.59955,75.4695115 L206.59955,58.556331 C207.07373,57.9734397 207.863791,57.2843071 208.811436,57.2843071 C209.759795,57.2843071 210.181208,58.079681 210.181208,59.7228315 L210.181208,75.4695115 Z M231.298942,76 C236.775891,76 239.356424,73.1896311 240.199251,72.1293719 L240.199251,72.5004985 C240.199251,74.5678963 241.463492,76 244.834086,76 C247.256322,76 249.205092,75.2577468 250.047206,74.8334995 L250.047206,69.5314855 C249.78409,69.5846062 248.994029,69.6901296 248.520563,69.6901296 C247.62497,69.6901296 247.309088,69.319003 247.309088,68.4712263 L247.309088,60.4650847 C247.309088,52.8839083 241.884192,50.9220339 235.669948,50.9220339 C227.981113,50.9220339 223.24146,53.9441675 223.24146,60.0408375 L231.193411,60.0408375 C231.193411,58.0265603 232.826299,57.3898305 235.038184,57.3898305 C238.303247,57.3898305 238.882958,58.7688136 238.882958,60.889332 L238.882958,63.0098504 C237.829068,62.4269591 235.354066,61.9495912 232.773533,61.9495912 C227.296584,61.9495912 222.398633,63.5934596 222.398633,68.9478764 C222.398633,73.9318843 226.612054,76 231.298942,76 Z M233.721891,70.697986 C231.930706,70.697986 230.824763,70.1143769 230.824763,68.5767498 C230.824763,66.9867198 232.352119,66.5093519 234.827834,66.5093519 C236.512775,66.5093519 238.092897,66.6687139 238.882958,66.8273579 L238.882958,69.000997 C238.356013,69.4783649 236.407243,70.697986 233.721891,70.697986 Z M256.4718,75.4695115 L264.951409,75.4695115 L264.951409,59.4579462 C265.846289,58.6625723 266.899466,58.1320837 268.637886,58.1320837 C270.849771,58.1320837 271.744651,59.1930608 271.744651,62.0027119 L271.744651,75.4695115 L280.223547,75.4695115 L280.223547,60.571326 C280.223547,53.3605583 276.168423,50.9220339 271.744651,50.9220339 C267.583995,50.9220339 265.267291,53.0425523 264.108582,54.6864207 L264.108582,51.4518046 L256.4718,51.4518046 L256.4718,75.4695115 Z M299.867403,76 C306.503061,76 313.085953,73.2958724 313.560132,64.9186042 L304.870173,64.9186042 C304.659823,68.1000997 302.921403,69.2134796 300.024988,69.2134796 C296.759925,69.2134796 294.969452,67.7820937 294.969452,63.4340977 C294.969452,59.0868195 296.759925,57.7085543 300.024988,57.7085543 C302.816585,57.7085543 304.659823,58.7156929 304.870173,62.0027119 L313.560132,62.0027119 C313.085953,53.6261615 306.766177,50.9220339 299.920169,50.9220339 C293.073448,50.9220339 286.332259,53.6261615 286.332259,63.4340977 C286.332259,73.2427517 293.126214,76 299.867403,76 Z M332.25563,76 C338.52264,76 343.894057,74.0912463 344.78965,68.0469791 L336.679402,68.0469791 C336.205222,69.4783649 334.309218,69.9026122 332.202864,69.9026122 C328.83227,69.9026122 326.620384,68.8423529 326.462086,64.7068395 L345,64.7068395 L345,63.4340977 C345,54.3152941 339.207169,50.9220339 331.991801,50.9220339 C325.145793,50.9220339 318.141488,53.9972881 318.141488,63.6997009 C318.141488,72.3942572 323.723968,76 332.25563,76 Z M326.462086,60.25332 C327.041797,57.4429511 329.148151,56.5951745 331.728685,56.5951745 C334.309218,56.5951745 336.415573,57.4429511 336.995284,60.25332 L326.462086,60.25332 Z" id="Fill-3"></path>
                        <path d="M35.1126674,17.2255151 C35.8423461,17.9452441 36.4260891,17.9452441 37.1557679,17.2255151 L38.8097064,15.6421112 C39.5393852,14.9223822 39.5393852,14.3465989 38.8097064,13.6268699 L37.1557679,11.9954841 C36.4260891,11.275755 35.8423461,11.275755 35.1126674,11.9954841 L33.5073741,13.6268699 C32.7776953,14.3465989 32.7776953,14.9223822 33.5073741,15.6421112 L35.1126674,17.2255151 Z M36.1342176,29.1250353 C45.32817,29.1250353 49.2684353,23.2232571 49.2684353,14.5385267 C49.2684353,5.51792266 45.2795247,0 36.1342176,0 C26.9402653,0 23,5.85379622 23,14.5385267 C23,23.5591307 26.9889105,29.1250353 36.1342176,29.1250353 Z M36.1342176,22.4075642 C32.0480166,22.4075642 31.2696926,19.9125035 31.2696926,14.5385267 C31.2696926,9.16454982 32.0480166,6.71747107 36.1342176,6.71747107 C40.2204187,6.71747107 40.9987427,9.16454982 40.9987427,14.5385267 C40.9987427,19.9125035 40.2204187,22.4075642 36.1342176,22.4075642 Z M58.802189,28.6452159 L68.9204011,28.6452159 L68.9204011,20.1044313 L58.802189,20.1044313 L58.802189,28.6452159 Z M58.802189,15.4501835 L68.9204011,15.4501835 L68.9204011,6.90939881 L58.802189,6.90939881 L58.802189,15.4501835 Z M84.3895907,28.6452159 L92.6106381,28.6452159 C92.6106381,19.3847022 94.8969649,12.8591589 102.485624,6.0937059 L102.485624,0.527801298 L78.1143534,0.527801298 L78.1143534,10.508044 L84.9246885,10.508044 L84.9246885,6.42957945 L93.1457358,6.42957945 C87.0164343,12.2353937 84.3895907,17.8012983 84.3895907,28.6452159 Z M147.696377,3.57747671 L126.747443,3.57747671 C125.569941,3.57747671 123.312945,2.12602314 123.312945,2.12602314 L120.418552,9.53005927 C120.418552,9.53005927 122.626188,10.9335309 124.147068,11.3209145 L125.716593,29.0805814 C142.741715,27.5324584 147.696377,16.9340954 147.696377,3.57747671 Z M139.257856,11.417584 C138.767112,14.3691787 136.314103,18.2408975 132.732955,19.6443692 L131.947477,11.417584 L139.257856,11.417584 Z M167.860548,26.7097093 L167.860548,7.01383009 L158.342533,2.31936212 L154.025267,8.85266723 L159.912773,11.7075924 L159.912773,19.9830652 L151.376247,21.1924922 L152.651754,28.7418854 L167.860548,26.7097093 Z M200.045105,22.5959639 L200.045105,8.90064917 C200.045105,5.5616709 197.199357,3.57747671 194.157598,3.57747671 L185.523067,3.57747671 L183.216709,7.9812306 C182.579313,6.09441152 181.549179,4.15819927 179.929578,1.93268417 L173.748054,6.57775896 C177.673297,13.0143946 176.985825,20.8537962 173.25731,28.6452159 L181.647185,28.6452159 C184.541577,22.4506068 184.639583,15.8213378 184.247559,12.5303415 C184.541577,11.8042619 184.737589,11.417584 185.91509,11.417584 L190.429083,11.417584 C190.968473,11.417584 192.097329,11.5622354 192.097329,12.481654 L192.097329,19.4990121 C192.097329,19.4990121 193.323476,19.1603161 185.719078,21.1924922 L187.239958,28.6452159 L197.298079,25.8869602 C198.916964,25.4515947 200.045105,24.0481231 200.045105,22.5959639 Z M224.870636,28.6452159 L224.870636,6.81978549 C224.870636,4.93296641 222.907657,3.57747671 221.484783,3.57747671 L210.936633,3.57747671 C210.10251,3.57747671 208.778358,2.85210274 207.551496,2.22269263 L204.705749,9.57874682 C204.705749,9.57874682 208.042241,11.417584 209.367108,11.417584 L216.382755,11.417584 C216.922145,11.417584 216.971506,11.417584 216.971506,12.1429579 L216.971506,28.6452159 L224.870636,28.6452159 Z M242.875817,28.6452159 L242.875817,7.64253458 L233.995197,2.27138019 L230.266682,8.85266723 L234.927326,11.8529495 L234.927326,28.6452159 L242.875817,28.6452159 Z M269.0255,23.8540785 L269.0255,11.8042619 C269.0255,9.86875529 268.926779,8.02991815 266.179753,7.06181202 L258.96738,3.48080723 C256.90711,2.46471916 255.091498,2.07733559 253.668624,4.49689529 L249.744097,11.1755574 C247.291089,15.3372848 250.087475,17.7081569 253.374606,19.3056732 C253.374606,19.3056732 254.404741,19.7410387 255.582242,20.3697432 L258.918734,14.0304826 L257.4465,13.2564211 L258.476635,11.417584 C261.469748,12.965707 261.028364,12.7236805 261.028364,12.772368 L261.028364,21.3378493 C258.525995,21.8698843 248.02649,23.2733559 248.02649,23.370731 L248.958619,30 L264.904246,28.2098504 C267.357255,27.9191363 269.0255,25.9349421 269.0255,23.8540785 Z M293.850316,28.6452159 L293.850316,6.81978549 C293.850316,4.93296641 291.888053,3.57747671 290.465179,3.57747671 L279.917029,3.57747671 C279.082906,3.57747671 277.758038,2.85210274 276.531176,2.22269263 L273.686145,9.57874682 C273.686145,9.57874682 277.021921,11.417584 278.346789,11.417584 L285.362436,11.417584 C285.902541,11.417584 285.951186,11.417584 285.951186,12.1429579 L285.951186,28.6452159 L293.850316,28.6452159 Z M320,23.8540785 L320,11.8042619 C320,9.86875529 319.901279,8.02991815 317.154253,7.06181202 L309.941879,3.48080723 C307.88161,2.46471916 306.065997,2.07733559 304.643124,4.49689529 L300.718597,11.1755574 C298.265588,15.3372848 301.061975,17.7081569 304.349106,19.3056732 C304.349106,19.3056732 305.379241,19.7410387 306.556742,20.3697432 L309.893234,14.0304826 L308.421,13.2564211 L309.451134,11.417584 C312.444248,12.965707 312.002864,12.7236805 312.002864,12.772368 L312.002864,21.3378493 C309.500495,21.8698843 299.00099,23.2733559 299.00099,23.370731 L299.933119,30 L315.878746,28.2098504 C318.331754,27.9191363 320,25.9349421 320,23.8540785 Z" id="Fill-5"></path>
                    </g>
                </g>
            </g>
        </g>
    </g>
</svg>