<?xml version="1.0" encoding="UTF-8"?>
<svg width="188px" height="193px" viewBox="0 0 188 193" version="1.1" xmlns="http://www.w3.org/2000/svg" xmlns:xlink="http://www.w3.org/1999/xlink">
    <!-- Generator: Sketch 46.2 (44496) - http://www.bohemiancoding.com/sketch -->
    <title>autumn cult_title</title>
    <desc>Created with Sketch.</desc>
    <defs>
        <polygon id="path-1" points="0.265393659 9.12759966 74.0109401 9.12759966 74.0109401 0.104156054 0.265393659 0.104156054 0.265393659 9.12759966"></polygon>
        <polygon id="path-3" points="10.7117869 0.278036828 10.7117869 23.5949973 0.199673782 23.5949973 0.199673782 0.278036828 10.7117869 0.278036828"></polygon>
    </defs>
    <g id="Page-1" stroke="none" stroke-width="1" fill="none" fill-rule="evenodd">
        <g id="Desktop-Landscape" transform="translate(-871.000000, -339.000000)">
            <g id="Group-2" transform="translate(580.000000, 2.000000)">
                <g id="autumn-cult_title" transform="translate(291.836857, 337.454735)">
                    <path d="M11.3871881,12.9385247 C11.3871881,13.0627614 11.4575843,13.151502 11.5983767,13.151502 L18.0220296,13.151502 C18.162822,13.151502 18.2684163,13.0982576 18.3564115,12.9740209 L19.957925,10.6312703 C20.0283212,10.5247816 20.0459202,10.4360411 20.0459202,10.2940562 L20.0459202,9.92134587 C20.0459202,9.7971091 19.975524,9.70836855 19.8347316,9.70836855 L19.3419582,9.70836855 C19.2011659,9.70836855 19.1131706,9.76161288 18.9899773,9.86810154 C18.2860153,10.4715373 17.8812372,10.7910033 16.9308885,10.7910033 L13.5694702,10.7910033 C14.0974416,10.1165751 15.1005874,9.17592523 17.0188838,7.88031317 C18.7611896,6.70893788 19.957925,5.41332582 19.957925,3.49652989 C19.957925,1.34900852 18.3036144,0.000152126661 16.1917285,0.000152126661 C14.1502388,0.000152126661 12.443131,1.63297829 11.5455795,3.28355256 C11.4575843,3.44328556 11.5103814,3.58527044 11.6335748,3.6917591 L12.0383529,3.99347698 C12.1791453,4.09996564 12.3727348,4.06446942 12.4783291,3.90473643 C13.147093,2.94633846 13.9214512,1.9879405 15.3997713,2.04118483 C16.4909123,2.07668105 17.3708648,2.89309413 17.4060629,4.0289732 C17.441261,4.98737117 16.9308885,5.82153236 16.0861342,6.63794544 C13.9214512,8.74997058 12.425532,10.3295524 11.4927824,12.0866153 C11.4399852,12.193104 11.3871881,12.3173408 11.3871881,12.4770738 L11.3871881,12.9385247 Z M22.4569899,5.85702858 C22.4569899,6.03450968 22.492188,6.14099835 22.5977823,6.26523512 L22.8969661,6.53145678 C23.0025604,6.63794544 23.1433528,6.67344166 23.2841452,6.60244922 C23.7945176,6.35397567 24.4280834,6.17649457 25.0440501,6.17649457 C26.5223702,6.17649457 27.7367046,7.36561797 27.7367046,9.15817712 C27.7367046,10.8619957 26.6631626,12.1753559 25.1672435,12.1753559 C23.8121167,12.1753559 23.4073386,10.9862325 23.8121167,10.0278345 C23.8649138,9.90359776 23.8825129,9.77936099 23.8825129,9.61962799 L23.8825129,9.21142145 C23.8825129,9.05168846 23.7065224,8.98069602 23.5833291,9.05168846 L21.6826318,10.0278345 C21.3306508,10.2230638 21.1898584,10.6490184 21.2602546,11.0749731 C21.401047,12.0156229 22.474589,13.4354717 24.8152625,13.4354717 C27.7719027,13.4354717 29.9013876,10.8442476 29.9013876,8.39500837 C29.9013876,5.51981448 28.0534875,4.01122509 25.5368235,4.01122509 C24.9560549,4.01122509 24.1288996,4.18870619 23.6185272,4.43717974 L23.7065224,2.53813192 C24.4808806,2.69786492 26.9799455,3.47878178 28.8278457,0.798817097 C28.9158409,0.656832214 28.8982419,0.53259544 28.8278457,0.426106778 L28.581459,0.106640789 C28.4758647,-0.0353440943 28.2998742,0.000152126661 28.1766808,0.0711445685 C27.4199217,0.461602999 26.6279645,0.692328435 25.5896206,0.692328435 C24.7800644,0.692328435 23.9881072,0.355114336 23.3897395,0.355114336 L22.8793671,0.355114336 C22.7385747,0.355114336 22.6505795,0.461602999 22.6505795,0.585839772 L22.4569899,5.85702858 Z M42.0794267,9.47764311 C42.3434125,9.47764311 42.519403,9.33565823 42.5897991,9.14042901 L42.9241811,8.16428294 C43.0121763,7.9335575 42.8713839,7.7560764 42.6425963,7.7560764 L32.3999498,7.7560764 C32.135964,7.7560764 31.9599736,7.89806128 31.8895774,8.0932905 L31.5551954,9.06943657 C31.4672002,9.30016201 31.6079926,9.47764311 31.8367802,9.47764311 L42.0794267,9.47764311 Z M44.1913126,12.9385247 C44.1913126,13.0627614 44.2617088,13.151502 44.4025012,13.151502 L50.8261541,13.151502 C50.9669465,13.151502 51.0725408,13.0982576 51.160536,12.9740209 L52.7620495,10.6312703 C52.8324457,10.5247816 52.8500447,10.4360411 52.8500447,10.2940562 L52.8500447,9.92134587 C52.8500447,9.7971091 52.7796485,9.70836855 52.6388561,9.70836855 L52.1460828,9.70836855 C52.0052904,9.70836855 51.9172951,9.76161288 51.7941018,9.86810154 C51.0901398,10.4715373 50.6853617,10.7910033 49.735013,10.7910033 L46.3735947,10.7910033 C46.9015662,10.1165751 47.9047119,9.17592523 49.8230083,7.88031317 C51.5653141,6.70893788 52.7620495,5.41332582 52.7620495,3.49652989 C52.7620495,1.34900852 51.1077389,0.000152126661 48.995853,0.000152126661 C46.9543633,0.000152126661 45.2472555,1.63297829 44.349704,3.28355256 C44.2617088,3.44328556 44.3145059,3.58527044 44.4376993,3.6917591 L44.8424774,3.99347698 C44.9832698,4.09996564 45.1768594,4.06446942 45.2824536,3.90473643 C45.9512175,2.94633846 46.7255757,1.9879405 48.2038958,2.04118483 C49.2950368,2.07668105 50.1749893,2.89309413 50.2101874,4.0289732 C50.2453855,4.98737117 49.735013,5.82153236 48.8902587,6.63794544 C46.7255757,8.74997058 45.2296565,10.3295524 44.2969069,12.0866153 C44.2441098,12.193104 44.1913126,12.3173408 44.1913126,12.4770738 L44.1913126,12.9385247 Z M61.2623901,10.1165751 C61.2623901,11.4121872 60.1712491,12.2108521 58.7281271,12.2108521 C57.1618117,12.2108521 55.824284,11.1814617 55.824284,9.69062044 C55.824284,8.21752727 56.7922317,7.29462552 57.988967,6.67344166 C59.1505043,7.40111419 61.2623901,8.14653483 61.2623901,10.1165751 L61.2623901,10.1165751 Z M59.5728814,4.7034014 C58.1473585,3.86924021 57.1442127,3.39004122 57.1442127,2.34290271 C57.1442127,1.59748207 57.8305756,1.06503875 58.6753299,1.06503875 C59.766471,1.06503875 60.7168196,1.72171884 60.7168196,2.96408657 C60.7168196,3.65626288 60.2240462,4.27744675 59.5728814,4.7034014 L59.5728814,4.7034014 Z M56.9858212,6.05225779 C55.8946802,6.53145678 54.1875724,7.70283207 54.1875724,9.72611666 C54.1875724,11.9978748 56.176265,13.4532199 58.692929,13.4532199 C61.2623901,13.4532199 63.5502665,11.8203937 63.5502665,9.31791012 C63.5502665,7.34786986 62.4063283,6.33622756 60.4352348,5.25359282 C61.227192,4.91637872 62.1599416,3.97572887 62.1599416,2.76885736 C62.1599416,1.08278686 60.5936263,0.000152126661 58.710528,0.000152126661 C56.9858212,0.000152126661 55.0323268,1.11828309 55.0323268,3.10607146 C55.0323268,4.41943163 55.9298783,5.36008148 56.9858212,6.05225779 L56.9858212,6.05225779 Z M66.7004963,10.1165751 C66.3661143,10.418293 65.9085391,10.8797438 65.6269543,11.1992098 C65.3805676,11.4654315 65.3981667,11.8203937 65.6445533,12.0866153 C65.9261381,12.4060813 66.4013124,12.8675322 66.7004963,13.151502 C66.964482,13.3999755 67.316463,13.3999755 67.5804487,13.151502 C67.8972316,12.8675322 68.3548069,12.4238294 68.6539907,12.0866153 C68.9003774,11.8203937 68.8827784,11.4654315 68.6363917,11.2169579 C68.3372078,10.8974919 67.8972316,10.4537892 67.5628497,10.1343232 C67.316463,9.88584965 66.964482,9.86810154 66.7004963,10.1165751 L66.7004963,10.1165751 Z M71.0821566,2.04118483 C70.9589633,2.11217727 70.9061662,2.20091782 70.9413643,2.34290271 L71.0117605,2.68011681 C71.0469586,2.8398498 71.1525528,2.89309413 71.3109443,2.87534602 L72.0677034,2.80435358 C72.5780758,2.75110925 72.9300568,2.98183468 72.9300568,3.53202611 L72.9476558,10.8619957 C72.9476558,11.8203937 72.3316891,12.1576078 71.4165386,12.2995927 C71.2581471,12.3173408 71.1877509,12.4238294 71.20535,12.5658143 L71.2405481,12.9385247 C71.2581471,13.0627614 71.3461424,13.151502 71.4869348,13.151502 L76.5202628,13.151502 C76.6610552,13.151502 76.7490504,13.0627614 76.7666495,12.9385247 L76.8018476,12.5658143 C76.8194466,12.4238294 76.7490504,12.3173408 76.590659,12.2995927 C75.6755084,12.1576078 75.0771408,11.8203937 75.0771408,10.8619957 L75.0947398,0.585839772 C75.0947398,0.461602999 75.0243436,0.372862446 74.8835512,0.355114336 L73.8804054,0.355114336 C73.739613,0.355114336 73.6340188,0.390610557 73.5108254,0.479351109 C72.7012692,1.10053498 72.0853024,1.50874152 71.0821566,2.04118483 L71.0821566,2.04118483 Z M78.403361,6.76218221 C78.403361,10.4892854 80.3040583,13.5064642 83.067109,13.5064642 C85.8301597,13.5064642 87.730857,10.4892854 87.730857,6.76218221 C87.730857,3.03507901 85.8301597,0.000152126661 83.067109,0.000152126661 C80.3040583,0.000152126661 78.403361,3.03507901 78.403361,6.76218221 L78.403361,6.76218221 Z M80.0928697,7.57859529 C79.4241059,5.0406155 80.0752707,2.64462058 81.8703737,2.12992538 C83.6830757,1.6507264 85.3725844,3.42553745 86.0589473,5.94576913 C86.7277112,8.48374893 86.0765464,10.8619957 84.2814434,11.3766909 C82.4687414,11.8558899 80.7792326,10.098827 80.0928697,7.57859529 L80.0928697,7.57859529 Z M90.8986858,10.1165751 C90.5643039,10.418293 90.1067286,10.8797438 89.8251438,11.1992098 C89.5787571,11.4654315 89.5963562,11.8203937 89.8427429,12.0866153 C90.1243277,12.4060813 90.599502,12.8675322 90.8986858,13.151502 C91.1626716,13.3999755 91.5146525,13.3999755 91.7786383,13.151502 C92.0954212,12.8675322 92.5529964,12.4238294 92.8521803,12.0866153 C93.0985669,11.8203937 93.0809679,11.4654315 92.8345812,11.2169579 C92.5353974,10.8974919 92.0954212,10.4537892 91.7610392,10.1343232 C91.5146525,9.88584965 91.1626716,9.86810154 90.8986858,10.1165751 L90.8986858,10.1165751 Z M95.2803462,2.04118483 C95.1571529,2.11217727 95.1043557,2.20091782 95.1395538,2.34290271 L95.20995,2.68011681 C95.2451481,2.8398498 95.3507424,2.89309413 95.5091338,2.87534602 L96.2658929,2.80435358 C96.7762654,2.75110925 97.1282463,2.98183468 97.1282463,3.53202611 L97.1458454,10.8619957 C97.1458454,11.8203937 96.5298787,12.1576078 95.6147281,12.2995927 C95.4563367,12.3173408 95.3859405,12.4238294 95.4035395,12.5658143 L95.4387376,12.9385247 C95.4563367,13.0627614 95.5443319,13.151502 95.6851243,13.151502 L100.718452,13.151502 C100.859245,13.151502 100.94724,13.0627614 100.964839,12.9385247 L101.000037,12.5658143 C101.017636,12.4238294 100.94724,12.3173408 100.788849,12.2995927 C99.873698,12.1576078 99.2753303,11.8203937 99.2753303,10.8619957 L99.2929294,0.585839772 C99.2929294,0.461602999 99.2225332,0.372862446 99.0817408,0.355114336 L98.078595,0.355114336 C97.9378026,0.355114336 97.8322083,0.390610557 97.709015,0.479351109 C96.8994587,1.10053498 96.283492,1.50874152 95.2803462,2.04118483 L95.2803462,2.04118483 Z M106.191757,12.9030284 C105.927771,8.89195547 109.517977,3.46103367 110.327533,1.95244428 C110.415528,1.79271128 110.433127,1.68622262 110.433127,1.52648963 L110.433127,0.585839772 C110.433127,0.461602999 110.327533,0.355114336 110.186741,0.355114336 L104.484649,0.355114336 C103.921479,0.355114336 103.270314,0.266373784 102.900734,0.088892679 C102.742343,0.0179002371 102.513555,0.053396458 102.513555,0.248625673 L102.513555,3.39004122 C102.513555,3.54977422 102.566352,3.67401099 102.671947,3.72725532 L103.023928,3.90473643 C103.182319,3.97572887 103.323112,3.92248454 103.393508,3.79824776 C103.851083,2.99958279 104.46705,2.59137625 105.3822,2.59137625 L108.831614,2.55588003 C107.722874,4.5436684 104.924625,7.0816482 103.569498,12.9030284 C103.5343,13.0450133 103.657494,13.151502 103.798286,13.151502 L105.962969,13.151502 C106.103761,13.151502 106.209356,13.0450133 106.191757,12.9030284 L106.191757,12.9030284 Z M119.758612,5.84384427 C118.331078,5.84384427 117.183117,6.97059574 117.183117,8.39450128 C117.183117,9.81840683 118.331078,10.9451583 119.758612,10.9451583 C121.186146,10.9451583 122.33461,9.81840683 122.33461,8.39450128 C122.33461,6.97059574 121.186146,5.84384427 119.758612,5.84384427 L119.758612,5.84384427 Z M137.296819,1.46817441 L131.685236,1.46817441 C131.14218,1.46817441 130.817854,1.29322875 130.71226,0.943337425 C130.71226,0.608658771 130.651921,0.441319444 130.531241,0.441319444 C129.867506,0.441319444 129.535638,1.11067675 129.535638,2.44939137 C129.535638,3.13396134 129.724199,3.62076666 130.101322,3.90980732 C130.433189,4.15320997 130.953619,4.2749113 131.662609,4.2749113 L137.183682,4.2749113 C137.183682,4.42703796 137.1158,4.64001529 136.980036,4.91384328 L136.68588,5.50713726 C136.489777,6.00915524 136.391725,6.47314156 136.391725,6.89909621 C136.391725,7.23377486 136.429437,8.0704715 136.504861,9.40918611 C136.535031,9.94162943 136.550116,10.4436474 136.550116,10.9152401 C136.550116,11.189068 136.531009,11.6074164 136.493799,12.170285 C136.455584,12.7331537 136.436979,13.1591083 136.436979,13.448149 C136.889526,13.3872983 137.311904,13.1327397 137.704111,12.6834589 C138.096318,12.2351924 138.292422,11.7747557 138.292422,11.303163 C138.292422,11.1206111 138.262252,10.8163577 138.201913,10.3904031 L137.726738,7.0131912 C137.651314,6.48074789 137.613601,6.10803757 137.613601,5.89506024 C137.613601,5.62123225 137.779535,5.21049027 138.111403,4.66283429 C138.443271,4.11517831 138.609205,3.71204266 138.609205,3.45342733 L138.609205,3.04268535 C138.609205,1.99301139 138.171743,1.46817441 137.296819,1.46817441 L137.296819,1.46817441 Z M130.440732,7.42393319 C130.03344,7.81946251 129.829794,8.25302349 129.829794,8.72461614 L129.829794,13.448149 C130.237086,13.3872983 130.629293,13.1626579 131.006416,12.7747349 C131.383538,12.386812 131.572099,11.987733 131.572099,11.576991 C131.572099,11.1966744 131.552992,10.6185931 131.515782,9.8427471 C131.477567,9.06690113 131.458963,8.48121348 131.458963,8.08568416 C131.458963,7.79664351 131.557014,7.37829519 131.753118,6.83063921 C131.285486,6.83063921 130.848024,7.02840387 130.440732,7.42393319 L130.440732,7.42393319 Z M148.882021,5.91787924 L148.882021,3.27087534 C148.866936,2.79928269 148.752794,2.39614704 148.5406,2.06146838 C148.297733,1.66593907 147.956311,1.46817441 147.516838,1.46817441 L143.101991,1.46817441 C142.555414,1.46817441 142.222038,1.29322875 142.100353,0.943337425 C142.039511,0.608658771 141.979171,0.441319444 141.918329,0.441319444 C141.265656,0.441319444 140.939822,1.11067675 140.939822,2.44939137 C140.939822,3.66640466 141.55076,4.2749113 142.772637,4.2749113 L146.234621,4.2749113 C146.807848,4.2749113 147.180947,4.38545668 147.354927,4.60553325 C147.5279,4.82662399 147.61489,6.03958057 147.61489,8.24541716 L147.61489,9.95684209 L147.456498,12.147466 C147.426328,12.5429953 147.411243,12.9765563 147.411243,13.448149 L149.221431,11.622629 C149.040413,10.2839144 148.927276,8.38233115 148.882021,5.91787924 L148.882021,5.91787924 Z M154.448349,1.46817441 L153.724274,1.46817441 C153.181217,1.46817441 152.864435,1.32365408 152.773925,1.03461342 C152.652743,0.639084103 152.577821,0.441319444 152.547652,0.441319444 C151.899001,0.441319444 151.574676,1.11067675 151.574676,2.44939137 C151.574676,3.66640466 152.208241,4.2749113 153.475373,4.2749113 L153.746901,4.2749113 C154.154193,4.2749113 154.440304,4.3205493 154.60674,4.4118253 C154.833014,4.54873929 154.946151,4.79974828 154.946151,5.16485227 C154.946151,5.92548558 154.501146,6.77739488 153.611137,7.72058018 L154.131566,8.19977916 C155.579716,6.9675532 156.303792,5.49953092 156.303792,3.79571232 C156.303792,2.24402038 155.684808,1.46817441 154.448349,1.46817441 L154.448349,1.46817441 Z M162.413176,1.46817441 L160.851889,1.46817441 C160.308832,1.46817441 159.984004,1.29322875 159.878913,0.943337425 C159.878913,0.608658771 159.81807,0.441319444 159.697894,0.441319444 C159.033655,0.441319444 158.70229,1.11067675 158.70229,2.44939137 C158.70229,3.28608801 158.973819,3.82613765 159.516875,4.06954031 C159.81807,4.20645431 160.451636,4.2749113 161.417572,4.2749113 C161.070117,4.71607862 160.843843,5.06596994 160.738752,5.32458526 C160.602988,5.64405125 160.535106,6.0471869 160.535106,6.53399222 L160.693497,9.27227212 C160.723164,9.75907743 160.738752,10.3067334 160.738752,10.9152401 C160.738752,11.37162 160.67087,12.215923 160.535106,13.448149 C160.946923,13.3416603 161.363267,13.060226 161.78313,12.603846 C162.202993,12.147466 162.413176,11.7062987 162.413176,11.280344 C162.413176,11.1738554 162.352333,10.6185931 162.232157,9.61455711 L161.824865,6.23734523 L161.77961,5.73532725 C161.77961,5.49192459 161.839447,5.21049027 161.960629,4.89102428 C162.096393,4.4802823 162.254784,4.2749113 162.435803,4.2749113 L163.521916,4.2749113 C163.702935,3.90980732 163.793444,3.49906533 163.793444,3.04268535 C163.793444,1.99301139 163.332852,1.46817441 162.413176,1.46817441 L162.413176,1.46817441 Z M174.04313,1.46817441 L168.431548,1.46817441 C167.888491,1.46817441 167.564166,1.29322875 167.458572,0.943337425 C167.458572,0.608658771 167.398232,0.441319444 167.277553,0.441319444 C166.613817,0.441319444 166.281949,1.11067675 166.281949,2.44939137 C166.281949,3.13396134 166.470511,3.62076666 166.847633,3.90980732 C167.179501,4.15320997 167.69993,4.2749113 168.40892,4.2749113 L173.929993,4.2749113 C173.929993,4.42703796 173.862111,4.64001529 173.726347,4.91384328 L173.432192,5.50713726 C173.236088,6.00915524 173.138036,6.47314156 173.138036,6.89909621 C173.138036,7.23377486 173.175748,8.0704715 173.251173,9.40918611 C173.281343,9.94162943 173.296428,10.4436474 173.296428,10.9152401 C173.296428,11.189068 173.27732,11.6074164 173.239608,12.170285 C173.201896,12.7331537 173.183291,13.1591083 173.183291,13.448149 C173.635838,13.3872983 174.058215,13.1327397 174.450422,12.6834589 C174.84263,12.2351924 175.038733,11.7747557 175.038733,11.303163 C175.038733,11.1206111 175.008564,10.8163577 174.948224,10.3904031 L174.47305,7.0131912 C174.397625,6.48074789 174.359913,6.10803757 174.359913,5.89506024 C174.359913,5.62123225 174.525847,5.21049027 174.857715,4.66283429 C175.189582,4.11517831 175.355516,3.71204266 175.355516,3.45342733 L175.355516,3.04268535 C175.355516,1.99301139 174.918054,1.46817441 174.04313,1.46817441 L174.04313,1.46817441 Z M167.187043,7.42393319 C166.779751,7.81946251 166.576105,8.25302349 166.576105,8.72461614 L166.576105,13.448149 C166.983397,13.3872983 167.375605,13.1626579 167.752727,12.7747349 C168.12985,12.386812 168.318411,11.987733 168.318411,11.576991 C168.318411,11.1966744 168.299303,10.6185931 168.262094,9.8427471 C168.223879,9.06690113 168.205274,8.48121348 168.205274,8.08568416 C168.205274,7.79664351 168.303326,7.37829519 168.49943,6.83063921 C168.031798,6.83063921 167.594336,7.02840387 167.187043,7.42393319 L167.187043,7.42393319 Z" id="Fill-1" fill="#00AE7C"></path>
                    <g id="Group-5" transform="translate(56.819787, 183.075816)">
                        <mask id="mask-2" fill="white">
                            <use xlink:href="#path-1"></use>
                        </mask>
                        <g id="Clip-4"></g>
                        <path d="M6.64781449,7.28859117 L2.69154827,7.28859117 C5.1951387,5.44937984 6.77151066,3.78207163 6.77151066,2.25471995 C6.77151066,1.11731962 5.76685638,0.135088475 3.97426753,0.135088475 C2.89268026,0.135088475 1.87243825,0.758807785 1.06891595,1.55341605 L1.40882901,1.97429981 C1.93428633,1.66244015 2.45974365,1.52248362 2.98520097,1.52248362 C3.85057136,1.52248362 4.63900875,1.88048837 5.16446607,2.61323178 C4.63900875,4.00011984 2.67596054,6.33779954 0.265393659,8.36412666 L0.559046362,9.00305864 L6.06050908,9.00305864 L6.64781449,7.70947493 L6.64781449,7.28859117 Z M15.997435,3.33025545 C15.997435,1.5691358 15.1471495,0.135088475 13.3083003,0.135088475 C10.4185364,0.135088475 8.82657675,3.34546811 8.82657675,6.10403157 C8.82657675,7.89659072 9.73871032,9.1278025 11.5001237,9.1278025 C14.4517356,9.1278025 15.997435,6.0888189 15.997435,3.33025545 L15.997435,3.33025545 Z M11.9637329,8.22366304 C11.2376465,8.22366304 10.8358853,7.24193899 10.8358853,5.74551974 C10.8358853,4.04677202 11.4850388,1.16397179 12.8602788,1.16397179 C13.5712804,1.16397179 13.9418661,2.25471995 13.9418661,3.65732777 C13.9418661,5.26277113 13.5401049,8.22366304 11.9637329,8.22366304 L11.9637329,8.22366304 Z M21.3907892,0.197460406 L18.4235896,1.14825204 L18.330566,1.78718401 L20.2161784,1.78718401 L19.1808515,7.84943146 L17.4033476,8.34840691 L17.2952391,9.00305864 L22.580485,9.00305864 L22.7041811,8.33268715 L21.0971365,7.86515121 L22.4261162,0.197460406 L21.3907892,0.197460406 Z M25.1921838,1.84955595 L29.7508404,1.8652757 L25.2540319,8.76929067 L25.2384442,9.1278025 L27.0154453,9.1278025 L31.3578849,0.976856 L31.1260803,0.322204268 L25.7020534,0.322204268 L25.1921838,1.5691358 L25.1921838,1.84955595 Z M40.4053046,6.11214499 C40.6134762,6.11214499 40.7517545,6.00058544 40.8070658,5.84693751 L41.0700458,5.07869787 C41.1394364,4.89716006 41.0288138,4.75771062 40.8488007,4.75771062 L32.788939,4.75771062 C32.5812703,4.75771062 32.442992,4.86927017 32.3876807,5.0229181 L32.1241978,5.79065064 C32.0553101,5.97269555 32.1659327,6.11214499 32.3459458,6.11214499 L40.4053046,6.11214499 Z M48.6361284,7.28859117 L44.680365,7.28859117 C47.1834526,5.44937984 48.7598246,3.78207163 48.7598246,2.25471995 C48.7598246,1.11731962 47.7556731,0.135088475 45.9625815,0.135088475 C44.8809942,0.135088475 43.861255,0.758807785 43.0577327,1.55341605 L43.3976458,1.97429981 C43.9231031,1.66244015 44.4485604,1.52248362 44.9740177,1.52248362 C45.8393881,1.52248362 46.6273227,1.88048837 47.15278,2.61323178 C46.6273227,4.00011984 44.6647773,6.33779954 42.2537076,8.36412666 L42.5473603,9.00305864 L48.0493258,9.00305864 L48.6361284,7.70947493 L48.6361284,7.28859117 Z M57.9857489,3.33025545 C57.9857489,1.5691358 57.1359663,0.135088475 55.2966142,0.135088475 C52.4068504,0.135088475 50.8153935,3.34546811 50.8153935,6.10403157 C50.8153935,7.89659072 51.7270243,9.1278025 53.4889405,9.1278025 C56.4405524,9.1278025 57.9857489,6.0888189 57.9857489,3.33025545 L57.9857489,3.33025545 Z M53.9525497,8.22366304 C53.2259604,8.22366304 52.8241993,7.24193899 52.8241993,5.74551974 C52.8241993,4.04677202 53.4733527,1.16397179 54.8485927,1.16397179 C55.5595943,1.16397179 55.9306828,2.25471995 55.9306828,3.65732777 C55.9306828,5.26277113 55.5289217,8.22366304 53.9525497,8.22366304 L53.9525497,8.22366304 Z M63.3791032,0.197460406 L60.4119035,1.14825204 L60.3193828,1.78718401 L62.2044924,1.78718401 L61.1691655,7.84943146 L59.3921643,8.34840691 L59.2840559,9.00305864 L64.5693017,9.00305864 L64.6924951,8.33268715 L63.0854505,7.86515121 L64.4144301,0.197460406 L63.3791032,0.197460406 Z M74.0109401,2.02095198 C74.0109401,0.852112138 72.5894398,0.104156054 71.1830243,0.104156054 C69.9621532,0.104156054 67.8140635,1.33536783 67.8140635,2.61323178 C67.8140635,3.26788352 68.3551086,3.98440009 69.0505224,4.685704 C67.922172,5.21561187 66.8561724,6.05737939 66.8561724,7.11719513 C66.8561724,8.20794329 68.0307833,9.1278025 69.560392,9.1278025 C71.2604602,9.1278025 73.4854828,7.98989507 73.4854828,6.58728726 C73.4854828,5.8702636 72.6668756,5.04421583 71.754742,4.26532732 C72.9293528,3.75063212 74.0109401,2.92509144 74.0109401,2.02095198 L74.0109401,2.02095198 Z M71.9096137,7.44426745 C71.5697006,7.81849904 70.8431113,8.11463894 70.2402181,8.11463894 C69.5297194,8.11463894 68.7261971,7.60045082 68.3239331,6.94579909 C68.5713255,6.38445171 68.9730866,5.71458731 69.5297194,5.12230751 C70.5650463,6.07309915 71.7084817,6.93007934 71.9096137,7.44426745 L71.9096137,7.44426745 Z M69.1898063,1.99001956 C69.5141317,1.49104411 70.0084135,1.24155639 70.5187859,1.24155639 C71.2760479,1.24155639 72.1720909,1.77146426 72.4969191,2.51992743 C72.2646116,2.92509144 71.8321778,3.39262738 71.2604602,3.89109574 C70.3020662,3.11170014 69.3597629,2.41039624 69.1898063,1.99001956 L69.1898063,1.99001956 Z" id="Fill-3" fill="#00AE7C" mask="url(#mask-2)"></path>
                    </g>
                    <path d="M100.903785,168.024682 C100.903785,165.842679 99.528545,164.549095 97.0868027,164.549095 C93.7485145,164.549095 91.4304683,167.339098 91.4304683,170.362362 C91.4304683,172.512926 92.8680592,173.900321 95.2630384,173.900321 C98.6164115,173.900321 100.903785,170.938922 100.903785,168.024682 L100.903785,168.024682 Z M95.4641704,172.965249 C94.2739718,172.965249 93.7178419,172.076829 93.7178419,170.674222 C93.7178419,168.320822 94.7224962,165.453235 96.8087377,165.453235 C98.0140212,165.453235 98.6164115,166.295002 98.6164115,167.712823 C98.6164115,170.783246 97.3955403,172.965249 95.4641704,172.965249 L95.4641704,172.965249 Z M100.996306,177.001676 L104.936984,177.001676 L105.045595,176.347025 L103.901657,175.910421 L104.272746,173.837949 C104.550811,173.868881 104.844463,173.900321 105.199964,173.900321 C107.16251,173.900321 109.063207,171.546921 109.063207,169.333986 C109.063207,167.899938 108.615185,166.52877 107.579859,166.52877 C107.100662,166.52877 106.312727,166.80919 105.478029,167.198634 L105.601725,166.52877 L103.716113,166.855842 L103.469224,168.211798 C102.974439,168.492218 102.55709,168.756919 102.279025,168.944034 L102.418309,169.73915 L103.283679,169.286826 L102.093481,176.019445 L101.104917,176.362237 L100.996306,177.001676 Z M106.374575,167.884219 L106.683313,167.884219 C106.961881,168.320822 107.085074,168.975474 107.085074,169.73915 C107.085074,171.266501 106.374575,172.809066 105.864203,172.809066 C105.416181,172.809066 104.952572,172.700042 104.520138,172.528646 L105.2774,168.351755 C105.694246,168.165146 106.080922,167.99375 106.374575,167.884219 L106.374575,167.884219 Z M115.491888,170.861337 C114.888995,171.313154 113.869256,171.998738 113.111994,172.201573 L112.880189,172.123482 C112.787669,171.718318 112.756493,171.313154 112.756493,170.87655 L112.756493,170.751806 C114.085473,170.206686 115.708105,169.41157 116.465367,168.772638 L116.465367,167.058678 C115.646257,166.684446 114.966431,166.52877 114.394713,166.52877 C113.18943,166.52877 112.41658,167.182915 111.86045,167.915658 C111.273145,168.710266 110.917644,170.159526 110.917644,171.577854 C110.917644,172.310597 111.025752,173.042834 111.226884,173.681766 L112.37032,173.900321 C113.869256,173.308041 115.229411,172.092042 115.769953,171.359806 L115.491888,170.861337 Z M113.498167,167.712823 C113.899928,167.69761 114.487234,167.837566 115.090127,168.071334 L115.090127,168.305102 C114.394713,168.897382 113.560015,169.44301 112.818341,169.832454 C112.942037,168.975474 113.18943,168.180358 113.498167,167.712823 L113.498167,167.712823 Z M118.381652,173.775577 L120.189829,173.775577 L120.915915,169.458222 C121.580656,168.772638 122.183047,168.351755 122.584808,168.149426 L122.87846,168.227518 C122.909636,168.367474 122.925224,168.53887 122.925224,168.725986 C122.925224,169.053058 122.87846,169.44301 122.816612,169.879106 L122.198634,173.650833 L123.867527,173.900321 L125.814987,172.310597 L125.459487,171.780689 L124.362312,172.606737 L124.207943,172.497713 L124.671552,169.832454 C124.764073,169.318266 124.810333,168.81929 124.810333,168.398914 C124.810333,167.261006 124.486008,166.52877 123.883115,166.52877 C123.079592,166.52877 122.121198,167.245287 121.117047,168.320822 L121.395112,166.684446 L120.730371,166.52877 L118.165435,167.073891 L118.165435,167.790914 L119.386306,167.790914 L118.381652,173.775577 Z M129.292057,173.900321 L131.254602,172.310597 L130.883514,171.780689 L129.801926,172.606737 L129.647557,172.497713 L130.621036,166.684446 L129.956295,166.52877 L127.391359,167.073891 L127.391359,167.790914 L128.612231,167.790914 L127.623164,173.650833 L129.292057,173.900321 Z M130.543601,165.375143 C130.899101,164.923327 131.239014,164.081559 131.424559,163.504999 L129.863774,163.240299 C129.801926,163.551651 129.415753,164.455791 129.137185,164.954259 L130.543601,165.375143 Z M133.309668,173.775577 L135.117845,173.775577 L135.843931,169.458222 C136.508672,168.772638 137.111566,168.351755 137.513327,168.149426 L137.806979,168.227518 C137.837652,168.367474 137.85324,168.53887 137.85324,168.725986 C137.85324,169.053058 137.806979,169.44301 137.745131,169.879106 L137.12665,173.650833 L138.796046,173.900321 L140.743004,172.310597 L140.387503,171.780689 L139.290328,172.606737 L139.135959,172.497713 L139.599568,169.832454 C139.692089,169.318266 139.738349,168.81929 139.738349,168.398914 C139.738349,167.261006 139.414024,166.52877 138.811131,166.52877 C138.007609,166.52877 137.049718,167.245287 136.045063,168.320822 L136.323128,166.684446 L135.65889,166.52877 L133.093451,167.073891 L133.093451,167.790914 L134.314322,167.790914 L133.309668,173.775577 Z M143.772051,177.094981 C145.734597,177.094981 147.141012,175.458605 147.403489,173.853162 L148.593688,166.52877 L147.990795,166.52877 L147.480925,166.918214 C146.816184,166.653007 146.260054,166.52877 145.765269,166.52877 C144.591161,166.52877 143.864572,167.167702 143.292854,167.915658 C142.674876,168.741706 142.2882,170.455666 142.2882,171.998738 C142.2882,172.669109 142.365636,173.292321 142.520005,173.822229 L143.694616,173.822229 L145.997074,171.609293 L145.858293,172.528646 C145.610901,174.149302 145.394684,175.255769 145.131704,175.489537 C144.838051,175.551909 144.544398,175.567629 144.266333,175.567629 C143.385375,175.567629 142.535592,175.318141 141.840179,175.006789 L141.407242,176.627445 C141.994547,176.923585 142.999202,177.094981 143.772051,177.094981 L143.772051,177.094981 Z M144.111964,172.030177 C144.065704,171.76497 144.050116,171.46883 144.050116,171.15697 C144.050116,169.848174 144.359357,168.398914 144.791791,167.712823 C145.30166,167.650451 145.904553,167.869006 146.522531,168.25845 L146.151946,170.674222 L144.343769,172.107762 L144.111964,172.030177 Z M40.4981525,173.963292 C42.6618299,173.963292 44.7943318,172.965848 44.7943318,170.659101 C44.7943318,169.209841 43.5890483,168.726585 42.4606979,168.305701 C41.4721341,167.931977 40.7455448,167.65105 40.7455448,166.872161 C40.7455448,166.077046 41.5953275,165.594297 42.4918733,165.594297 C43.0947665,165.594297 43.5890483,165.749973 43.9752217,166.030393 L44.1145056,167.542025 L45.0261364,167.542025 L45.4278975,165.189133 C44.8873553,164.877273 43.9445491,164.612066 42.7699383,164.612066 C40.7918052,164.612066 38.9373683,165.874717 38.9373683,167.869605 C38.9373683,169.069377 39.8339141,169.599285 40.7455448,169.988729 C41.8583076,170.456772 42.8629619,170.705753 42.8629619,171.56324 C42.8629619,172.529244 41.8271321,172.99678 40.8848287,172.99678 C40.328196,172.99678 39.7564783,172.825384 39.1847606,172.43594 L39.0610644,170.877149 L38.133846,170.877149 L37.7014122,173.371012 C38.5667826,173.744736 39.5246737,173.963292 40.4981525,173.963292 L40.4981525,173.963292 Z M51.3519223,171.002284 C50.749532,171.4541 49.72929,172.139684 48.9720281,172.34252 L48.7402235,172.264428 C48.6477028,171.859264 48.6170301,171.4541 48.6170301,171.017497 L48.6170301,170.892753 C49.9460097,170.347632 51.5686421,169.552517 52.325904,168.913585 L52.325904,167.199625 C51.506794,166.825393 50.826465,166.669717 50.2547473,166.669717 C49.0494639,166.669717 48.2766142,167.323861 47.7204843,168.056605 C47.1331789,168.851213 46.7776781,170.300473 46.7776781,171.718801 C46.7776781,172.451544 46.8857865,173.18378 47.0869185,173.822712 L48.2303539,174.041268 C49.72929,173.448988 51.0894451,172.232989 51.6304901,171.500752 L51.3519223,171.002284 Z M49.5525299,168.04261 C49.9542911,168.027397 50.5415965,168.167354 51.1439868,168.401122 L51.1439868,168.63489 C50.448573,169.227169 49.614378,169.772797 48.872201,170.162241 C48.9958972,169.305261 49.2432895,168.510146 49.5525299,168.04261 L49.5525299,168.04261 Z M57.0509461,173.79178 L58.627318,174.041268 L60.6823841,172.451544 L60.3117984,171.921636 L59.2297084,172.747684 L59.0753395,172.63866 L60.0799938,166.669717 L59.4771007,166.669717 L58.9672311,167.059161 C58.3024899,166.793954 57.7307722,166.669717 57.2364903,166.669717 C56.0618795,166.669717 55.3352902,167.308649 54.7635725,168.056605 C54.1455945,168.882653 53.7594211,170.596613 53.7594211,172.139684 C53.7594211,172.810056 53.8363541,173.433268 53.9912257,173.963176 L55.1653337,173.963176 L57.3908591,171.827825 L57.0509461,173.79178 Z M55.9157921,172.369403 C55.8695317,172.104196 55.853944,171.808056 55.853944,171.496196 C55.853944,170.1874 56.1631844,168.73814 56.5956182,168.052049 C57.1059906,167.989677 57.7083809,168.208232 58.3112741,168.581957 L57.8939252,171.0601 L56.1475967,172.446988 L55.9157921,172.369403 Z M67.6389754,169.272097 L68.0407366,167.090093 C67.3915831,166.809673 66.8354531,166.669717 66.2018873,166.669717 C64.5324918,166.669717 63.0335557,168.149909 63.0335557,169.022609 C63.0335557,169.817724 63.6827092,170.456656 64.3937108,171.002284 C65.1660576,171.578844 65.954495,172.093032 65.954495,172.357733 C65.954495,172.685312 65.5989942,172.856708 65.0579492,172.856708 C64.656188,172.856708 64.1307307,172.747684 63.5901885,172.529129 L63.3116207,171.204612 L62.5543587,171.204612 L62.1375127,173.604664 C62.66297,173.854152 63.5127527,174.041268 64.4706438,174.041268 C65.7689507,174.041268 67.5615396,172.872428 67.5615396,171.765453 C67.5615396,170.939912 66.773605,170.269541 65.9700827,169.739633 C65.1660576,169.194005 64.5018192,168.773628 64.5018192,168.477489 C64.5018192,168.149909 64.9191681,167.962793 65.475298,167.962793 C65.8307988,167.962793 66.2788203,168.040885 66.7117569,168.196561 L66.8661257,169.272097 L67.6389754,169.272097 Z M72.8547591,172.841795 C72.5766941,172.826075 72.2830414,172.732264 72.1593452,172.654679 C72.0200613,172.280447 71.9119529,171.719607 71.9119529,171.111608 C71.9119529,169.709 72.3599744,168.041692 73.2102599,167.3556 C73.5657607,167.3556 73.8594134,167.449412 74.0600425,167.526996 C74.1993264,167.93216 74.2762594,168.431136 74.2762594,168.961044 C74.2762594,170.394584 73.7975653,172.093332 72.8547591,172.841795 L72.8547591,172.841795 Z M71.9655196,174.041268 C74.4997827,174.009828 76.0761546,171.812612 76.0761546,169.334469 C76.0761546,167.604789 75.1796088,166.669717 73.726933,166.669717 C71.2389303,166.669717 69.8325149,168.882653 69.81743,171.4541 C69.81743,172.872428 70.5279287,174.041268 71.9655196,174.041268 L71.9655196,174.041268 Z M78.4117385,173.916524 L80.2199151,173.916524 L80.9460015,169.599169 C81.6107428,168.913585 82.2131331,168.492701 82.6148942,168.290373 L82.9085469,168.368464 C82.9397224,168.508421 82.9553101,168.679817 82.9553101,168.866933 C82.9553101,169.194005 82.9085469,169.583956 82.8466988,170.020053 L82.2287208,173.79178 L83.8976135,174.041268 L85.8450739,172.451544 L85.4895732,171.921636 L84.3923982,172.747684 L84.2375265,172.63866 L84.7011358,169.973401 C84.7941593,169.459213 84.8404197,168.960237 84.8404197,168.53986 C84.8404197,167.401953 84.5160943,166.669717 83.9132012,166.669717 C83.1096789,166.669717 82.151285,167.386233 81.1471335,168.461769 L81.4251985,166.825393 L80.7604573,166.669717 L78.1955216,167.214837 L78.1955216,167.931861 L79.4163928,167.931861 L78.4117385,173.916524 Z" id="Fill-6" fill="#00AE7C"></path>
                    <path d="M62.7995242,156.793175 L64.3447207,156.382433 C64.3029858,156.155764 63.9796661,154.710561 63.9092699,153.081284 C63.8811114,152.556955 63.8811114,152.160411 63.8811114,151.749162 L64.6821196,151.395214 L64.6117234,149.638658 C64.4291961,149.454078 64.2185103,149.355195 63.9233491,149.355195 L58.8940438,149.355195 C58.5848033,149.355195 58.4445138,149.3126 58.2197488,149.255806 L58.0231423,148.731476 L57.2502926,148.830865 L57.4891368,151.480405 L61.6475407,151.480405 C62.1533876,151.480405 62.3218357,151.55089 62.6169969,151.664478 C62.6592346,151.876948 62.8276826,152.925101 62.8136034,154.455495 L62.7995242,156.793175 Z M57.5032161,156.793175 L58.9920956,156.452918 C58.9639371,155.929095 58.9362815,154.951428 58.9362815,154.540686 C58.9362815,154.07315 58.9639371,153.322152 59.0061749,152.656344 L57.7279811,153.010292 C57.7279811,153.449431 57.6998226,154.058952 57.6575849,154.908833 C57.6294264,155.503648 57.559533,156.169963 57.5032161,156.793175 L57.5032161,156.793175 Z M66.0307096,156.637499 L70.329403,156.637499 C70.2871653,156.056375 70.0905587,153.477828 70.0488239,152.698432 C70.0206654,152.004228 70.0065861,150.57373 70.0065861,150.063599 C69.9643484,149.765937 69.7255042,149.355195 69.3881053,149.355195 L67.8992257,149.355195 L67.6603815,148.731476 L66.8030564,148.78827 L67.0841383,151.480405 L68.4468076,151.480405 C68.6016792,151.636081 68.6856518,151.947941 68.7138103,152.061022 C68.8963376,152.826219 68.9526545,153.279556 68.9526545,154.243025 C68.9526545,154.384503 68.924496,154.441297 68.8963376,154.498091 C68.7701272,154.554885 68.306518,154.62537 67.5759061,154.62537 L66.1850784,154.62537 L66.0307096,156.637499 Z M73.8698288,156.793175 L75.232498,156.481315 L75.1062877,154.83784 C74.9936538,153.350549 75.0218123,150.630017 75.0218123,150.346554 C75.0218123,149.666548 74.6004408,149.425681 74.4319927,149.355195 L73.5324299,149.284203 C73.3499026,149.255806 73.2236923,149.21321 73.041165,149.142725 L72.8722141,148.717278 L72.1416022,148.774072 L72.2823946,151.409412 L73.3639819,151.480405 C73.4625365,151.55089 73.6873015,151.749162 73.7571949,152.132014 C73.8135119,152.401278 73.8979873,153.406835 73.9261458,153.88857 C74.0101184,155.234891 73.9261458,156.042176 73.8698288,156.793175 L73.8698288,156.793175 Z M77.0165388,157.841835 C77.0165388,157.841835 78.5481589,157.331703 79.1942954,157.105035 C80.5147269,156.637499 81.4841831,156.113169 81.4841831,156.113169 C81.9759508,155.8865 82.271112,155.347972 82.3973223,154.753156 L83.0716173,151.707074 L83.6619397,151.452008 L83.5915435,149.62446 C83.5774642,149.355195 83.3808577,149.355195 83.1560927,149.355195 L81.3298143,149.355195 C81.0205738,149.369394 81.0628115,149.596063 81.09097,149.83693 L81.2171803,151.352618 L82.2288743,151.707074 L81.5264208,153.832283 C81.3856284,154.271422 81.1191285,154.455495 80.8521258,154.62537 C80.6972542,154.724759 80.4865684,154.83784 80.2195657,154.979825 L79.1942954,152.485962 C79.0540058,152.146213 79.0399266,151.86275 79.0258473,151.692875 L79.8122734,151.423611 L79.9249073,149.666548 C79.9530658,149.454078 79.8967488,149.355195 79.7283008,149.355195 L78.379208,149.355195 C78.1826015,149.355195 78.1127081,149.284203 78.0563911,149.241607 L77.8175469,148.717278 L77.0587765,148.859262 L77.199066,151.55089 L77.7753092,151.805956 L79.4331396,155.249089 L78.9695304,155.418964 C77.8738639,155.815508 77.3117,155.8865 76.9184869,155.957492 L77.0165388,157.841835 Z M95.0972989,156.793175 L96.7269708,156.41083 C96.6429982,155.943294 96.5162851,154.696362 96.4463917,153.789688 C96.3055993,152.07522 96.3055993,151.253736 96.3055993,150.870884 C96.3055993,150.38915 95.8842278,149.73754 95.4065393,149.355195 L90.6718923,149.355195 C90.3490755,149.355195 90.2223623,149.241607 90.1383897,149.170615 L89.9277039,148.717278 L89.2951438,148.845064 L89.4500155,151.366817 C89.646622,151.437809 89.8854662,151.480405 90.2082831,151.480405 L90.6160782,151.480405 L90.1524689,152.585351 C90.0679935,152.769425 90.039835,153.052887 90.0539143,153.208564 L90.1524689,154.923031 L88.8737723,155.022421 L88.5087178,156.637499 L91.3743458,156.637499 C91.5151382,155.829706 91.5292174,155.645633 91.5292174,155.376369 C91.4729004,155.05031 91.1214223,153.152277 91.1214223,152.698432 C91.1214223,152.273492 91.3461873,151.834353 91.5010589,151.480405 L94.5356378,151.480405 L94.6477689,151.65028 C94.999247,152.188808 95.1676951,153.449431 95.1676951,154.143636 C95.1676951,155.220692 95.1536158,155.617236 95.0972989,156.793175 L95.0972989,156.793175 Z M99.0872547,156.793175 L100.688768,156.425028 C100.64653,156.013779 100.478082,153.874371 100.478082,152.358683 L100.478082,151.480405 L104.496197,151.480405 C104.524355,151.990029 104.608328,154.030555 104.608328,154.356106 L104.608328,156.793175 L106.111789,156.452918 C106.013235,155.858103 105.887024,155.376369 105.78847,153.747092 C105.732153,152.9393 105.690418,152.217205 105.676339,151.834353 L106.322475,151.437809 L106.406951,149.73754 C106.406951,149.610261 106.125869,149.355195 105.732153,149.355195 L100.337793,149.355195 L99.9159185,148.717278 L99.1435717,148.816667 L99.2416235,149.680746 C99.3683367,150.7862 99.3120197,154.058952 99.1858094,155.772912 C99.1576509,156.169963 99.1294924,156.467117 99.0872547,156.793175 L99.0872547,156.793175 Z M110.270193,154.965627 C110.424562,154.582775 111.22557,152.656344 111.267305,151.324221 C111.281384,150.842487 111.239147,150.502737 111.183332,150.148282 C111.141095,149.921614 110.874092,149.369394 110.523117,149.355195 L109.216262,149.3126 L108.977417,148.731476 L108.120595,148.887659 L108.218647,151.437809 L108.79489,151.480405 C109.38471,151.522493 110.045428,151.593486 110.045428,152.17461 C110.045428,152.712631 109.272579,153.874371 108.977417,154.28562 L110.270193,154.965627 Z M119.219058,156.793175 L120.84873,156.41083 C120.764255,155.943294 120.638044,154.696362 120.567648,153.789688 C120.427359,152.07522 120.427359,151.253736 120.427359,150.870884 C120.427359,150.38915 120.005484,149.73754 119.527796,149.355195 L114.793652,149.355195 C114.470332,149.355195 114.344122,149.241607 114.259646,149.170615 L114.048961,148.717278 L113.416903,148.845064 L113.571272,151.366817 C113.767879,151.437809 114.006723,151.480405 114.330042,151.480405 L114.737335,151.480405 L114.273726,152.585351 C114.18925,152.769425 114.161594,153.052887 114.175674,153.208564 L114.273726,154.923031 L112.995532,155.022421 L112.629974,156.637499 L115.496105,156.637499 C115.636395,155.829706 115.650474,155.645633 115.650474,155.376369 C115.594157,155.05031 115.243182,153.152277 115.243182,152.698432 C115.243182,152.273492 115.467947,151.834353 115.622315,151.480405 L118.656894,151.480405 L118.769528,151.65028 C119.120504,152.188808 119.289454,153.449431 119.289454,154.143636 C119.289454,155.220692 119.275375,155.617236 119.219058,156.793175 L119.219058,156.793175 Z M122.618692,156.793175 L128.139765,156.43872 C128.449005,156.425028 128.744166,156.184161 128.828139,155.914897 C129.052904,155.249089 129.26359,154.582775 129.404382,154.058952 L128.842218,150.984472 C128.67377,149.935812 128.238319,149.567666 127.381497,149.510872 L124.543525,149.255806 L124.402732,148.150859 L123.391541,148.26394 L123.461435,153.619813 C123.461435,153.902768 123.630386,153.945364 123.798834,153.945364 L126.018325,153.945364 L125.79356,152.556955 L125.035293,152.556955 C124.796448,152.556955 124.697894,152.514359 124.543525,152.443874 L124.515366,151.295824 L126.580489,151.536692 C127.381497,151.636081 127.718393,151.86275 127.872762,152.471764 L128.111606,153.435232 C128.210161,153.803886 128.196082,154.157834 128.069871,154.4129 C127.929079,154.526488 127.521787,154.611172 127.058178,154.639568 L123.180856,154.823642 L122.618692,156.793175 Z" id="Fill-8" fill="#00AE7C"></path>
                    <path d="M73.243521,67.0662555 C73.243521,68.0535576 73.1781531,68.546955 73.0861352,70.4023932 L73.0861352,70.4039145 C73.0378635,71.4292482 72.9317664,72.5646202 72.8291891,73.6619605 L72.6738146,75.3586798 L77.1927476,74.3272611 L77.1676061,73.864796 C77.1067637,72.7334808 77.0424014,70.5428568 77.0424014,69.6032212 C77.0424014,68.5712953 77.1052552,67.782265 77.1987816,66.3061293 L77.2470532,65.5383968 L73.243521,66.6479072 L73.243521,67.0662555 Z" id="Fill-10" fill="#00AE7C"></path>
                    <path d="M89.7669161,58.3690729 L89.61657,58.2174533 C89.0775362,57.673347 88.4645865,57.4208167 87.6877142,57.4208167 L76.4037068,57.4208167 C75.9059051,57.4208167 75.6444335,57.3701078 75.2989894,57.2844098 L74.8067188,55.9720638 L72.1266351,56.3158701 L72.7551725,63.2858066 L82.5814758,63.2858066 C83.4458406,63.2858066 83.8073753,63.3801251 84.2740015,63.5535495 C84.393675,64.297956 84.680791,66.4099811 84.6536381,69.4073834 L84.6174344,75.3702415 L89.2610692,74.1354801 L89.1162541,73.3728184 C88.9236703,72.4220268 88.338879,69.5280706 88.1995951,66.2999428 C88.1447866,65.2893147 88.1382498,64.4972419 88.1372442,63.6995911 L89.9479349,62.8983907 L89.7669161,58.3690729 Z" id="Fill-12" fill="#00AE7C"></path>
                    <path d="M159.395391,60.5476281 L159.3969,60.1946943 C159.3969,58.3590326 158.589355,57.5573251 157.738567,57.4630065 L155.5945,57.2682844 C155.310401,57.2241677 154.885509,57.2870467 154.727118,56.8174824 L154.387205,55.9610093 L151.819755,56.1608023 L152.188832,63.0947355 L154.928753,63.2737379 C155.112286,63.4390489 155.382808,63.765107 155.483877,64.312763 C155.596008,64.8517984 155.784066,67.0261955 155.851446,68.1732305 L155.851446,68.175766 C156.019391,70.8537023 155.884632,72.5793257 155.765462,74.1016065 L155.669924,75.3561444 L159.904758,74.3886188 L159.584455,70.2284617 C159.435115,68.2523364 159.372261,64.9953046 159.395391,60.5476281" id="Fill-14" fill="#00AE7C"></path>
                    <path d="M16.7544455,60.5476281 L16.755954,60.1946943 C16.755954,58.3590326 15.9489119,57.5573251 15.0976207,57.4630065 L12.9535537,57.2682844 C12.6694548,57.2241677 12.2445635,57.2870467 12.086172,56.8174824 L11.7457562,55.9610093 L9.17880915,56.1608023 L9.54788635,63.0947355 L12.287304,63.2737379 C12.4713398,63.4390489 12.7418623,63.765107 12.8429311,64.312763 C12.9550622,64.8517984 13.1431206,67.0261955 13.2104999,68.1732305 L13.2104999,68.175766 C13.3784451,70.8537023 13.2436866,72.5793257 13.1245159,74.1016065 L13.0289782,75.3561444 L17.2633094,74.3886188 L16.9435096,70.2284617 C16.7941691,68.2523364 16.7313153,64.9953046 16.7544455,60.5476281" id="Fill-16" fill="#00AE7C"></path>
                    <path d="M128.7382,57.4206646 L116.926221,57.4206646 L115.954754,55.9516281 L113.353614,56.2857997 L113.635702,58.7634359 C113.908738,61.1518245 113.795099,68.429564 113.50748,72.3280632 L113.50748,72.3295845 C113.443118,73.2377806 113.380264,73.8914182 113.290258,74.5856229 L113.189189,75.3670468 L118.012837,74.2575364 L117.964062,73.7742807 C117.864502,72.8001629 117.494419,68.0563466 117.494419,64.7085458 L117.494419,63.2861616 L125.447178,63.2861616 C125.526625,64.932172 125.672446,68.5776339 125.672446,69.1901973 L125.672446,75.3421995 L130.209983,74.3158516 L130.125508,73.8041989 C130.087796,73.5719522 130.047066,73.348326 130.005834,73.1170935 C129.810233,72.0238099 129.587983,70.7849918 129.406964,67.7845469 C129.29785,66.215614 129.209352,64.74962 129.168622,63.8328034 L130.591631,62.9595963 L130.795277,58.8278362 C130.795277,58.1909326 129.877613,57.4206646 128.7382,57.4206646" id="Fill-18" fill="#00AE7C"></path>
                    <path d="M26.6639672,57.4211717 L24.0834437,57.3369949 L23.5142402,55.9526423 L20.6943697,56.4653092 L20.9523215,63.1533043 L22.7308311,63.2846403 C24.4505096,63.4088771 25.0307754,63.6634357 25.0307754,64.2952684 C25.0307754,65.0964688 23.8777863,67.1217818 22.7388764,68.709477 L22.3697992,69.2236651 L26.3577437,71.3219989 L26.6267577,70.6556841 C28.0467496,67.1562638 28.7984804,64.3804593 28.8613341,62.4038269 C28.8950237,61.2299162 28.7828927,60.4058968 28.6627163,59.648306 C28.5596362,59.0940579 27.8687478,57.4698522 26.6639672,57.4211717" id="Fill-20" fill="#00AE7C"></path>
                    <path d="M50.2343735,67.8734396 C49.9206076,64.0499895 49.9206076,62.2406964 49.9206076,61.371039 C49.9206076,60.0247181 48.8028166,58.4243456 47.6980991,57.5394755 L47.5492614,57.4208167 L36.7379142,57.4208167 C36.3180512,57.4208167 36.126473,57.3219344 35.9791438,57.2093607 L35.378262,55.916284 L33.0763064,56.3807775 L33.4745477,62.8786142 L33.8129523,62.9998085 C34.3479634,63.1925022 34.9644329,63.2863137 35.697559,63.2863137 L35.7905826,63.2863137 L35.0770668,64.9875968 C34.8472735,65.490629 34.7683292,66.2122165 34.80755,66.6467916 L34.9976197,69.9555465 L32.2617218,70.1675097 L31.2017562,74.8560534 L38.7708558,74.8560534 L38.8498001,74.4022088 C39.1726169,72.5477848 39.2042952,72.1071246 39.2042952,71.4783344 L39.1117745,70.9083665 C38.8875124,69.6482507 38.2906532,66.3014641 38.2906532,65.4708525 C38.2906532,64.7609281 38.64012,63.9779829 38.9493604,63.2863137 L45.1140559,63.2863137 L45.2030568,63.4206922 C45.9055103,64.4972419 46.2796158,67.1863342 46.2796158,68.7131788 C46.2796158,71.1081595 46.2499488,71.972746 46.12223,74.6303988 L46.0875347,75.356043 L50.9504034,74.2145859 L50.8573798,73.7009049 C50.6718356,72.668472 50.3892451,69.8739052 50.2343735,67.8734396" id="Fill-22" fill="#00AE7C"></path>
                    <path d="M145.179885,57.4206646 L139.411923,57.4206646 C138.43241,57.4206646 137.212544,57.371477 137.150696,56.5139897 L137.081809,54.9901876 L139.041337,54.2112991 L138.692373,50.7950414 C138.63857,50.2478925 138.334358,49.7337044 137.426247,49.6966869 C134.732587,49.5866486 133.396568,49.9897843 133.396568,49.9897843 L133.942138,63.3713525 L134.485195,63.3495477 C135.20575,63.3206436 136.622725,63.2861616 139.286215,63.2861616 L143.162531,63.2861616 C143.776487,63.2861616 145.203015,63.4093842 145.203015,64.5493199 C145.203015,65.6324618 144.07919,67.6851575 142.63104,68.7079558 C141.216579,69.7033712 139.781503,69.8352143 139.09162,69.8986004 L138.397212,69.9701 L138.678294,74.8564083 L141.878806,74.8564083 L142.017085,74.763104 C145.605782,72.3280632 149.317673,66.8910563 149.317673,62.0062693 C149.317673,59.0494341 147.847901,57.4206646 145.179885,57.4206646" id="Fill-24" fill="#00AE7C"></path>
                    <path d="M61.3182545,69.5947528 C59.1646338,69.5947528 58.2731162,69.5947528 57.9191239,66.2393457 C57.8044787,65.1506259 57.7305627,64.0943598 57.708941,63.2561419 C58.5139718,63.1587808 59.6765147,63.0320086 61.2237225,63.0320086 C64.8320304,63.0320086 65.1543444,63.4741901 65.3464254,65.955883 C65.3977141,66.6642862 65.383132,67.6307976 65.359499,68.0745003 C64.9562294,68.5258094 63.8771563,69.5947528 61.3182545,69.5947528 M66.1720723,57.4205632 L56.2517398,57.4205632 L55.2842949,55.9576118 L52.7062856,56.2410745 L53.1060355,62.8377936 L54.4138962,63.3403187 L54.470716,66.5897441 C54.5033999,70.8508119 55.2646845,75.2056911 60.6565303,75.2056911 C66.1700609,75.2056911 69.3323586,71.6109381 69.3323586,65.3438268 C69.3323586,61.5274759 68.3432921,57.4205632 66.1720723,57.4205632" id="Fill-26" fill="#00AE7C"></path>
                    <path d="M176.744735,61.5369078 C176.338448,59.0131265 175.243285,57.9223783 172.978036,57.7727871 L167.047156,57.2393296 L166.718808,54.6628111 L163.427786,55.0314647 L163.592211,66.5286906 C163.592211,66.9135711 163.718422,67.80909 164.89253,67.80909 L170.512157,67.80909 L169.83032,64.75033 L167.665637,64.6392775 C167.41925,64.6240648 167.0904,64.590597 167.091405,64.3233611 L167.059224,62.9420511 L171.066779,63.4090799 C172.842774,63.6296636 173.207829,64.0480119 173.505504,65.0951504 C173.80318,66.1422889 173.910282,66.9561666 174.001295,67.877547 C174.092307,68.7994346 173.715687,69.0692059 172.599405,69.2223467 C171.483625,69.3759946 163.090387,69.709152 163.090387,69.709152 L161.508484,75.2536617 L174.656985,74.41088 C175.553028,74.3692987 176.429963,73.6989273 176.690932,72.8632448 C177.256113,71.1903586 177.706146,69.7390703 177.994267,68.6655631 L178.025946,68.5453831 L176.744735,61.5369078 Z" id="Fill-28" fill="#00AE7C"></path>
                    <path d="M109.536632,80.3384447 C109.304324,78.6239772 108.986536,76.2756486 108.882953,72.5054429 L108.641594,63.6739831 L110.725825,63.0365724 L110.581513,59.022964 L110.546314,58.9342235 C110.130977,57.8891133 109.06196,57.4129568 108.244359,57.4129568 L105.375714,57.4129568 C104.981495,57.4129568 104.524423,57.2735074 104.246861,57.1208737 L103.821969,55.9515267 L100.899019,56.1858018 L101.231892,63.2784538 L103.295506,63.2784538 C103.970304,63.2784538 104.320777,63.4153678 104.647616,63.593356 L104.799973,72.7518881 L104.799973,72.7534094 C104.86333,76.0403594 104.645102,78.9150462 104.298652,82.2202515 L104.220211,82.9666863 L109.72821,81.823708 L109.666362,81.3201687 C109.62865,81.0164225 109.584401,80.6908714 109.536632,80.3384447" id="Fill-30" fill="#00AE7C"></path>
                    <g id="Group-34" transform="translate(176.493320, 85.207664)">
                        <mask id="mask-4" fill="white">
                            <use xlink:href="#path-3"></use>
                        </mask>
                        <g id="Clip-33"></g>
                        <path d="M9.38336038,23.5949973 L10.7118372,18.5301936 L8.2092524,18.1919653 L8.2092524,12.1849906 L10.3362232,12.1849906 L10.3362232,7.32555795 L7.90705158,7.32555795 L7.06933685,1.52699671 C6.39604752,1.07264509 5.32652817,0.540708862 4.29321258,0.278036828 L2.24568894,7.42849699 L1.19628279,7.67291382 L0.199673782,11.1652349 L1.62419109,12.2448271 L1.62419109,21.4804367 C3.6576355,22.6781806 6.26581456,23.3886121 9.38336038,23.5949973" id="Fill-32" fill="#00AE7C" mask="url(#mask-4)"></path>
                    </g>
                    <path d="M50.2984843,108.802661 L51.6269611,103.737858 L49.1243763,103.399629 L49.1243763,97.3926547 L51.2518499,97.3926547 L51.2518499,92.5332221 L48.8226783,92.5332221 L47.9844608,86.7346608 C47.3116743,86.2803092 46.2416521,85.748373 45.2088393,85.485701 L43.1613157,92.6361611 L42.1114067,92.880578 L41.1153005,96.372899 L42.5398178,97.4524912 L42.5398178,106.688101 C44.5732623,107.885845 47.1809385,108.596276 50.2984843,108.802661" id="Fill-35" fill="#00AE7C"></path>
                    <path d="M7.41674208,98.0688577 L7.86928905,91.1521655 L10.3205852,91.6465772 L10.7761491,99.2270487 L7.41674208,98.0688577 Z M19.3891237,104.063155 L17.8087291,103.771072 L16.3118043,88.4265629 C13.6060762,86.6507376 12.2087117,85.9408132 8.01259559,85.4859545 L4.21421799,87.3084319 L0.901071309,102.654462 L0,106.608741 C1.62212949,107.626976 3.97336243,108.341971 6.82943667,108.684763 L8.20920211,104.573794 L6.92396871,104.274104 L7.15124785,101.759451 L10.8762123,102.656998 L10.9963886,104.747218 L10.3904785,106.611277 C11.9658448,107.609735 14.7615795,108.407386 17.8077234,108.723809 L19.3891237,104.063155 Z" id="Fill-37" fill="#00AE7C"></path>
                    <path d="M37.1963946,108.718231 L38.7782977,104.056563 L37.3432209,103.761437 L37.4623916,95.5420339 L38.1608225,93.2388362 C36.7166948,92.3149203 34.6173797,91.6207157 31.9141657,91.1729562 L30.331257,95.8975032 L31.3897141,96.1241719 L31.2383623,103.355259 L28.6849917,102.587527 L28.8056709,95.5384843 L29.5342715,93.2388362 C27.8960514,92.2053891 25.6127005,91.474167 22.7410386,91.0639321 L21.2214864,95.816369 L22.6962867,96.0805623 L22.5202962,106.039281 C23.8869881,107.154369 26.2507918,108.18021 28.5145323,108.639632 L31.2780858,103.530712 L31.1820453,107.214206 C32.7483607,107.947456 34.421276,108.365297 37.1963946,108.718231" id="Fill-39" fill="#00AE7C"></path>
                    <path d="M69.5169978,108.718231 L71.0989009,104.056563 L69.6638241,103.761437 L69.7834977,95.5420339 L70.4814257,93.2388362 C69.0378008,92.3149203 66.9389885,91.6207157 64.2347689,91.1729562 L62.6518602,95.8975032 L63.7103173,96.1241719 L63.5584626,103.355259 L61.0055949,102.587527 L61.1262741,95.5384843 L61.8548747,93.2388362 C60.2166546,92.2053891 57.9333037,91.474167 55.0616418,91.0639321 L53.5425924,95.816369 L55.0168899,96.0805623 L54.8414023,106.039281 C56.2075913,107.154369 58.571395,108.18021 60.8346327,108.639632 L63.5976834,103.530712 L63.5026485,107.214206 C65.0689639,107.947963 66.742382,108.365297 69.5169978,108.718231" id="Fill-41" fill="#00AE7C"></path>
                    <path d="M99.2571279,104.056715 L97.8185313,103.760575 L98.0981048,93.8054066 C96.8133742,92.7369704 94.4108526,91.7273564 92.0068225,91.2435937 L89.3121567,96.4630594 L89.4373614,93.8028712 C88.169727,92.7537043 85.7304988,91.7238068 83.3772545,91.2430866 L80.5815199,96.3347659 L80.6770576,92.6335243 C79.0328036,91.8622421 77.2402147,91.3987629 74.5973404,91.0600275 L73.0772854,95.8165211 L74.5500744,96.0802073 L74.4288924,104.345249 L73.7002917,106.613964 C75.1006732,107.538387 77.1089761,108.207238 79.9786268,108.707227 L81.5283487,103.956312 L80.5412935,103.764125 L80.616718,96.5305022 L83.2460159,97.2941781 L83.053432,104.341699 L82.3560069,106.612443 C83.7528685,107.534331 85.750612,108.204195 88.6036693,108.70672 L90.1840639,103.956312 L89.1965058,103.763618 L89.3478576,96.5685339 L91.9032395,97.2921497 L91.7106557,104.345249 L90.982055,106.612443 C92.4850138,107.58504 94.5707525,108.238677 97.6777389,108.712298 L99.2571279,104.056715 Z" id="Fill-43" fill="#00AE7C"></path>
                    <path d="M118.826717,104.056715 L117.389126,103.760575 L117.632999,93.8059137 C116.36637,92.7557327 113.926136,91.7238068 111.570378,91.2430866 L108.774643,96.3347659 L108.870181,92.6335243 C107.225927,91.8622421 105.433841,91.3987629 102.789961,91.0600275 L101.269906,95.8165211 L102.743198,96.0802073 L102.622016,104.345249 L101.893415,106.613964 C103.293797,107.538387 105.3021,108.207238 108.17175,108.707227 L109.720969,103.956312 L108.734417,103.764125 L108.809841,96.5305022 L111.439139,97.2941781 L111.246555,104.341699 L110.54913,106.612443 C112.014377,107.579969 114.101121,108.233606 117.246825,108.712298 L118.826717,104.056715 Z" id="Fill-45" fill="#00AE7C"></path>
                    <path d="M143.699855,106.999758 L144.860387,103.5191 L135.867273,102.258984 L136.382674,90.3946255 L139.356913,91.629894 L138.979791,96.5750246 L143.761201,97.4771357 L144.356049,84.8207046 L141.432092,84.5200009 L140.510908,86.271993 L140.280109,86.1999863 C138.353767,85.5995931 136.32686,85.1401706 134.553881,84.9023459 L129.446134,88.0077582 L129.34406,105.839538 C131.285989,107.11081 135.192978,108.455103 138.602165,109.015436 L143.699855,106.999758 Z" id="Fill-47" fill="#00AE7C"></path>
                    <path d="M162.304816,108.718231 L163.886719,104.056563 L162.451139,103.761437 L162.570813,95.5420339 L163.269244,93.2388362 C161.825116,92.3149203 159.725801,91.6207157 157.022587,91.1729562 L155.439678,95.8975032 L156.497632,96.1241719 L156.346783,103.355259 L153.793413,102.587527 L153.914092,95.5384843 L154.642693,93.2388362 C153.004473,92.2053891 150.721122,91.474167 147.84946,91.0639321 L146.329405,95.816369 L147.804708,96.0805623 L147.628717,106.039281 C148.995409,107.154369 151.35871,108.18021 153.622954,108.639632 L156.386507,103.530712 L156.290467,107.214206 C157.856782,107.947456 159.529194,108.365297 162.304816,108.718231" id="Fill-49" fill="#00AE7C"></path>
                    <path d="M174.589053,104.059606 L173.087602,103.763466 L173.192694,89.8976277 C173.192694,86.852559 172.953347,84.4667059 172.499794,82.966737 L166.285821,84.8946889 L167.161248,88.4001942 L167.043586,104.345604 L166.314985,106.612291 C167.817944,107.584887 169.903683,108.238525 173.010166,108.712653 L174.589053,104.059606 Z" id="Fill-51" fill="#00AE7C"></path>
                </g>
            </g>
        </g>
    </g>
</svg>