<?xml version="1.0" encoding="UTF-8"?>
<svg width="233px" height="192px" viewBox="0 0 233 192" version="1.1" xmlns="http://www.w3.org/2000/svg" xmlns:xlink="http://www.w3.org/1999/xlink">
    <!-- Generator: Sketch 46.2 (44496) - http://www.bohemiancoding.com/sketch -->
    <title>Group 3</title>
    <desc>Created with Sketch.</desc>
    <defs></defs>
    <g id="Page-1" stroke="none" stroke-width="1" fill="none" fill-rule="evenodd">
        <g id="Desktop-Landscape" transform="translate(-204.000000, -339.000000)" fill="#FFFFFF">
            <g id="Group-3" transform="translate(204.000000, 339.000000)">
                <g id="Group" transform="translate(0.760591, 0.172407)">
                    <path d="M73.2872031,188.134301 L75.3472975,188.134301 L75.3472975,181.21406 L78.1334784,181.21406 L78.1334784,179.480323 L70.5156043,179.480323 L70.5156043,181.21406 L73.2872031,181.21406 L73.2872031,188.134301 Z M83.0390876,188.134301 L85.247014,188.134301 L86.0032702,184.532449 L86.7886907,188.134301 L89.055951,188.134301 L90.1822901,181.453406 L88.3595315,181.453406 L87.8260289,186.59478 L87.0255236,182.708958 L85.069515,182.708958 L84.3137615,186.59478 L83.824508,181.453406 L81.8830815,181.453406 L83.0390876,188.134301 Z M94.6137307,188.134301 L100.86793,188.134301 L100.86793,186.624698 L98.8375024,186.624698 L98.8375024,181.453406 L94.6137307,181.453406 L94.6137307,182.963009 L96.851324,182.963009 L96.851324,186.624698 L94.6137307,186.624698 L94.6137307,188.134301 Z M96.6738251,180.392069 L99.0155042,180.392069 L99.0155042,178.329738 L96.6738251,178.329738 L96.6738251,180.392069 Z M106.321624,188.134301 L112.575823,188.134301 L112.575823,186.624698 L110.441813,186.624698 L110.441813,178.329738 L106.321624,178.329738 L106.321624,179.854047 L108.455634,179.854047 L108.455634,186.624698 L106.321624,186.624698 L106.321624,188.134301 Z M118.03002,188.134301 L124.284219,188.134301 L124.284219,186.624698 L122.253791,186.624698 L122.253791,181.453406 L118.03002,181.453406 L118.03002,182.963009 L120.267613,182.963009 L120.267613,186.624698 L118.03002,186.624698 L118.03002,188.134301 Z M120.089611,180.392069 L122.43129,180.392069 L122.43129,178.329738 L120.089611,178.329738 L120.089611,180.392069 Z M132.553761,191.048541 C134.76219,191.048541 135.992112,190.137302 135.992112,188.238762 L135.992112,181.453406 L134.228687,181.453406 L134.228687,182.335233 C133.858101,181.857048 133.279847,181.303814 132.079592,181.303814 C130.553,181.303814 129.234077,182.185642 129.234077,184.636909 C129.234077,187.028341 130.479084,187.88025 131.90159,187.88025 C133.11693,187.88025 133.754016,187.297098 134.005933,186.998422 L134.005933,188.074465 C134.005933,188.88175 133.872684,189.598774 132.657343,189.598774 C131.575756,189.598774 131.33842,189.030834 131.279087,188.403566 L129.381909,188.403566 C129.456328,190.690029 131.160419,191.048541 132.553761,191.048541 L132.553761,191.048541 Z M132.702095,186.221055 C131.723588,186.221055 131.294171,185.712952 131.294171,184.636909 C131.294171,183.560867 131.723588,182.963009 132.672428,182.963009 C133.339181,182.963009 133.724349,183.202355 134.005933,183.456407 L134.005933,185.728165 C133.6801,186.02684 133.294932,186.221055 132.702095,186.221055 L132.702095,186.221055 Z M141.460891,188.134301 L143.446566,188.134301 L143.446566,183.456407 C143.609483,183.276897 144.009736,182.977715 144.661906,182.977715 C145.462412,182.977715 145.699244,183.411276 145.699244,184.35294 L145.699244,188.134301 L147.685423,188.134301 L147.685423,183.994428 C147.685423,181.916885 146.618418,181.303814 145.403078,181.303814 C144.261654,181.303814 143.728151,181.841836 143.446566,182.185642 L143.446566,178.329738 L141.460891,178.329738 L141.460891,188.134301 Z M157.185389,188.283893 C158.193061,188.283893 158.963396,188.029841 159.45265,187.805708 L159.45265,186.236268 C159.008148,186.41527 158.37056,186.624698 157.689225,186.624698 C156.696136,186.624698 156.488467,186.176431 156.488467,185.100389 L156.488467,182.963009 L159.763902,182.963009 L159.763902,181.453406 L156.488467,181.453406 L156.488467,178.329738 L154.502792,178.329738 L154.502792,181.453406 L152.442697,181.453406 L152.442697,182.963009 L154.502792,182.963009 L154.502792,185.174931 C154.502792,187.506525 155.436547,188.283893 157.185389,188.283893 L157.185389,188.283893 Z" id="Fill-1"></path>
                    <path d="M89.6523389,168.881023 L89.6523389,161.13879 L83.2352228,161.13879 C82.6127193,161.13879 82.1827997,160.840114 82.1827997,160.840114 L81.5160472,162.633688 C81.5160472,162.633688 82.0937988,163.052036 82.6423863,163.052036 L82.6423863,168.881023 L89.6523389,168.881023 Z M84.539061,166.967776 L87.7551614,166.967776 L87.7551614,163.052036 L84.539061,163.052036 L84.539061,166.967776 Z M97.8630495,162.484096 L94.8988669,160.840114 L93.9651116,162.484096 L95.5213704,163.365924 L94.3206124,165.801979 L95.8326221,166.594052 L97.8630495,162.484096 Z M109.60061,167.207122 L109.60061,162.573851 C109.60061,161.692024 108.874523,161.13879 108.029769,161.13879 L105.39142,161.13879 L104.280166,163.291382 C104.102164,162.334505 103.77633,161.512514 103.227742,160.735654 L101.745903,161.871533 C102.961243,163.903945 102.709325,166.713725 101.686569,168.881023 L103.642577,168.881023 C104.532083,166.90794 104.502416,164.517016 104.324415,163.590057 C104.324415,163.590057 105.139502,163.052036 106.784762,163.052036 C107.12568,163.052036 107.718517,163.052036 107.718517,163.635188 L107.718517,166.160998 C107.718517,166.415049 107.673765,166.429755 107.496266,166.504804 L105.065586,167.19191 L105.658423,168.925646 L108.963524,167.954571 C109.363274,167.834898 109.60061,167.505798 109.60061,167.207122 L109.60061,167.207122 Z M116.921814,168.881023 L116.921814,162.349718 L114.476552,160.840114 L113.60213,162.42426 L115.025139,163.365924 L115.025139,168.881023 L116.921814,168.881023 Z M127.207201,162.633688 L126.525364,160.840114 C126.525364,160.840114 126.036613,161.13879 125.666027,161.13879 L122.464509,161.13879 C121.85709,161.13879 121.442255,160.840114 121.442255,160.840114 L120.760418,162.633688 C120.760418,162.633688 121.42717,163.052036 121.916424,163.052036 L124.510021,163.052036 L124.510021,168.881023 L126.407199,168.881023 L126.407199,162.9922 C126.98495,162.783279 127.207201,162.633688 127.207201,162.633688 L127.207201,162.633688 Z M138.915597,167.207122 L138.915597,162.573851 C138.915597,161.692024 138.189008,161.13879 137.344253,161.13879 L134.706407,161.13879 L133.59465,163.291382 C133.417151,162.334505 133.090815,161.512514 132.54273,160.735654 L131.060387,161.871533 C132.275727,163.903945 132.023809,166.713725 131.001053,168.881023 L132.957565,168.881023 C133.847071,166.90794 133.817404,164.517016 133.639402,163.590057 C133.639402,163.590057 134.454489,163.052036 136.099749,163.052036 C136.440668,163.052036 137.033504,163.052036 137.033504,163.635188 L137.033504,166.160998 C137.033504,166.415049 136.988752,166.429755 136.810751,166.504804 L134.380573,167.19191 L134.97341,168.925646 L138.278008,167.954571 C138.678261,167.834898 138.915597,167.505798 138.915597,167.207122 L138.915597,167.207122 Z M149.467484,162.633688 L148.785646,160.840114 C148.785646,160.840114 148.296896,161.13879 147.92631,161.13879 L144.725294,161.13879 C144.117373,161.13879 143.702538,160.840114 143.702538,160.840114 L143.020701,162.633688 C143.020701,162.633688 143.687453,163.052036 144.176707,163.052036 L146.770304,163.052036 L146.770304,168.881023 L148.667481,168.881023 L148.667481,162.9922 C149.245233,162.783279 149.467484,162.633688 149.467484,162.633688 L149.467484,162.633688 Z" id="Fill-3"></path>
                    <path d="M0.0995278078,121.086223 L4.76780126,121.086223 L4.76780126,119.792132 L3.19696043,119.792132 L3.19696043,115.921016 L4.76780126,115.921016 L4.76780126,114.626925 L0.0995278078,114.626925 L0.0995278078,115.921016 L1.65930638,115.921016 L1.65930638,119.792132 L0.0995278078,119.792132 L0.0995278078,121.086223 Z M6.74794569,121.086223 L8.23028845,121.086223 L8.23028845,117.594409 C8.45153363,117.37129 8.73915238,117.237419 9.13739371,117.237419 C9.73475572,117.237419 9.91175187,117.560941 9.91175187,118.263767 L9.91175187,121.086223 L11.3940946,121.086223 L11.3940946,117.996024 C11.3940946,116.445346 10.5423007,115.987952 9.65731991,115.987952 C8.81658819,115.987952 8.30772426,116.400722 8.06435456,116.768869 L8.06435456,116.099511 L6.74794569,116.099511 L6.74794569,121.086223 Z M16.3831736,121.197783 C17.1354072,121.197783 17.7106447,121.008131 18.0756993,120.840792 L18.0756993,119.669417 C17.7438315,119.803288 17.2681544,119.959472 16.7592904,119.959472 C16.018119,119.959472 15.8632474,119.624793 15.8632474,118.821564 L15.8632474,117.226263 L18.3080067,117.226263 L18.3080067,116.099511 L15.8632474,116.099511 L15.8632474,113.767917 L14.3809047,113.767917 L14.3809047,116.099511 L12.8432506,116.099511 L12.8432506,117.226263 L14.3809047,117.226263 L14.3809047,118.877344 C14.3809047,120.617673 15.077827,121.197783 16.3831736,121.197783 L16.3831736,121.197783 Z M22.4669134,121.197783 C23.6616374,121.197783 24.8010502,120.807324 24.9891086,119.524389 L23.5620771,119.524389 C23.4846413,119.948316 22.9979019,120.071031 22.4669134,120.071031 C21.6261817,120.071031 21.2058159,119.780976 21.1394423,118.810408 L25.0112331,118.810408 L25.0112331,118.587289 C25.0112331,116.646153 23.7833223,115.987952 22.4116021,115.987952 C21.084131,115.987952 19.6792241,116.612685 19.6792241,118.631913 C19.6792241,120.494958 20.8628858,121.197783 22.4669134,121.197783 L22.4669134,121.197783 Z M21.1615668,117.9514 C21.2721894,117.270886 21.725742,117.036611 22.3673531,117.036611 C23.0200264,117.036611 23.4403923,117.282042 23.5288903,117.9514 L21.1615668,117.9514 Z M26.6484475,121.086223 L31.3167209,121.086223 L31.3167209,119.959472 L29.2923275,119.959472 L29.2923275,118.051803 C29.8122537,117.505162 30.3321798,117.415914 30.6861721,117.415914 C31.150787,117.415914 31.4715926,117.572097 31.7370868,117.739437 L31.7370868,116.266851 C31.5822151,116.144135 31.2392851,115.987952 30.763608,115.987952 C29.8011914,115.987952 29.3697633,116.623841 29.1263936,117.181639 L29.1263936,116.099511 L26.6484475,116.099511 L26.6484475,117.226263 L27.8099847,117.226263 L27.8099847,119.959472 L26.6484475,119.959472 L26.6484475,121.086223 Z M33.2968654,121.086223 L34.7792081,121.086223 L34.7792081,117.594409 C35.0004533,117.37129 35.288072,117.237419 35.6863134,117.237419 C36.2836754,117.237419 36.4606715,117.560941 36.4606715,118.263767 L36.4606715,121.086223 L37.9430143,121.086223 L37.9430143,117.996024 C37.9430143,116.445346 37.0912203,115.987952 36.2062396,115.987952 C35.3655079,115.987952 34.8566439,116.400722 34.6132742,116.768869 L34.6132742,116.099511 L33.2968654,116.099511 L33.2968654,121.086223 Z M41.3944392,121.197783 C42.4453539,121.197783 42.9984668,120.706921 43.2528988,120.383398 L43.2528988,120.483802 C43.2528988,120.885416 43.4630817,121.197783 44.115755,121.197783 C44.5029341,121.197783 44.9233,121.086223 45.1445451,120.974664 L45.1445451,120.015251 C45.0339225,120.037563 44.8790509,120.059875 44.7573661,120.059875 C44.5693077,120.059875 44.4918718,120.004096 44.4918718,119.814444 L44.4918718,117.9514 C44.4918718,116.456502 43.4630817,115.987952 42.1909219,115.987952 C40.8081395,115.987952 39.7682871,116.534593 39.7682871,117.850996 L41.1510695,117.850996 C41.1510695,117.337822 41.5382486,117.137015 42.1024238,117.137015 C42.8989065,117.137015 43.0205913,117.538629 43.0205913,118.074115 L43.0205913,118.453418 C42.7772216,118.386482 42.27942,118.297234 41.7152447,118.297234 C40.6422056,118.297234 39.6023532,118.620757 39.6023532,119.758664 C39.6023532,120.7627 40.4209604,121.197783 41.3944392,121.197783 L41.3944392,121.197783 Z M41.7152447,120.204903 C41.3501902,120.204903 41.084696,120.059875 41.084696,119.702885 C41.084696,119.290114 41.427626,119.189711 42.0913616,119.189711 C42.4011048,119.189711 42.7661594,119.212023 43.0205913,119.256647 L43.0205913,119.814444 C42.8325329,119.959472 42.4232293,120.204903 41.7152447,120.204903 L41.7152447,120.204903 Z M49.5694489,121.197783 C50.3216825,121.197783 50.89692,121.008131 51.2619746,120.840792 L51.2619746,119.669417 C50.9301068,119.803288 50.4544296,119.959472 49.9455657,119.959472 C49.2043943,119.959472 49.0495227,119.624793 49.0495227,118.821564 L49.0495227,117.226263 L51.494282,117.226263 L51.494282,116.099511 L49.0495227,116.099511 L49.0495227,113.767917 L47.5671799,113.767917 L47.5671799,116.099511 L46.0295259,116.099511 L46.0295259,117.226263 L47.5671799,117.226263 L47.5671799,118.877344 C47.5671799,120.617673 48.2641023,121.197783 49.5694489,121.197783 L49.5694489,121.197783 Z M53.1973671,121.086223 L57.8656406,121.086223 L57.8656406,119.959472 L56.3501111,119.959472 L56.3501111,116.099511 L53.1973671,116.099511 L53.1973671,117.226263 L54.8677683,117.226263 L54.8677683,119.959472 L53.1973671,119.959472 L53.1973671,121.086223 Z M54.7350212,115.307438 L56.4828582,115.307438 L56.4828582,113.767917 L54.7350212,113.767917 L54.7350212,115.307438 Z M62.1356727,121.197783 C63.4299571,121.197783 64.8680508,120.606517 64.8680508,118.564977 C64.8680508,116.579217 63.5073929,115.987952 62.2020463,115.987952 C60.9077619,115.987952 59.4696682,116.568061 59.4696682,118.609601 C59.4696682,120.606517 60.8413884,121.197783 62.1356727,121.197783 L62.1356727,121.197783 Z M62.1688595,119.970628 C61.4276881,119.970628 61.0073222,119.580169 61.0073222,118.587289 C61.0073222,117.594409 61.4276881,117.203951 62.1688595,117.203951 C62.9100309,117.203951 63.3303967,117.594409 63.3303967,118.587289 C63.3303967,119.580169 62.9100309,119.970628 62.1688595,119.970628 L62.1688595,119.970628 Z M66.4831406,121.086223 L67.9654834,121.086223 L67.9654834,117.594409 C68.1867286,117.37129 68.4743473,117.237419 68.8725887,117.237419 C69.4699507,117.237419 69.6469468,117.560941 69.6469468,118.263767 L69.6469468,121.086223 L71.1292896,121.086223 L71.1292896,117.996024 C71.1292896,116.445346 70.2774956,115.987952 69.3925149,115.987952 C68.5517831,115.987952 68.0429192,116.400722 67.7995495,116.768869 L67.7995495,116.099511 L66.4831406,116.099511 L66.4831406,121.086223 Z M74.5807145,121.197783 C75.6316291,121.197783 76.1847421,120.706921 76.4391741,120.383398 L76.4391741,120.483802 C76.4391741,120.885416 76.649357,121.197783 77.3020303,121.197783 C77.6892094,121.197783 78.1095752,121.086223 78.3308204,120.974664 L78.3308204,120.015251 C78.2201978,120.037563 78.0653262,120.059875 77.9436413,120.059875 C77.7555829,120.059875 77.6781471,120.004096 77.6781471,119.814444 L77.6781471,117.9514 C77.6781471,116.456502 76.649357,115.987952 75.3771972,115.987952 C73.9944148,115.987952 72.9545624,116.534593 72.9545624,117.850996 L74.3373448,117.850996 C74.3373448,117.337822 74.7245239,117.137015 75.2886991,117.137015 C76.0851818,117.137015 76.2068666,117.538629 76.2068666,118.074115 L76.2068666,118.453418 C75.9634969,118.386482 75.4656952,118.297234 74.90152,118.297234 C73.8284809,118.297234 72.7886285,118.620757 72.7886285,119.758664 C72.7886285,120.7627 73.6072357,121.197783 74.5807145,121.197783 L74.5807145,121.197783 Z M74.90152,120.204903 C74.5364655,120.204903 74.2709712,120.059875 74.2709712,119.702885 C74.2709712,119.290114 74.6139013,119.189711 75.2776368,119.189711 C75.5873801,119.189711 75.9524347,119.212023 76.2068666,119.256647 L76.2068666,119.814444 C76.0188082,119.959472 75.6095046,120.204903 74.90152,120.204903 L74.90152,120.204903 Z M79.7467896,121.086223 L84.4150631,121.086223 L84.4150631,119.959472 L82.8220977,119.959472 L82.8220977,113.767917 L79.7467896,113.767917 L79.7467896,114.905824 L81.339755,114.905824 L81.339755,119.959472 L79.7467896,119.959472 L79.7467896,121.086223 Z M90.3771181,121.086223 L91.9147721,121.086223 L91.9147721,118.799252 L94.7356482,118.799252 L94.7356482,117.505162 L91.9147721,117.505162 L91.9147721,115.921016 L95.2002631,115.921016 L95.2002631,114.626925 L90.3771181,114.626925 L90.3771181,121.086223 Z M99.459233,121.197783 C100.653957,121.197783 101.79337,120.807324 101.981428,119.524389 L100.554397,119.524389 C100.476961,119.948316 99.9902214,120.071031 99.459233,120.071031 C98.6185013,120.071031 98.1981354,119.780976 98.1317619,118.810408 L102.003553,118.810408 L102.003553,118.587289 C102.003553,116.646153 100.775642,115.987952 99.4039217,115.987952 C98.0764506,115.987952 96.6715436,116.612685 96.6715436,118.631913 C96.6715436,120.494958 97.8552054,121.197783 99.459233,121.197783 L99.459233,121.197783 Z M98.1538864,117.9514 C98.264509,117.270886 98.7180616,117.036611 99.3596727,117.036611 C100.012346,117.036611 100.432712,117.282042 100.52121,117.9514 L98.1538864,117.9514 Z M105.90853,121.197783 C107.390873,121.208939 108.640908,120.796168 108.640908,119.557857 C108.640908,118.41995 107.612118,118.152207 106.638639,118.018335 C105.477102,117.862152 104.935051,117.806372 104.935051,117.449382 C104.935051,117.159327 105.277981,117.047767 105.797908,117.047767 C106.284647,117.047767 106.771386,117.148171 106.83776,117.572097 L108.35329,117.572097 C108.275854,116.344942 107.224939,115.987952 105.930655,115.987952 C104.448312,115.987952 103.40846,116.456502 103.40846,117.560941 C103.40846,118.676537 104.459374,118.921968 105.410729,119.078151 C106.384207,119.234335 107.103254,119.267802 107.103254,119.680573 C107.103254,120.037563 106.59439,120.137967 106.019153,120.137967 C105.366479,120.137967 104.868678,120.004096 104.824429,119.524389 L103.308899,119.524389 C103.342086,120.796168 104.492561,121.186627 105.90853,121.197783 L105.90853,121.197783 Z M113.287057,121.197783 C114.039291,121.197783 114.614528,121.008131 114.979583,120.840792 L114.979583,119.669417 C114.647715,119.803288 114.172038,119.959472 113.663174,119.959472 C112.922003,119.959472 112.767131,119.624793 112.767131,118.821564 L112.767131,117.226263 L115.21189,117.226263 L115.21189,116.099511 L112.767131,116.099511 L112.767131,113.767917 L111.284788,113.767917 L111.284788,116.099511 L109.747134,116.099511 L109.747134,117.226263 L111.284788,117.226263 L111.284788,118.877344 C111.284788,120.617673 111.981711,121.197783 113.287057,121.197783 L113.287057,121.197783 Z M116.914975,121.086223 L121.583249,121.086223 L121.583249,119.959472 L120.067719,119.959472 L120.067719,116.099511 L116.914975,116.099511 L116.914975,117.226263 L118.585377,117.226263 L118.585377,119.959472 L116.914975,119.959472 L116.914975,121.086223 Z M118.45263,115.307438 L120.200466,115.307438 L120.200466,113.767917 L118.45263,113.767917 L118.45263,115.307438 Z M125.123172,121.086223 L126.638701,121.086223 L128.88434,116.099511 L127.258188,116.099511 L126.417456,118.163363 L125.908592,119.647105 L125.410791,118.152207 L124.581121,116.099511 L122.888596,116.099511 L125.123172,121.086223 Z M131.660967,121.197783 C132.711882,121.197783 133.264995,120.706921 133.519427,120.383398 L133.519427,120.483802 C133.519427,120.885416 133.72961,121.197783 134.382283,121.197783 C134.769462,121.197783 135.189828,121.086223 135.411073,120.974664 L135.411073,120.015251 C135.300451,120.037563 135.145579,120.059875 135.023894,120.059875 C134.835836,120.059875 134.7584,120.004096 134.7584,119.814444 L134.7584,117.9514 C134.7584,116.456502 133.72961,115.987952 132.45745,115.987952 C131.074667,115.987952 130.034815,116.534593 130.034815,117.850996 L131.417597,117.850996 C131.417597,117.337822 131.804777,117.137015 132.368952,117.137015 C133.165434,117.137015 133.287119,117.538629 133.287119,118.074115 L133.287119,118.453418 C133.04375,118.386482 132.545948,118.297234 131.981773,118.297234 C130.908734,118.297234 129.868881,118.620757 129.868881,119.758664 C129.868881,120.7627 130.687488,121.197783 131.660967,121.197783 L131.660967,121.197783 Z M131.981773,120.204903 C131.616718,120.204903 131.351224,120.059875 131.351224,119.702885 C131.351224,119.290114 131.694154,119.189711 132.35789,119.189711 C132.667633,119.189711 133.032687,119.212023 133.287119,119.256647 L133.287119,119.814444 C133.099061,119.959472 132.689757,120.204903 131.981773,120.204903 L131.981773,120.204903 Z M136.827042,121.086223 L141.495316,121.086223 L141.495316,119.959472 L139.90235,119.959472 L139.90235,113.767917 L136.827042,113.767917 L136.827042,114.905824 L138.420008,114.905824 L138.420008,119.959472 L136.827042,119.959472 L136.827042,121.086223 Z M150.192263,116.432669 L148.036128,115.236446 L147.356805,116.432669 L148.488675,117.074136 L147.615762,118.846412 L148.715451,119.422465 L150.192263,116.432669 Z M157.545648,119.868196 L157.545648,116.497576 C157.545648,115.856109 157.017677,115.453987 156.402716,115.453987 L154.483917,115.453987 L153.674863,117.01937 C153.545636,116.323644 153.3083,115.725787 152.909556,115.160383 L151.831489,115.98643 C152.715464,117.465609 152.531931,119.509684 151.788245,121.086223 L153.211254,121.086223 C153.858396,119.651162 153.836775,117.91134 153.707547,117.236912 C153.707547,117.236912 154.300384,116.845439 155.497119,116.845439 C155.745014,116.845439 156.176442,116.845439 156.176442,117.269872 L156.176442,119.107055 C156.176442,119.292143 156.144261,119.302792 156.014531,119.357557 L154.246581,119.857547 L154.678009,121.118677 L157.082039,120.412302 C157.373178,120.325083 157.545648,120.085737 157.545648,119.868196 L157.545648,119.868196 Z M161.68595,121.086223 L161.68595,116.3348 L159.906938,115.236446 L159.270858,116.389059 L160.306185,117.074136 L160.306185,121.086223 L161.68595,121.086223 Z M169.470764,116.475771 C169.470764,116.475771 168.93173,115.84546 167.820979,115.138578 L166.979744,116.236932 C166.979744,116.236932 167.756114,116.758727 167.788798,116.823634 L167.314126,117.737408 C166.063588,116.377903 164.564652,115.116773 164.564652,115.116773 L163.59419,116.280035 C163.59419,116.280035 164.251892,116.867244 164.306197,116.954463 L163.497144,121.086223 L164.866853,121.086223 L165.459689,117.998052 C165.459689,117.998052 167.055672,119.553294 168.413815,121.314413 L169.43808,120.227215 L168.241345,118.846412 L169.470764,116.475771 Z M175.217105,115.453987 L172.780391,115.453987 C172.802013,114.899232 172.866878,114.562018 172.618983,113.300888 L171.270895,113.550883 C171.464988,114.475306 171.486609,115.964626 171.303579,116.845439 L173.901702,116.845439 C173.88008,117.976247 173.244,119.444269 172.058327,120.042127 L172.73765,121.227701 C174.65645,120.314434 175.486622,117.59593 175.217105,115.453987 L175.217105,115.453987 Z M179.670167,120.651141 L179.670167,116.203972 L177.740306,115.236446 L176.996117,116.389059 L178.290402,117.030526 L178.290402,119.466074 L176.274054,119.759679 L176.489768,121.086223 L179.670167,120.651141 Z M184.424927,116.432669 L182.268793,115.236446 L181.589469,116.432669 L182.721842,117.074136 L181.848427,118.846412 L182.948116,119.422465 L184.424927,116.432669 Z M190.603199,119.694264 L189.81627,119.694264 L189.81627,116.30184 C189.81627,115.812499 189.654359,115.453987 189.083144,115.453987 L187.207086,115.453987 C186.926507,115.453987 186.549384,115.236446 186.549384,115.236446 L186.064153,116.541186 C186.064153,116.541186 186.538322,116.845439 186.883263,116.845439 L188.436002,116.845439 L188.436002,119.694264 L185.891682,119.694264 L185.514057,121.086223 L190.226077,121.086223 L190.603199,119.694264 Z M199.757219,115.453987 L197.320505,115.453987 C197.342127,114.899232 197.406489,114.562018 197.158594,113.300888 L195.811009,113.550883 C196.005102,114.475306 196.026723,115.964626 195.84319,116.845439 L198.441816,116.845439 C198.420194,117.976247 197.784114,119.444269 196.597938,120.042127 L197.277261,121.227701 C199.196563,120.314434 200.026736,117.59593 199.757219,115.453987 L199.757219,115.453987 Z M206.538887,119.694264 L205.751958,119.694264 L205.751958,116.30184 C205.751958,115.812499 205.590047,115.453987 205.018832,115.453987 L203.142773,115.453987 C202.862194,115.453987 202.485072,115.236446 202.485072,115.236446 L201.999841,116.541186 C201.999841,116.541186 202.474009,116.845439 202.819453,116.845439 L204.37169,116.845439 L204.37169,119.694264 L201.82737,119.694264 L201.449745,121.086223 L206.161764,121.086223 L206.538887,119.694264 Z M210.582143,116.432669 L208.426008,115.236446 L207.746684,116.432669 L208.878555,117.074136 L208.005139,118.846412 L209.104828,119.422465 L210.582143,116.432669 Z M218.280469,116.225776 C217.924969,115.921523 215.77889,115.214641 215.692906,115.399221 L215.121692,116.649703 C215.347965,116.627898 216.318427,116.769376 216.86802,117.052331 C216.86802,117.052331 216.598503,119.520333 214.517793,119.781483 L214.161789,116.160362 L212.803143,115.236446 L212.178125,116.389059 L212.92181,116.900205 L213.331617,121.303764 C216.86802,121.031965 217.978771,119.368206 218.280469,116.225776 L218.280469,116.225776 Z M225.827947,115.453987 L221.051565,115.453987 C220.695562,115.453987 220.35062,115.236446 220.35062,115.236446 L219.85483,116.541186 C219.85483,116.541186 220.307377,116.845439 220.67394,116.845439 L221.051565,121.173442 C224.695574,120.836228 225.827947,118.389525 225.827947,115.453987 L225.827947,115.453987 Z M224.361695,116.845439 C224.361695,117.748057 223.542082,119.216079 222.25886,119.498528 L222.010965,116.845439 L224.361695,116.845439 Z M231.801064,120.172956 L231.801064,117.204458 C231.801064,116.747571 231.779443,116.465122 231.283652,116.291191 L229.526262,115.399221 C229.073212,115.171031 228.835876,115.149227 228.609603,115.540699 L227.660763,117.182653 C227.337443,117.737408 227.445048,118.248047 227.908658,118.487393 L229.213501,119.17247 L229.795779,118.063466 L229.127015,117.704447 C229.008347,117.63954 228.943985,117.606579 229.029969,117.465609 L229.342729,116.932658 C229.418153,116.802336 229.418153,116.780532 229.612246,116.889049 L230.281009,117.248067 C230.378056,117.312975 230.420796,117.280521 230.420796,117.465609 L230.420796,119.520333 C230.420796,119.640006 230.313191,119.683615 230.281009,119.683615 C230.281009,119.683615 227.294199,120.085737 227.294199,120.096893 L227.46667,121.390476 L231.046317,120.977706 C231.499367,120.922941 231.801064,120.542624 231.801064,120.172956 L231.801064,120.172956 Z" id="Fill-8"></path>
                    <path d="M0.602357779,103.072905 L6.48044015,103.072905 L6.48044015,97.1450363 L8.83871271,97.1450363 C13.5552578,97.1450363 18.0254163,95.1927442 18.0254163,89.6908299 C18.0254163,84.1889157 13.5552578,82.2366235 8.83871271,82.2366235 L0.602357779,82.2366235 L0.602357779,103.072905 Z M6.48044015,87.0641096 L8.83871271,87.0641096 C10.8450043,87.0641096 12.0417396,87.7030416 12.0417396,89.6908299 C12.0417396,91.6786183 10.8450043,92.3175503 8.83871271,92.3175503 L6.48044015,92.3175503 L6.48044015,87.0641096 Z M30.1330592,103.427867 C34.3216328,103.427867 37.9118388,102.150003 38.5102065,98.1034343 L33.0896994,98.1034343 C32.7729165,99.0618323 31.505785,99.345802 30.0978611,99.345802 C27.8451828,99.345802 26.3668627,98.6358776 26.2612684,95.8671724 L38.6509989,95.8671724 L38.6509989,95.0152631 C38.6509989,88.9099131 34.7792081,86.6381549 29.9570687,86.6381549 C25.3813159,86.6381549 20.6999689,88.6969357 20.6999689,95.1927442 C20.6999689,101.014124 24.4309673,103.427867 30.1330592,103.427867 L30.1330592,103.427867 Z M26.2612684,92.8854898 C26.6484475,91.0041901 28.0563714,90.4362506 29.7810782,90.4362506 C31.505785,90.4362506 32.9137089,91.0041901 33.300888,92.8854898 L26.2612684,92.8854898 Z M42.3116011,103.072905 L57.8339623,103.072905 L57.8339623,98.8843511 L51.5335028,98.8843511 L51.5335028,93.7373991 C52.4134552,92.8854898 53.786181,91.9980843 55.581284,91.9980843 C57.0948022,91.9980843 58.2563395,92.5305276 59.4178767,93.3114445 L59.4178767,87.7385378 C58.7139147,87.135102 57.5171794,86.6381549 56.0740574,86.6381549 C53.1878134,86.6381549 51.8502856,88.4839584 50.9703332,90.4007544 L50.9703332,86.9931171 L42.3116011,86.9931171 L42.3116011,91.1816712 L45.866609,91.1816712 L45.866609,98.8843511 L42.3116011,98.8843511 L42.3116011,103.072905 Z M63.5355513,103.072905 L80.2546479,103.072905 L80.2546479,98.8843511 L74.5173579,98.8843511 L74.5173579,91.9625881 L80.2546479,91.9625881 L80.2546479,87.774034 L74.5173579,87.774034 L74.5173579,87.7385378 C74.5173579,84.1889157 77.8259791,83.5499837 80.2546479,83.5499837 L80.2546479,79.3259334 C75.0101313,79.3259334 68.8856622,80.9587596 68.8856622,87.7385378 L68.8856622,87.774034 L63.5355513,87.774034 L63.5355513,91.9625881 L68.8856622,91.9625881 L68.8856622,98.8843511 L63.5355513,98.8843511 L63.5355513,103.072905 Z M92.8902622,103.427867 C97.3252226,103.427867 102.147362,101.475575 102.147362,94.9087744 C102.147362,88.5194546 97.5716093,86.6381549 93.171847,86.6381549 C88.7368867,86.6381549 83.9147473,88.5549509 83.9147473,95.1217517 C83.9147473,101.511071 88.4905,103.427867 92.8902622,103.427867 L92.8902622,103.427867 Z M93.0310546,98.7778625 C90.9543669,98.7778625 89.7928296,97.8194645 89.7928296,95.0152631 C89.7928296,92.2110616 90.9543669,91.2881599 93.0310546,91.2881599 C95.1077424,91.2881599 96.2692797,92.2110616 96.2692797,95.0152631 C96.2692797,97.8194645 95.1077424,98.7778625 93.0310546,98.7778625 L93.0310546,98.7778625 Z M105.667172,103.072905 L121.189533,103.072905 L121.189533,98.8843511 L114.889073,98.8843511 L114.889073,93.7373991 C115.769026,92.8854898 117.141752,91.9980843 118.936855,91.9980843 C120.450373,91.9980843 121.61191,92.5305276 122.773447,93.3114445 L122.773447,87.7385378 C122.069485,87.135102 120.87275,86.6381549 119.429628,86.6381549 C116.543384,86.6381549 115.205856,88.4839584 114.325904,90.4007544 L114.325904,86.9931171 L105.667172,86.9931171 L105.667172,91.1816712 L109.22218,91.1816712 L109.22218,98.8843511 L105.667172,98.8843511 L105.667172,103.072905 Z M141.075956,103.072905 L145.792501,103.072905 L145.792501,92.2110616 C145.792501,89.6553337 145.334925,86.6381549 142.167097,86.6381549 C139.808824,86.6381549 138.682485,88.3064773 138.260108,88.9454093 C137.802532,87.6320491 136.816986,86.6381549 135.057081,86.6381549 C132.66361,86.6381549 131.502073,88.3419735 131.0093,89.1938828 L131.0093,86.9931171 L126.855924,86.9931171 L126.855924,103.072905 L131.572469,103.072905 L131.572469,91.7496107 C131.889252,91.3591523 132.417223,90.8977014 133.050789,90.8977014 C133.684355,90.8977014 133.96594,91.4301448 133.96594,92.5305276 L133.96594,103.072905 L138.682485,103.072905 L138.682485,91.7496107 C138.999268,91.3591523 139.527239,90.8977014 140.160805,90.8977014 C140.794371,90.8977014 141.075956,91.4301448 141.075956,92.5305276 L141.075956,103.072905 Z M155.190393,103.427867 C158.850995,103.427867 160.575702,101.546568 161.138871,100.836643 L161.138871,101.085117 C161.138871,102.469469 161.983626,103.427867 164.236304,103.427867 C165.855417,103.427867 167.157746,102.93092 167.720916,102.646951 L167.720916,99.0973285 C167.544925,99.1328247 167.016954,99.2038171 166.700171,99.2038171 C166.101803,99.2038171 165.890615,98.9553436 165.890615,98.3874041 L165.890615,93.0274747 C165.890615,87.9515151 162.265211,86.6381549 158.111835,86.6381549 C152.972913,86.6381549 149.805084,88.6614395 149.805084,92.7435049 L155.119997,92.7435049 C155.119997,91.3946485 156.211138,90.9686939 157.689458,90.9686939 C159.87174,90.9686939 160.258919,91.8915956 160.258919,93.3114445 L160.258919,94.7312933 C159.554957,94.3408349 157.900646,94.0213689 156.17594,94.0213689 C152.515337,94.0213689 149.241914,95.1217517 149.241914,98.70687 C149.241914,102.043515 152.057762,103.427867 155.190393,103.427867 L155.190393,103.427867 Z M156.809505,99.8782453 C155.61277,99.8782453 154.87361,99.4877869 154.87361,98.4583965 C154.87361,97.3935099 155.894355,97.0740439 157.548665,97.0740439 C158.675005,97.0740439 159.730948,97.1805325 160.258919,97.2870212 L160.258919,98.7423663 C159.906938,99.0618323 158.604608,99.8782453 156.809505,99.8782453 L156.809505,99.8782453 Z M172.014581,103.072905 L177.681475,103.072905 L177.681475,92.3530465 C178.279842,91.8206032 178.983804,91.465641 180.145342,91.465641 C181.623662,91.465641 182.222029,92.1755654 182.222029,94.0568651 L182.222029,103.072905 L187.888923,103.072905 L187.888923,93.0984671 C187.888923,88.2709811 185.17867,86.6381549 182.222029,86.6381549 C179.44138,86.6381549 177.892663,88.0580038 177.118305,89.1583866 L177.118305,86.9931171 L172.014581,86.9931171 L172.014581,103.072905 Z M201.017311,103.427867 C205.452271,103.427867 209.852033,101.61756 210.168816,96.0091573 L204.36113,96.0091573 C204.220338,98.1389305 203.058801,98.8843511 201.122905,98.8843511 C198.940623,98.8843511 197.743888,97.9259532 197.743888,95.0152631 C197.743888,92.104573 198.940623,91.1816712 201.122905,91.1816712 C202.988404,91.1816712 204.220338,91.8560994 204.36113,94.0568651 L210.168816,94.0568651 C209.852033,88.4484622 205.628262,86.6381549 201.052509,86.6381549 C196.476756,86.6381549 191.9714,88.4484622 191.9714,95.0152631 C191.9714,101.582064 196.511954,103.427867 201.017311,103.427867 L201.017311,103.427867 Z M222.664141,103.427867 C226.852715,103.427867 230.442921,102.150003 231.041288,98.1034343 L225.620781,98.1034343 C225.303998,99.0618323 224.036867,99.345802 222.628943,99.345802 C220.376265,99.345802 218.897945,98.6358776 218.79235,95.8671724 L231.182081,95.8671724 L231.182081,95.0152631 C231.182081,88.9099131 227.31029,86.6381549 222.488151,86.6381549 C217.912398,86.6381549 213.231051,88.6969357 213.231051,95.1927442 C213.231051,101.014124 216.962049,103.427867 222.664141,103.427867 L222.664141,103.427867 Z M218.79235,92.8854898 C219.179529,91.0041901 220.587453,90.4362506 222.31216,90.4362506 C224.036867,90.4362506 225.444791,91.0041901 225.83197,92.8854898 L218.79235,92.8854898 Z" id="Fill-10"></path>
                    <path d="M25.8368799,64.2831421 C26.3271391,64.7775537 26.7193465,64.7775537 27.2096057,64.2831421 L28.32086,63.1954365 C28.8111192,62.7010248 28.8111192,62.3054955 28.32086,61.8110838 L27.2096057,60.6904174 C26.7193465,60.1960058 26.3271391,60.1960058 25.8368799,60.6904174 L24.7583096,61.8110838 C24.2680504,62.3054955 24.2680504,62.7010248 24.7583096,63.1954365 L25.8368799,64.2831421 Z M26.5232428,72.4574147 C32.700509,72.4574147 35.3479088,68.4032392 35.3479088,62.4373386 C35.3479088,56.2407126 32.6678251,52.4502233 26.5232428,52.4502233 C20.3459766,52.4502233 17.6985768,56.471438 17.6985768,62.4373386 C17.6985768,68.6339646 20.3786606,72.4574147 26.5232428,72.4574147 L26.5232428,72.4574147 Z M26.5232428,67.842906 C23.7777912,67.842906 23.254848,66.1289456 23.254848,62.4373386 C23.254848,58.7457316 23.7777912,57.064732 26.5232428,57.064732 C29.2686945,57.064732 29.7916376,58.7457316 29.7916376,62.4373386 C29.7916376,66.1289456 29.2686945,67.842906 26.5232428,67.842906 L26.5232428,67.842906 Z M39.4655834,72.1278069 L46.2638447,72.1278069 L46.2638447,66.2607887 L39.4655834,66.2607887 L39.4655834,72.1278069 Z M39.4655834,63.0635934 L46.2638447,63.0635934 L46.2638447,57.1965751 L39.4655834,57.1965751 L39.4655834,63.0635934 Z M59.7623152,72.4574147 C66.0049493,72.4574147 67.9986702,68.9635724 67.9986702,65.7993378 C67.9986702,62.4702994 65.7761617,59.6356726 61.3311448,59.6356726 C59.0432684,59.6356726 57.2129673,60.3937705 55.9382933,61.5473976 C56.0690291,58.1194769 57.0495475,56.5043988 59.8276831,56.5043988 C61.7233521,56.5043988 62.7365545,57.2624967 62.9980261,58.3502023 L67.9006183,58.3502023 C67.9006183,56.6362419 66.4952086,52.4502233 59.7949992,52.4502233 C53.7484688,52.4502233 50.7415456,55.8451833 50.7415456,62.5362209 C50.7415456,69.3261409 53.8465206,72.4574147 59.7623152,72.4574147 L59.7623152,72.4574147 Z M59.5988955,68.2384353 C57.7032265,68.2384353 56.4612365,67.6781021 56.0690291,64.6786714 C57.0495475,64.0194559 58.3569055,63.558005 59.893051,63.558005 C61.4945645,63.558005 62.8999743,64.0524167 62.8999743,65.8322986 C62.8999743,67.3814551 61.8540879,68.2384353 59.5988955,68.2384353 L59.5988955,68.2384353 Z M98.7522541,55.0541247 L84.7962082,55.0541247 C84.0117934,55.0541247 82.5083318,54.0653014 82.5083318,54.0653014 L80.5799789,59.1083002 C80.5799789,59.1083002 82.0507566,60.0641627 83.0639589,60.3278489 L84.1098453,72.4244539 C95.4511753,71.3697091 98.7522541,64.151299 98.7522541,55.0541247 L98.7522541,55.0541247 Z M93.130615,60.3937705 C92.8037755,62.4043778 91.1695781,65.04124 88.7836499,65.9971025 L88.2607067,60.3937705 L93.130615,60.3937705 Z M112.185357,70.8093758 L112.185357,57.3943398 L105.844671,54.1971445 L102.968483,58.6468493 L106.890557,60.5915351 L106.890557,66.2278279 L101.20355,67.0518473 L102.053333,72.1937285 L112.185357,70.8093758 Z M133.625524,68.0077098 L133.625524,58.6798101 C133.625524,56.4055165 131.729855,55.0541247 129.70345,55.0541247 L123.951075,55.0541247 L122.41493,58.0535553 C121.990038,56.768085 121.303675,55.449654 120.225105,53.9334582 L116.106928,57.0976928 C118.721644,61.4814761 118.264068,66.8211219 115.780088,72.1278069 L121.369043,72.1278069 C123.297396,67.9088275 123.362764,63.3932011 123.101293,61.1518683 C123.297396,60.6574567 123.428132,60.3937705 124.212547,60.3937705 L127.21947,60.3937705 C127.578993,60.3937705 128.330724,60.4926528 128.330724,61.1189075 L128.330724,65.8982201 C128.330724,65.8982201 129.147823,65.6674947 124.081811,67.0518473 L125.095013,72.1278069 L131.795223,70.2490426 C132.873793,69.9523957 133.625524,68.9965331 133.625524,68.0077098 L133.625524,68.0077098 Z M150.163602,72.1278069 L150.163602,57.2624967 C150.163602,55.9770264 148.856244,55.0541247 147.908409,55.0541247 L140.88136,55.0541247 C140.325733,55.0541247 139.443267,54.559713 138.626168,54.1312229 L136.730499,59.1412609 C136.730499,59.1412609 138.953007,60.3937705 139.835474,60.3937705 L144.509279,60.3937705 C144.868802,60.3937705 144.901486,60.3937705 144.901486,60.8881821 L144.901486,72.1278069 L150.163602,72.1278069 Z M162.158108,72.1278069 L162.158108,57.8228299 L156.242313,54.1641837 L153.758333,58.6468493 L156.863308,60.6904174 L156.863308,72.1278069 L162.158108,72.1278069 Z M179.578652,68.86469 L179.578652,60.6574567 C179.578652,59.3390256 179.513284,58.0865161 177.682983,57.4273006 L172.878443,54.9882031 C171.505717,54.2960268 170.296411,54.0323406 169.348576,55.6803794 L166.733861,60.2289666 C165.099663,63.0635934 166.962648,64.6786714 169.152473,65.766377 C169.152473,65.766377 169.838836,66.063024 170.62325,66.4915141 L172.845759,62.1736524 L171.86524,61.64628 L172.551603,60.3937705 C174.545324,61.4485153 174.251169,61.2837114 174.251169,61.3166722 L174.251169,67.1507297 C172.584287,67.5132982 165.589922,68.4691607 165.589922,68.5350823 L166.210917,73.0507087 L176.833201,71.8311599 C178.467398,71.6333953 179.578652,70.2820034 179.578652,68.86469 L179.578652,68.86469 Z M196.11673,72.1278069 L196.11673,57.2624967 C196.11673,55.9770264 194.809372,55.0541247 193.861537,55.0541247 L186.834489,55.0541247 C186.278862,55.0541247 185.396395,54.559713 184.579296,54.1312229 L182.683627,59.1412609 C182.683627,59.1412609 184.906136,60.3937705 185.788602,60.3937705 L190.462407,60.3937705 C190.82193,60.3937705 190.854614,60.3937705 190.854614,60.8881821 L190.854614,72.1278069 L196.11673,72.1278069 Z M213.536771,68.86469 L213.536771,60.6574567 C213.536771,59.3390256 213.471404,58.0865161 211.641102,57.4273006 L206.836562,54.9882031 C205.463836,54.2960268 204.25453,54.0323406 203.306696,55.6803794 L200.69198,60.2289666 C199.057782,63.0635934 200.920767,64.6786714 203.110592,65.766377 C203.110592,65.766377 203.796955,66.063024 204.58137,66.4915141 L206.803878,62.1736524 L205.82336,61.64628 L206.509723,60.3937705 C208.503443,61.4485153 208.209288,61.2837114 208.209288,61.3166722 L208.209288,67.1507297 C206.542407,67.5132982 199.548042,68.4691607 199.548042,68.5350823 L200.169037,73.0507087 L210.79132,71.8311599 C212.425517,71.6333953 213.536771,70.2820034 213.536771,68.86469 L213.536771,68.86469 Z" id="Fill-12"></path>
                    <path d="M27.0487001,13.6908855 C29.8997461,13.6908855 32.0820281,11.7385934 32.0820281,9.05862868 C32.0820281,6.91110731 30.1285337,5.63324336 28.7206098,5.5267547 C29.9877413,5.10080005 31.1844766,4.01816531 31.1844766,2.75804946 C31.1844766,1.16071952 29.9525432,0.220069669 28.3686288,0.220069669 C26.8375115,0.220069669 25.4647857,1.00098653 24.3032485,2.52732403 C24.1800551,2.68705702 24.2504513,2.86453813 24.3736447,2.95327868 L24.7784228,3.30824089 C24.9016161,3.39698144 25.0776066,3.39698144 25.2008,3.23724845 C25.7815686,2.56282025 26.4855306,1.94163638 27.3830821,1.94163638 C28.2454355,1.94163638 28.9141993,2.56282025 28.9141993,3.48572199 C28.9141993,4.60385295 27.8230583,5.33152548 26.7143182,5.54450281 L26.2567429,5.63324336 C26.0983515,5.65099147 26.0103562,5.73973202 26.0103562,5.88171691 L26.0103562,6.59164132 C26.0103562,6.73362621 26.1511486,6.82236676 26.291941,6.82236676 C27.9286526,6.78687054 29.7061565,8.02923827 29.7061565,10.1412634 C29.7061565,11.4723717 28.7734069,12.4130216 27.4006811,12.4130216 C25.7639696,12.4130216 25.9047619,10.8689359 26.2215448,10.1235153 C26.274342,9.99927853 26.291941,9.89278987 26.291941,9.75080499 L26.291941,9.431339 C26.291941,9.30710222 26.1511486,9.21836167 26.0103562,9.271606 L23.757678,10.4074851 C23.423296,10.54947 23.2297065,10.8334397 23.2297065,11.2593944 C23.2297065,12.2177923 24.3560456,13.6908855 27.0487001,13.6908855 L27.0487001,13.6908855 Z M33.6659426,6.99984786 C33.6659426,10.7269511 35.5666398,13.7441298 38.3296905,13.7441298 C41.0927412,13.7441298 42.9934385,10.7269511 42.9934385,6.99984786 C42.9934385,3.27274467 41.0927412,0.23781778 38.3296905,0.23781778 C35.5666398,0.23781778 33.6659426,3.27274467 33.6659426,6.99984786 L33.6659426,6.99984786 Z M35.3554513,7.81626095 C34.6866874,5.27828115 35.3378522,2.88228624 37.1329552,2.36759103 C38.9456573,1.88839205 40.635166,3.6632031 41.3215289,6.18343478 C41.9902927,8.72141458 41.3391279,11.0996614 39.5440249,11.6143566 C37.7313229,12.0935556 36.0418142,10.3364926 35.3554513,7.81626095 L35.3554513,7.81626095 Z M46.1607645,10.3542407 C45.8263826,10.6559586 45.3688073,11.1174095 45.0872225,11.4368755 C44.8408358,11.7030971 44.8584349,12.0580593 45.1048216,12.324281 C45.3864064,12.643747 45.8615807,13.1051979 46.1607645,13.3891676 C46.4247502,13.6376412 46.7767312,13.6376412 47.040717,13.3891676 C47.3574998,13.1051979 47.8150751,12.6614951 48.114259,12.324281 C48.3606456,12.0580593 48.3430466,11.7030971 48.0966599,11.4546236 C47.7974761,11.1351576 47.3574998,10.6914548 47.0231179,10.3719889 C46.7767312,10.1235153 46.4247502,10.1057672 46.1607645,10.3542407 L46.1607645,10.3542407 Z M50.5429277,2.27885048 C50.4197344,2.34984292 50.3669372,2.43858348 50.4021353,2.58056836 L50.4725315,2.91778246 C50.5077296,3.07751545 50.6133239,3.13075978 50.7717154,3.11301167 L51.5284745,3.04201923 C52.0388469,2.9887749 52.3908279,3.21950034 52.3908279,3.76969176 L52.4084269,11.0996614 C52.4084269,12.0580593 51.7924602,12.3952734 50.8773096,12.5372583 C50.7189182,12.5550064 50.648522,12.6614951 50.6661211,12.80348 L50.7013192,13.1761903 C50.7189182,13.3004271 50.8069134,13.3891676 50.9477058,13.3891676 L55.9810339,13.3891676 C56.1218262,13.3891676 56.2098215,13.3004271 56.2274205,13.1761903 L56.2626186,12.80348 C56.2802177,12.6614951 56.2098215,12.5550064 56.0514301,12.5372583 C55.1362795,12.3952734 54.5379118,12.0580593 54.5379118,11.0996614 L54.5555109,0.823505425 C54.5555109,0.699268652 54.4851147,0.6105281 54.3443223,0.592779989 L53.3411765,0.592779989 C53.2003841,0.592779989 53.0947898,0.62827621 52.9715965,0.717016762 C52.1620402,1.33820063 51.5460735,1.74640717 50.5429277,2.27885048 L50.5429277,2.27885048 Z M57.8641321,6.99984786 C57.8641321,10.7269511 59.7648294,13.7441298 62.5278801,13.7441298 C65.2909308,13.7441298 67.1916281,10.7269511 67.1916281,6.99984786 C67.1916281,3.27274467 65.2909308,0.23781778 62.5278801,0.23781778 C59.7648294,0.23781778 57.8641321,3.27274467 57.8641321,6.99984786 L57.8641321,6.99984786 Z M59.5536408,7.81626095 C58.8848769,5.27828115 59.5360418,2.88228624 61.3311448,2.36759103 C63.1438468,1.88839205 64.8333555,3.6632031 65.5197184,6.18343478 C66.1884823,8.72141458 65.5373175,11.0996614 63.7422145,11.6143566 C61.9295124,12.0935556 60.2400037,10.3364926 59.5536408,7.81626095 L59.5536408,7.81626095 Z M79.334469,9.71530876 C79.5984548,9.71530876 79.7744453,9.57332388 79.8448415,9.37809467 L80.1792234,8.40194859 C80.2672186,8.17122315 80.1264263,7.99374205 79.8976386,7.99374205 L69.6549921,7.99374205 C69.3910064,7.99374205 69.2150159,8.13572693 69.1446197,8.33095615 L68.8102377,9.30710222 C68.7222425,9.53782766 68.8630349,9.71530876 69.0918225,9.71530876 L79.334469,9.71530876 Z M81.4463549,13.1761903 C81.4463549,13.3004271 81.5167511,13.3891676 81.6575435,13.3891676 L88.0811964,13.3891676 C88.2219888,13.3891676 88.3275831,13.3359233 88.4155783,13.2116865 L90.0170918,10.8689359 C90.087488,10.7624473 90.105087,10.6737067 90.105087,10.5317218 L90.105087,10.1590115 C90.105087,10.0347748 90.0346908,9.9460342 89.8938984,9.9460342 L89.4011251,9.9460342 C89.2603327,9.9460342 89.1723374,9.99927853 89.0491441,10.1057672 C88.3451821,10.709203 87.940404,11.0286689 86.9900554,11.0286689 L83.628637,11.0286689 C84.1566085,10.3542407 85.1597543,9.41359089 87.0780506,8.11797882 C88.8203565,6.94660353 90.0170918,5.65099147 90.0170918,3.73419554 C90.0170918,1.58667417 88.3627812,0.23781778 86.2508953,0.23781778 C84.2094056,0.23781778 82.5022979,1.87064394 81.6047464,3.52121821 C81.5167511,3.68095121 81.5695483,3.82293609 81.6927416,3.92942476 L82.0975197,4.23114263 C82.2383121,4.3376313 82.4319017,4.30213507 82.537496,4.14240208 C83.2062598,3.18400412 83.980618,2.22560615 85.4589381,2.27885048 C86.5500791,2.3143467 87.4300316,3.13075978 87.4652297,4.26663885 C87.5004278,5.22503682 86.9900554,6.05919801 86.145301,6.87561109 C83.980618,8.98763624 82.4846988,10.5672181 81.5519492,12.324281 C81.4991521,12.4307697 81.4463549,12.5550064 81.4463549,12.7147394 L81.4463549,13.1761903 Z M93.3609111,10.3542407 C93.0265292,10.6559586 92.5689539,11.1174095 92.2873691,11.4368755 C92.0409824,11.7030971 92.0585815,12.0580593 92.3049682,12.324281 C92.5865529,12.643747 93.0617273,13.1051979 93.3609111,13.3891676 C93.6248968,13.6376412 93.9768778,13.6376412 94.2408636,13.3891676 C94.5576464,13.1051979 95.0152217,12.6614951 95.3144055,12.324281 C95.5607922,12.0580593 95.5431932,11.7030971 95.2968065,11.4546236 C94.9976227,11.1351576 94.5576464,10.6914548 94.2232645,10.3719889 C93.9768778,10.1235153 93.6248968,10.1057672 93.3609111,10.3542407 L93.3609111,10.3542407 Z M97.7430743,2.27885048 C97.619881,2.34984292 97.5670838,2.43858348 97.6022819,2.58056836 L97.6726781,2.91778246 C97.7078762,3.07751545 97.8134705,3.13075978 97.9718619,3.11301167 L98.728621,3.04201923 C99.2389935,2.9887749 99.5909744,3.21950034 99.5909744,3.76969176 L99.6085735,11.0996614 C99.6085735,12.0580593 98.9926068,12.3952734 98.0774562,12.5372583 C97.9190648,12.5550064 97.8486686,12.6614951 97.8662676,12.80348 L97.9014657,13.1761903 C97.9190648,13.3004271 98.00706,13.3891676 98.1478524,13.3891676 L103.18118,13.3891676 C103.321973,13.3891676 103.409968,13.3004271 103.427567,13.1761903 L103.462765,12.80348 C103.480364,12.6614951 103.409968,12.5550064 103.251577,12.5372583 C102.336426,12.3952734 101.738058,12.0580593 101.738058,11.0996614 L101.755657,0.823505425 C101.755657,0.699268652 101.685261,0.6105281 101.544469,0.592779989 L100.541323,0.592779989 C100.400531,0.592779989 100.294936,0.62827621 100.171743,0.717016762 C99.3621868,1.33820063 98.7462201,1.74640717 97.7430743,2.27885048 L97.7430743,2.27885048 Z M105.398661,2.27885048 C105.275467,2.34984292 105.22267,2.43858348 105.257868,2.58056836 L105.328264,2.91778246 C105.363463,3.07751545 105.469057,3.13075978 105.627448,3.11301167 L106.384207,3.04201923 C106.89458,2.9887749 107.246561,3.21950034 107.246561,3.76969176 L107.26416,11.0996614 C107.26416,12.0580593 106.648193,12.3952734 105.733043,12.5372583 C105.574651,12.5550064 105.504255,12.6614951 105.521854,12.80348 L105.557052,13.1761903 C105.574651,13.3004271 105.662646,13.3891676 105.803439,13.3891676 L110.836767,13.3891676 C110.977559,13.3891676 111.065554,13.3004271 111.083153,13.1761903 L111.118352,12.80348 C111.135951,12.6614951 111.065554,12.5550064 110.907163,12.5372583 C109.992012,12.3952734 109.393645,12.0580593 109.393645,11.0996614 L109.411244,0.823505425 C109.411244,0.699268652 109.340848,0.6105281 109.200055,0.592779989 L108.196909,0.592779989 C108.056117,0.592779989 107.950523,0.62827621 107.827329,0.717016762 C107.017773,1.33820063 106.401806,1.74640717 105.398661,2.27885048 L105.398661,2.27885048 Z M114.479267,10.3542407 C114.144885,10.6559586 113.68731,11.1174095 113.405725,11.4368755 C113.159338,11.7030971 113.176937,12.0580593 113.423324,12.324281 C113.704909,12.643747 114.180083,13.1051979 114.479267,13.3891676 C114.743253,13.6376412 115.095234,13.6376412 115.35922,13.3891676 C115.676002,13.1051979 116.133578,12.6614951 116.432762,12.324281 C116.679148,12.0580593 116.661549,11.7030971 116.415162,11.4546236 C116.115979,11.1351576 115.676002,10.6914548 115.34162,10.3719889 C115.095234,10.1235153 114.743253,10.1057672 114.479267,10.3542407 L114.479267,10.3542407 Z M118.86143,2.27885048 C118.738237,2.34984292 118.68544,2.43858348 118.720638,2.58056836 L118.791034,2.91778246 C118.826232,3.07751545 118.931826,3.13075978 119.090218,3.11301167 L119.846977,3.04201923 C120.357349,2.9887749 120.70933,3.21950034 120.70933,3.76969176 L120.726929,11.0996614 C120.726929,12.0580593 120.110963,12.3952734 119.195812,12.5372583 C119.037421,12.5550064 118.967025,12.6614951 118.984624,12.80348 L119.019822,13.1761903 C119.037421,13.3004271 119.125416,13.3891676 119.266208,13.3891676 L124.299536,13.3891676 C124.440329,13.3891676 124.528324,13.3004271 124.545923,13.1761903 L124.581121,12.80348 C124.59872,12.6614951 124.528324,12.5550064 124.369933,12.5372583 C123.454782,12.3952734 122.856414,12.0580593 122.856414,11.0996614 L122.874013,0.823505425 C122.874013,0.699268652 122.803617,0.6105281 122.662825,0.592779989 L121.659679,0.592779989 C121.518887,0.592779989 121.413292,0.62827621 121.290099,0.717016762 C120.480543,1.33820063 119.864576,1.74640717 118.86143,2.27885048 L118.86143,2.27885048 Z M129.772841,13.1406941 C129.508855,9.12962112 133.099061,3.69869932 133.908617,2.19010993 C133.996612,2.03037694 134.014211,1.92388827 134.014211,1.76415528 L134.014211,0.823505425 C134.014211,0.699268652 133.908617,0.592779989 133.767825,0.592779989 L128.065733,0.592779989 C127.502563,0.592779989 126.851399,0.504039437 126.481818,0.326558332 C126.323427,0.25556589 126.094639,0.291062111 126.094639,0.486291326 L126.094639,3.62770688 C126.094639,3.78743987 126.147437,3.91167664 126.253031,3.96492098 L126.605012,4.14240208 C126.763403,4.21339452 126.904196,4.16015019 126.974592,4.03591342 C127.432167,3.23724845 128.048134,2.82904191 128.963284,2.82904191 L132.412698,2.79354569 C131.303958,4.78133406 128.505709,7.31931385 127.150582,13.1406941 C127.115384,13.282679 127.238578,13.3891676 127.37937,13.3891676 L129.544053,13.3891676 C129.684845,13.3891676 129.79044,13.282679 129.772841,13.1406941 L129.772841,13.1406941 Z M142.719204,6.08150992 C141.29167,6.08150992 140.143206,7.20826139 140.143206,8.63216694 C140.143206,10.0560725 141.29167,11.182824 142.719204,11.182824 C144.146738,11.182824 145.294699,10.0560725 145.294699,8.63216694 C145.294699,7.20826139 144.146738,6.08150992 142.719204,6.08150992 L142.719204,6.08150992 Z M154.292841,1.70584006 L153.568766,1.70584006 C153.02571,1.70584006 152.708927,1.56131973 152.618418,1.27227908 C152.497236,0.876749756 152.421811,0.678985097 152.392144,0.678985097 C151.742991,0.678985097 151.419168,1.34834241 151.419168,2.68705702 C151.419168,3.90407031 152.052734,4.51257696 153.319865,4.51257696 L153.591394,4.51257696 C153.998686,4.51257696 154.284796,4.55821495 154.451233,4.64949095 C154.677506,4.78640495 154.790643,5.03741394 154.790643,5.40251792 C154.790643,6.16315123 154.345136,7.01506053 153.455629,7.95824583 L153.976058,8.43744481 C155.424209,7.20521886 156.148284,5.73719658 156.148284,4.03337797 C156.148284,2.48168603 155.5293,1.70584006 154.292841,1.70584006 L154.292841,1.70584006 Z M168.728587,6.1555449 L168.683332,4.05619697 C168.668247,3.280351 168.419347,2.67945069 167.93663,2.25349604 C167.514253,1.88839205 167.031536,1.70584006 166.48848,1.70584006 L161.8725,1.70584006 C161.329444,1.70584006 160.997576,1.5308944 160.876897,1.18100308 C160.816557,0.846324424 160.756218,0.678985097 160.695878,0.678985097 C160.047228,0.678985097 159.722902,1.34834241 159.722902,2.68705702 C159.722902,3.90407031 160.333841,4.51257696 161.555717,4.51257696 L161.781991,4.51257696 C161.585887,4.61906562 161.359614,4.85486194 161.103171,5.21996593 C160.741133,5.75240924 160.507317,6.16315123 160.401723,6.45219188 C160.265959,6.81729587 160.198077,7.23564419 160.198077,7.70723684 C160.198077,8.02670283 160.250874,8.51350814 160.356468,9.16765278 L160.582741,10.5596117 L159.066709,10.5596117 L158.455771,13.3891676 L161.510463,13.3891676 L162.30242,11.0616297 C162.196826,10.8334397 162.113859,10.6204624 162.053519,10.4226977 C161.90267,9.98153042 161.804618,9.6316391 161.759364,9.37302378 C161.487835,8.23207382 161.352071,7.34213285 161.352071,6.70320088 C161.352071,6.29245889 161.518005,5.85534828 161.849873,5.39136197 C162.181741,4.92737565 162.543778,4.63427828 162.935986,4.51257696 L165.854914,4.51257696 C166.081187,4.51257696 166.310981,4.55466533 166.545299,4.63782791 C166.779115,4.72200466 166.948569,4.83204294 167.054163,4.96895694 C167.325691,5.33406093 167.461456,6.74883887 167.461456,9.21329078 L167.461456,10.1945077 L167.303064,12.3851317 C167.272894,12.780661 167.257809,13.214222 167.257809,13.6858146 L169.04537,11.8602947 C168.894521,10.5520054 168.788927,8.65042214 168.728587,6.1555449 L168.728587,6.1555449 Z M175.924084,6.1555449 L175.924084,3.50854099 C175.924084,3.03694834 175.810444,2.63381269 175.583165,2.29913404 C175.325213,1.90360472 174.976752,1.70584006 174.537279,1.70584006 L173.332498,1.70584006 C172.77134,1.70584006 172.453049,1.5537134 172.377121,1.24946008 C172.271024,0.869143423 172.203142,0.678985097 172.17247,0.678985097 C171.505717,0.678985097 171.172341,1.34834241 171.172341,2.68705702 C171.172341,3.371627 171.360902,3.85843231 171.738024,4.14747297 C172.069892,4.39087563 172.590321,4.51257696 173.299311,4.51257696 C173.872538,4.51257696 174.242118,4.62312233 174.408052,4.8431989 C174.573985,5.06428965 174.656952,6.27724622 174.656952,8.48308281 L174.656952,10.1945077 L174.498561,12.3851317 C174.468391,12.780661 174.453306,13.214222 174.453306,13.6858146 L176.263494,11.8602947 C176.052306,10.1108381 175.939169,8.20925482 175.924084,6.1555449 L175.924084,6.1555449 Z M182.327624,1.70584006 L180.766337,1.70584006 C180.22328,1.70584006 179.898452,1.5308944 179.793361,1.18100308 C179.793361,0.846324424 179.733021,0.678985097 179.612342,0.678985097 C178.948103,0.678985097 178.616738,1.34834241 178.616738,2.68705702 C178.616738,3.52375366 178.888267,4.06380331 179.431323,4.30720596 C179.733021,4.44411996 180.366587,4.51257696 181.33202,4.51257696 C180.985068,4.95374427 180.758794,5.30363559 180.6532,5.56225092 C180.517436,5.88171691 180.449554,6.28485256 180.449554,6.77165787 L180.607945,9.50993777 C180.638115,9.99674309 180.6532,10.5443991 180.6532,11.1529057 C180.6532,11.6092857 180.585318,12.4535887 180.449554,13.6858146 C180.861874,13.579326 181.277715,13.2978916 181.69808,12.8415116 C182.117441,12.3851317 182.327624,11.9439643 182.327624,11.5180097 C182.327624,11.411521 182.267284,10.8562587 182.146605,9.85222276 L181.739313,6.47501088 L181.694058,5.9729929 C181.694058,5.72959024 181.753895,5.44815592 181.875077,5.12868993 C182.010841,4.71794795 182.169232,4.51257696 182.350251,4.51257696 L183.436364,4.51257696 C183.617382,4.14747297 183.707892,3.73673098 183.707892,3.280351 C183.707892,2.23067704 183.247802,1.70584006 182.327624,1.70584006 L182.327624,1.70584006 Z M194.206479,1.70584006 L188.617524,1.70584006 C188.074467,1.70584006 187.7426,1.5308944 187.62192,1.18100308 C187.561581,0.846324424 187.501241,0.678985097 187.440902,0.678985097 C186.792251,0.678985097 186.467926,1.34986367 186.467926,2.69060665 C186.467926,3.91015538 187.026067,4.51916911 188.142349,4.51916911 C187.584208,5.11347727 187.214628,5.59369043 187.033609,5.9593015 C186.792251,6.43190833 186.671572,7.01861015 186.671572,7.71991406 L186.671572,13.6858146 C187.757684,13.3810542 188.300741,12.8014516 188.300741,11.947514 L188.300741,6.52571977 C188.300741,5.7179272 188.42142,5.19917529 188.662778,4.96997112 L189.16058,4.51257696 L194.093342,4.51257696 C194.093342,4.69512895 193.934951,5.10587093 193.618168,5.74480291 C193.422064,6.14033223 193.324012,6.60431855 193.324012,7.13676186 C193.324012,7.57792918 193.34312,8.24728649 193.380832,9.14483379 C193.418041,10.0423811 193.437149,10.7117384 193.437149,11.1529057 L193.437149,12.2253987 C193.391894,12.9099686 193.369267,13.396774 193.369267,13.6858146 C193.821814,13.624964 194.244191,13.3704053 194.636398,12.9216317 C195.028606,12.472858 195.22471,12.0124213 195.22471,11.5408287 C195.22471,11.3582767 195.19454,11.0540234 195.1342,10.6280687 L194.659026,7.25085686 C194.583601,6.71841354 194.545889,6.34570322 194.545889,6.1327259 C194.545889,5.85889791 194.711823,5.44815592 195.043691,4.90049994 C195.375559,4.35284396 195.541492,3.94970831 195.541492,3.69109299 L195.541492,3.280351 C195.541492,2.23067704 195.096488,1.70584006 194.206479,1.70584006 L194.206479,1.70584006 Z M206.040582,1.70584006 L200.429,1.70584006 C199.885943,1.70584006 199.561115,1.5308944 199.456024,1.18100308 C199.456024,0.846324424 199.395684,0.678985097 199.275005,0.678985097 C198.610767,0.678985097 198.279402,1.34834241 198.279402,2.68705702 C198.279402,3.371627 198.467963,3.85843231 198.845085,4.14747297 C199.17645,4.39087563 199.696879,4.51257696 200.406372,4.51257696 L205.927445,4.51257696 C205.927445,4.66470362 205.859563,4.87768094 205.723799,5.15150893 L205.429644,5.74480291 C205.23354,6.24682089 205.135488,6.71080721 205.135488,7.13676186 C205.135488,7.47144051 205.172698,8.30813715 205.248625,9.64685177 C205.278795,10.1792951 205.29388,10.6813131 205.29388,11.1529057 C205.29388,11.4267337 205.274772,11.845082 205.23706,12.4079507 C205.199348,12.9708193 205.180743,13.396774 205.180743,13.6858146 C205.63329,13.624964 206.055164,13.3704053 206.447875,12.9216317 C206.840082,12.472858 207.036186,12.0124213 207.036186,11.5408287 C207.036186,11.3582767 207.005513,11.0540234 206.945676,10.6280687 L206.470502,7.25085686 C206.394575,6.71841354 206.357365,6.34570322 206.357365,6.1327259 C206.357365,5.85889791 206.523299,5.44815592 206.855167,4.90049994 C207.186532,4.35284396 207.352968,3.94970831 207.352968,3.69109299 L207.352968,3.280351 C207.352968,2.23067704 206.915004,1.70584006 206.040582,1.70584006 L206.040582,1.70584006 Z M199.184496,7.66159884 C198.777203,8.05712816 198.573557,8.49068914 198.573557,8.96228179 L198.573557,13.6858146 C198.980849,13.624964 199.373057,13.4003236 199.750179,13.0129077 C200.126799,12.6244776 200.315863,12.2253987 200.315863,11.8146567 C200.315863,11.43434 200.296755,10.8562587 200.259043,10.0804128 C200.221331,9.30456678 200.202726,8.71887913 200.202726,8.32334982 C200.202726,8.03430916 200.300778,7.61596084 200.496882,7.06830486 C200.02925,7.06830486 199.591788,7.26606952 199.184496,7.66159884 L199.184496,7.66159884 Z" id="Fill-5"></path>
                </g>
            </g>
        </g>
    </g>
</svg>